<svg width="27" height="31" viewBox="0 0 27 31" fill="none" xmlns="http://www.w3.org/2000/svg">
<g clip-path="url(#clip0_115_242)">
<path d="M22.2266 24.1735L19.2011 19.8463L15.5515 23.0382L17.1158 25.2764L15.6513 26.7409C14.7112 27.6871 14.7051 29.2119 15.6513 30.1521C16.5975 31.0923 18.1223 31.0923 19.0625 30.1521L21.9554 27.2592C22.781 26.4335 22.8955 25.1318 22.2266 24.1735Z" fill="#FF6063" fill-opacity="0.8"/>
<path d="M7.80447 19.8463L11.4567 23.0405L9.88973 25.2824L11.3542 26.7469C12.2944 27.6871 12.2944 29.2119 11.3542 30.1581C10.4141 31.1043 8.88929 31.0983 7.94308 30.1581L5.05022 27.2652C4.21853 26.4336 4.10402 25.1318 4.77299 24.1735L7.79844 19.8463H7.80447Z" fill="#DA3435"/>
<path d="M2.39241 8.70877C3.17589 7.62998 4.68259 7.39494 5.76138 8.17842L7.94308 9.76346C9.55826 10.9387 11.5049 11.5715 13.4998 11.5715C15.4946 11.5715 17.4413 10.9387 19.0565 9.76346L21.2382 8.17239C22.317 7.38891 23.8237 7.62998 24.6071 8.70275C25.3906 9.77552 25.1496 11.2882 24.0768 12.0717L21.8951 13.6628C21.0754 14.2594 20.2016 14.7597 19.2855 15.1695V17.3572H7.71406V15.1695C6.79799 14.7657 5.92411 14.2594 5.10447 13.6628L2.92277 12.0717C1.84397 11.2882 1.60893 9.78154 2.39241 8.70275V8.70877Z" fill="#DA3435"/>
<path fill-rule="evenodd" clip-rule="evenodd" d="M15.5489 23.0405L15.5515 23.0382L15.5489 23.0344V23.0405Z" fill="black"/>
<path d="M9.16049 5.30364C9.16049 4.7338 9.27273 4.16953 9.4908 3.64307C9.70887 3.1166 10.0285 2.63824 10.4314 2.2353C10.8344 1.83236 11.3127 1.51273 11.8392 1.29466C12.3657 1.07659 12.9299 0.964355 13.4998 0.964355C14.0696 0.964355 14.6339 1.07659 15.1604 1.29466C15.6868 1.51273 16.1652 1.83236 16.5681 2.2353C16.9711 2.63824 17.2907 3.1166 17.5088 3.64307C17.7268 4.16953 17.8391 4.7338 17.8391 5.30364C17.8391 5.87348 17.7268 6.43775 17.5088 6.96421C17.2907 7.49068 16.9711 7.96904 16.5681 8.37198C16.1652 8.77492 15.6868 9.09455 15.1604 9.31262C14.6339 9.53069 14.0696 9.64293 13.4998 9.64293C12.9299 9.64293 12.3657 9.53069 11.8392 9.31262C11.3127 9.09455 10.8344 8.77492 10.4314 8.37198C10.0285 7.96904 9.70887 7.49068 9.4908 6.96421C9.27273 6.43775 9.16049 5.87348 9.16049 5.30364Z" fill="#DA3435"/>
</g>
<defs>
<clipPath id="clip0_115_242">
<rect width="27" height="30.8571" fill="white"/>
</clipPath>
</defs>
</svg>
