<svg width="36" height="36" viewBox="0 0 36 36" fill="none" xmlns="http://www.w3.org/2000/svg">
<path d="M4.5 17.9865C4.5 26.4435 10.8585 30.549 14.8485 32.2905C15.93 32.763 16.4715 33 18 33V12L4.5 16.5V17.9865Z" fill="#DA3435"/>
<path opacity="0.5" d="M21.1515 32.2905C25.1415 30.5475 31.5 26.445 31.5 17.9865V16.5L18 12V33C19.53 33 20.07 32.763 21.1515 32.2905ZM13.257 4.2075L12.3975 4.5C7.887 6.045 5.6325 6.8175 5.067 7.623C4.5 8.43 4.5 10.83 4.5 15.6255V16.5L18 12V3C16.7835 3 15.6075 3.402 13.257 4.2075Z" fill="#DA3435"/>
<path d="M23.6025 4.5L22.743 4.2075C20.3925 3.402 19.218 3 18 3V12L31.5 16.5V15.6255C31.5 10.8285 31.5 8.43 30.933 7.623C30.3675 6.8175 28.113 6.0435 23.6025 4.5Z" fill="#DA3435"/>
</svg>
