<svg width="29" height="29" viewBox="0 0 29 29" fill="none" xmlns="http://www.w3.org/2000/svg">
<path fill-rule="evenodd" clip-rule="evenodd" d="M1.8125 14.5C1.8125 17.8649 3.14921 21.0921 5.52858 23.4714C7.90795 25.8508 11.1351 27.1875 14.5 27.1875C17.8649 27.1875 21.0921 25.8508 23.4714 23.4714C25.8508 21.0921 27.1875 17.8649 27.1875 14.5C27.1875 11.1351 25.8508 7.90795 23.4714 5.52858C21.0921 3.14921 17.8649 1.8125 14.5 1.8125C11.1351 1.8125 7.90795 3.14921 5.52858 5.52858C3.14921 7.90795 1.8125 11.1351 1.8125 14.5ZM25.0125 14.5C25.0125 17.2881 23.9049 19.962 21.9335 21.9335C19.962 23.9049 17.2881 25.0125 14.5 25.0125C11.7119 25.0125 9.03802 23.9049 7.06654 21.9335C5.09506 19.962 3.9875 17.2881 3.9875 14.5C3.9875 11.7119 5.09506 9.03802 7.06654 7.06654C9.03802 5.09506 11.7119 3.9875 14.5 3.9875C17.2881 3.9875 19.962 5.09506 21.9335 7.06654C23.9049 9.03802 25.0125 11.7119 25.0125 14.5Z" fill="#DA3435"/>
<path fill-rule="evenodd" clip-rule="evenodd" d="M9.0625 14.5001C9.0625 21.057 11.2244 26.4626 14.5 26.4626C17.7756 26.4626 19.9375 21.057 19.9375 14.5001C19.9375 7.9432 17.7756 2.5376 14.5 2.5376C11.2244 2.5376 9.0625 7.9432 9.0625 14.5001ZM17.7625 14.5001C17.7625 19.955 16.0298 24.2876 14.5 24.2876C12.9703 24.2876 11.2375 19.955 11.2375 14.5001C11.2375 9.0452 12.9703 4.7126 14.5 4.7126C16.0298 4.7126 17.7625 9.0452 17.7625 14.5001Z" fill="#DA3435"/>
<path d="M5.223 7.9271L6.6817 6.3147C6.8267 6.44616 6.98378 6.57521 7.15295 6.70185C8.9959 8.08225 11.9379 8.93485 15.1497 8.93485C17.8916 8.93485 20.4465 8.3157 22.2996 7.25575C22.7472 6.99958 23.1431 6.72408 23.4872 6.42925L24.8995 8.0837C24.449 8.4694 23.9425 8.82223 23.3799 9.1422C21.1817 10.4008 18.2556 11.1084 15.1497 11.1084C11.4928 11.1084 8.09545 10.1253 5.84795 8.44185C5.63176 8.28006 5.42321 8.10829 5.223 7.9271ZM5.223 21.096L6.6817 22.7084C6.8267 22.5769 6.98378 22.4479 7.15295 22.3212C8.9959 20.9408 11.9379 20.0882 15.1497 20.0882C17.8916 20.0882 20.4465 20.7074 22.2996 21.7673C22.7472 22.0235 23.1431 22.299 23.4872 22.5938L24.8995 20.9394C24.4263 20.541 23.9176 20.1867 23.3799 19.8809C21.1817 18.6223 18.2556 17.9147 15.1497 17.9147C11.4928 17.9147 8.09545 18.8978 5.84795 20.5812C5.63176 20.743 5.42321 20.9148 5.223 21.096ZM2.5376 15.5874V13.4124H26.4626V15.5874H2.5376Z" fill="#DA3435"/>
</svg>
