<svg width="39" height="39" viewBox="0 0 39 39" fill="none" xmlns="http://www.w3.org/2000/svg">
<path d="M21.125 4.875C14.9988 4.875 10.0588 9.66875 9.75003 15.6975L6.63003 19.8087C6.24003 20.3125 6.63003 21.125 7.31253 21.125H9.75003V26C9.75003 27.8038 11.1963 29.25 13 29.25H14.625V34.125H26V26.5037C29.8513 24.6837 32.5 20.8 32.5 16.25C32.5 9.9775 27.43 4.875 21.125 4.875ZM22.75 22.75H19.5V21.125H22.75V22.75ZM25.35 15.4375C24.9172 16.1682 24.3011 16.7732 23.5625 17.1925V19.5H18.6875V17.1925C16.3638 15.8437 15.5513 12.87 16.9 10.5625C18.2488 8.255 21.2388 7.41 23.5625 8.7425C25.8863 10.075 26.6988 13.0812 25.35 15.4375Z" fill="#DA3435"/>
</svg>
