<svg width="35" height="35" viewBox="0 0 35 35" fill="none" xmlns="http://www.w3.org/2000/svg">
<path d="M17.4999 18.9584V22.6042M17.4999 22.6042L21.1458 24.7917M17.4999 22.6042L13.8541 24.7917M14.4243 11.0192C13.6222 11.4801 11.5193 12.4192 12.7997 13.5976C13.4268 14.1722 14.1224 14.5834 14.9989 14.5834H20.001C20.876 14.5834 21.5745 14.1722 22.2001 13.5976C23.482 12.4207 21.3776 11.4801 20.5756 11.0192C19.6375 10.4881 18.5779 10.2089 17.4999 10.2089C16.4219 10.2089 15.3623 10.4881 14.4243 11.0192ZM19.6874 5.10425C19.6874 5.68441 19.457 6.24081 19.0467 6.65104C18.6365 7.06128 18.0801 7.29175 17.4999 7.29175C16.9198 7.29175 16.3634 7.06128 15.9531 6.65104C15.5429 6.24081 15.3124 5.68441 15.3124 5.10425C15.3124 4.52409 15.5429 3.96769 15.9531 3.55745C16.3634 3.14722 16.9198 2.91675 17.4999 2.91675C18.0801 2.91675 18.6365 3.14722 19.0467 3.55745C19.457 3.96769 19.6874 4.52409 19.6874 5.10425ZM23.9035 28.5193C23.1014 28.9801 20.9985 29.9192 22.2789 31.0976C22.906 31.6722 23.6016 32.0834 24.4781 32.0834H29.4801C30.3551 32.0834 31.0537 31.6722 31.6793 31.0976C32.9612 29.9192 30.8568 28.9786 30.0547 28.5193C29.1167 27.9881 28.0571 27.7089 26.9791 27.7089C25.9011 27.7089 24.8415 27.9881 23.9035 28.5193ZM29.1666 22.6042C29.1666 23.1844 28.9361 23.7408 28.5259 24.151C28.1157 24.5613 27.5593 24.7917 26.9791 24.7917C26.3989 24.7917 25.8425 24.5613 25.4323 24.151C25.0221 23.7408 24.7916 23.1844 24.7916 22.6042C24.7916 22.0241 25.0221 21.4677 25.4323 21.0575C25.8425 20.6472 26.3989 20.4168 26.9791 20.4168C27.5593 20.4168 28.1157 20.6472 28.5259 21.0575C28.9361 21.4677 29.1666 22.0241 29.1666 22.6042ZM4.94513 28.5193C4.14305 28.9801 2.04013 29.9192 3.32055 31.0976C3.94763 31.6722 4.64326 32.0834 5.51972 32.0834H10.5218C11.3968 32.0834 12.0953 31.6722 12.721 31.0976C14.0014 29.9192 11.8985 28.9786 11.0964 28.5193C10.1584 27.9881 9.09874 27.7089 8.02076 27.7089C6.94277 27.7089 5.88316 27.9881 4.94513 28.5193ZM10.2083 22.6042C10.2083 22.8915 10.1517 23.176 10.0417 23.4414C9.93181 23.7068 9.77068 23.9479 9.56755 24.151C9.36443 24.3542 9.12328 24.5153 8.85788 24.6252C8.59248 24.7352 8.30802 24.7917 8.02076 24.7917C7.73349 24.7917 7.44904 24.7352 7.18364 24.6252C6.91824 24.5153 6.67709 24.3542 6.47396 24.151C6.27083 23.9479 6.1097 23.7068 5.99977 23.4414C5.88984 23.176 5.83326 22.8915 5.83326 22.6042C5.83326 22.0241 6.06373 21.4677 6.47396 21.0575C6.8842 20.6472 7.4406 20.4168 8.02076 20.4168C8.60092 20.4168 9.15732 20.6472 9.56755 21.0575C9.97779 21.4677 10.2083 22.0241 10.2083 22.6042Z" stroke="#DA3435" stroke-width="2.1875" stroke-linecap="round" stroke-linejoin="round"/>
</svg>
