<svg width="29" height="29" viewBox="0 0 29 29" fill="none" xmlns="http://www.w3.org/2000/svg">
<path d="M1.20825 5.15958L2.75492 3.625L24.1666 25.0367L22.632 26.5833L18.3424 22.2817L16.252 24.2029L14.4999 25.7979L12.7478 24.2029C6.52492 18.56 2.41659 14.8263 2.41659 10.2708C2.41659 9.12292 2.6945 8.05958 3.17784 7.12917L1.20825 5.15958ZM9.06242 3.625C11.1649 3.625 13.1828 4.60375 14.4999 6.13833C15.817 4.60375 17.8349 3.625 19.9374 3.625C23.6591 3.625 26.5833 6.53708 26.5833 10.2708C26.5833 13.3763 24.6741 16.095 21.4962 19.2971L6.36784 4.16875C7.1895 3.81833 8.09575 3.625 9.06242 3.625Z" fill="#DA3435"/>
</svg>
