<svg width="33" height="33" viewBox="0 0 33 33" fill="none" xmlns="http://www.w3.org/2000/svg">
<path d="M17.472 3.15283C17.2141 2.89505 16.8644 2.75024 16.4998 2.75024C16.1352 2.75024 15.7856 2.89505 15.5277 3.15283L10.0277 8.65283C9.81925 8.86133 9.68332 9.13133 9.63999 9.42297C9.59666 9.71462 9.64824 10.0125 9.78709 10.2726C10.1267 10.9092 10.6575 11.3382 11.1758 11.6297L7.27772 15.5278C7.01995 15.7857 6.87514 16.1353 6.87514 16.5C6.87514 16.8646 7.01995 17.2142 7.27772 17.4721C7.93497 18.1293 8.76547 18.5308 9.52447 18.7811L5.90272 22.4028C5.7367 22.569 5.61603 22.775 5.55221 23.001C5.48839 23.2271 5.48355 23.4657 5.53815 23.6942C5.59275 23.9227 5.70497 24.1333 5.86411 24.3061C6.02325 24.4789 6.224 24.608 6.44722 24.6812C7.39597 24.9933 8.37634 25.2147 9.35534 25.41C10.4278 25.6258 11.7561 25.839 13.2672 25.9764L12.445 28.4405C12.3761 28.6472 12.3574 28.8673 12.3903 29.0826C12.4232 29.298 12.5068 29.5025 12.6342 29.6792C12.7617 29.8559 12.9293 29.9998 13.1232 30.099C13.3172 30.1983 13.532 30.25 13.7498 30.25H19.2498C19.4677 30.25 19.6825 30.1983 19.8764 30.099C20.0704 29.9998 20.238 29.8559 20.3654 29.6792C20.4929 29.5025 20.5765 29.298 20.6094 29.0826C20.6423 28.8673 20.6236 28.6472 20.5547 28.4405L19.7325 25.9764C21.245 25.839 22.5732 25.6258 23.6443 25.4113C24.6233 25.2147 25.6106 24.9933 26.5593 24.6798C26.7818 24.6057 26.9816 24.476 27.1397 24.303C27.2979 24.13 27.4092 23.9194 27.4631 23.6912C27.5169 23.4631 27.5116 23.2249 27.4475 22.9994C27.3834 22.7739 27.2628 22.5686 27.097 22.4028L23.4752 18.7811C24.2342 18.5322 25.0647 18.1293 25.722 17.4721C25.9797 17.2142 26.1246 16.8646 26.1246 16.5C26.1246 16.1353 25.9797 15.7857 25.722 15.5278L21.8238 11.6297C22.3422 11.3382 22.873 10.9092 23.2126 10.2726C23.3515 10.0125 23.403 9.71462 23.3597 9.42297C23.3164 9.13133 23.1804 8.86133 22.972 8.65283L17.472 3.15283Z" fill="#DA3435"/>
</svg>
