<svg width="29" height="29" viewBox="0 0 29 29" fill="none" xmlns="http://www.w3.org/2000/svg">
<path fill-rule="evenodd" clip-rule="evenodd" d="M24.1666 20.5417C24.8554 20.5417 25.4475 20.7834 25.9187 21.2667C26.39 21.7501 26.6316 22.318 26.6196 22.9584L16.9166 26.5834L8.4583 24.1667V13.2917H10.8145L19.5991 16.5422C20.2275 16.7959 20.5416 17.243 20.5416 17.8955C20.5416 18.2701 20.4087 18.6084 20.1308 18.8863C19.8529 19.1642 19.5145 19.3334 19.0916 19.3334H15.7083L13.5937 18.5238L13.195 19.6597L15.7083 20.5417H24.1666ZM1.18896 13.2917H6.04163V26.5834H1.18896V13.2917Z" fill="#DA3435"/>
<path d="M19.3333 14.5001C22.6683 14.5001 25.375 11.7934 25.375 8.45841C25.375 5.12341 22.6683 2.41675 19.3333 2.41675C15.9983 2.41675 13.2916 5.12341 13.2916 8.45841C13.2916 11.7934 15.9983 14.5001 19.3333 14.5001Z" fill="#FF6063" fill-opacity="0.8"/>
</svg>
