<svg width="29" height="29" viewBox="0 0 29 29" fill="none" xmlns="http://www.w3.org/2000/svg">
<path d="M19.5751 4.22925C18.3667 3.02091 16.7959 2.41675 15.3459 2.41675C13.8959 2.41675 12.2042 3.02091 11.1167 4.22925L4.1084 10.9959C1.69173 13.4126 1.69173 17.1584 4.1084 19.5751C6.52507 21.9917 10.2709 21.9917 12.6876 19.5751L19.5751 12.6876C21.8709 10.3917 21.8709 6.52508 19.5751 4.22925ZM17.8834 10.9959L14.5001 14.3792L10.1501 10.1501L4.8334 15.4667C4.8334 14.5001 5.07507 13.4126 5.9209 12.6876L12.8084 5.80008C13.4126 5.19591 14.3792 4.83341 15.2251 4.83341C16.0709 4.83341 17.0376 5.19591 17.7626 5.80008C19.2126 7.37091 19.2126 9.54592 17.8834 10.9959ZM23.6834 8.57925C23.6834 9.54591 23.4417 10.3917 23.2001 11.3584C24.4084 12.8084 24.4084 14.9834 23.0792 16.3126L19.6959 19.6959L17.8834 17.8834L14.5001 21.2667C12.9292 22.8376 10.7542 23.6834 8.70007 23.6834C8.94173 24.0459 9.1834 24.4084 9.5459 24.7709C11.9626 27.1876 15.7084 27.1876 18.1251 24.7709L25.0126 17.8834C27.4292 15.4667 27.4292 11.7209 25.0126 9.30425C24.4084 9.06258 24.0459 8.82091 23.6834 8.57925Z" fill="#DA3435"/>
</svg>
