<svg width="33" height="33" viewBox="0 0 33 33" fill="none" xmlns="http://www.w3.org/2000/svg">
<g clip-path="url(#clip0_101_56)">
<mask id="mask0_101_56" style="mask-type:luminance" maskUnits="userSpaceOnUse" x="0" y="0" width="33" height="33">
<path d="M0 0H33V33H0V0Z" fill="white"/>
</mask>
<g mask="url(#mask0_101_56)">
<path d="M23.8631 21.6582H19.4494C18.9544 21.6582 18.5625 21.2663 18.5625 20.7713V16.3576C18.5625 15.8729 18.9544 15.4707 19.4494 15.4707H23.8631C24.3478 15.4707 24.75 15.8626 24.75 16.3576V20.7713C24.75 21.2663 24.3581 21.6582 23.8631 21.6582Z" fill="#DA3435"/>
<path d="M18.8512 0.951664L18.8553 0.956821L32.0089 13.9145L32.012 13.9176C32.3252 14.2224 32.574 14.587 32.7439 14.9897C32.9137 15.3925 33.0011 15.8252 33.0008 16.2623C33.0005 16.6993 32.9126 17.1319 32.7422 17.5344C32.5718 17.9369 32.3225 18.3012 32.0089 18.6056C31.4443 19.163 30.6978 19.4984 29.9062 19.5503V25.8935C30.7875 26.1044 31.5722 26.6061 32.1335 27.3176C32.6948 28.0292 33 28.909 32.9999 29.8153V31.9706H-9.52219e-05V29.8153C-0.00151309 28.9086 0.303197 28.0279 0.864686 27.316C1.42617 26.604 2.21156 26.1024 3.09365 25.8924V19.5915C2.30216 19.5369 1.55616 19.2015 0.989905 18.6459C0.676607 18.3402 0.427591 17.975 0.257507 17.5718C0.0874225 17.1685 -0.000295792 16.7353 -0.000487965 16.2976C-0.000680137 15.8599 0.0866577 15.4267 0.256388 15.0232C0.426118 14.6198 0.674813 14.2544 0.987842 13.9485L0.990936 13.9464L4.1249 10.8609V3.63188C4.1249 2.12316 5.37065 1.03107 6.74737 1.03107H9.76275C10.8992 1.03107 11.9201 1.77357 12.2584 2.85535L14.1817 0.958883C15.481 -0.332242 17.5642 -0.307492 18.8491 0.950633M10.3124 7.66407V3.63188C10.3102 3.48782 10.2513 3.35045 10.1483 3.24964C10.0454 3.14883 9.90682 3.09274 9.76275 3.09357H6.74737C6.67508 3.09179 6.60315 3.10437 6.53576 3.13059C6.46837 3.15681 6.40684 3.19614 6.35476 3.24631C6.30268 3.29647 6.26107 3.35648 6.23234 3.42284C6.20361 3.4892 6.18834 3.56061 6.1874 3.63291V11.7241L10.3124 7.66407ZM5.15615 16.2379V27.8456H7.21865C7.21865 27.2784 7.68272 26.8144 8.2499 26.8144V16.9041C8.2499 16.1306 8.87897 15.5016 9.6524 15.5016H15.1077C15.8812 15.5016 16.5102 16.1306 16.5102 16.9041V26.8164C17.0537 26.8433 17.4899 27.296 17.4899 27.8456H27.8437V16.1966L16.5205 5.04573L5.15615 16.2379ZM15.4687 21.1425C15.4687 21.0058 15.4143 20.8746 15.3176 20.7779C15.2209 20.6812 15.0898 20.6269 14.953 20.6269C14.8163 20.6269 14.6851 20.6812 14.5884 20.7779C14.4917 20.8746 14.4374 21.0058 14.4374 21.1425C14.4374 21.2793 14.4917 21.4104 14.5884 21.5071C14.6851 21.6038 14.8163 21.6581 14.953 21.6581C15.0898 21.6581 15.2209 21.6038 15.3176 21.5071C15.4143 21.4104 15.4687 21.2793 15.4687 21.1425Z" fill="#DA3435"/>
<path d="M10.3124 7.66407V3.63188C10.3102 3.48782 10.2513 3.35045 10.1483 3.24964C10.0454 3.14883 9.90682 3.09274 9.76275 3.09357H6.74737C6.67508 3.09179 6.60315 3.10437 6.53576 3.13059C6.46837 3.15681 6.40684 3.19614 6.35476 3.24631C6.30268 3.29647 6.26107 3.35648 6.23234 3.42284C6.20361 3.4892 6.18834 3.56061 6.1874 3.63291V11.7241L10.3124 7.66407Z" fill="#FFC6C7"/>
<path fill-rule="evenodd" clip-rule="evenodd" d="M5.15615 27.8456V16.2379L16.5205 5.04573L27.8437 16.1966V27.8456H17.4899C17.4899 27.296 17.0537 26.8433 16.5102 26.8164V16.9041C16.5102 16.1306 15.8812 15.5016 15.1077 15.5016H9.6524C8.87897 15.5016 8.2499 16.1306 8.2499 16.9041V26.8144C7.68272 26.8144 7.21865 27.2784 7.21865 27.8456H5.15615ZM19.5 20.6269V15.5016H24.5V20.6269H19.5Z" fill="#FFC6C7"/>
</g>
</g>
<defs>
<clipPath id="clip0_101_56">
<rect width="33" height="33" fill="white"/>
</clipPath>
</defs>
</svg>
