<svg width="33" height="33" viewBox="0 0 33 33" fill="none" xmlns="http://www.w3.org/2000/svg">
<g clip-path="url(#clip0_115_234)">
<path d="M22.8159 23.8334H30.0209C29.4159 15.8492 25.9784 10.8901 21.5692 7.95675L23.5767 3.57508C23.6374 3.43604 23.6626 3.28412 23.6501 3.13293C23.6376 2.98174 23.5878 2.83602 23.5052 2.70882C23.4225 2.58163 23.3095 2.47694 23.1764 2.40415C23.0433 2.33136 22.8942 2.29274 22.7425 2.29175H10.175C10.0233 2.29274 9.87426 2.33136 9.74116 2.40415C9.60806 2.47694 9.49511 2.58163 9.41244 2.70882C9.32976 2.83602 9.27994 2.98174 9.26745 3.13293C9.25496 3.28412 9.28019 3.43604 9.34088 3.57508L10.4409 5.95841H19.7175L18.8925 7.79175H17.1967C17.7141 9.18457 18.0948 10.6244 18.3334 12.0909C18.4864 13.0008 18.5844 13.9192 18.6267 14.8409L17.1784 15.8584C17.1825 14.6727 17.0843 13.4889 16.885 12.3201C16.6321 10.7644 16.1951 9.24429 15.5834 7.79175H14.6667C13.8201 8.86014 13.0599 9.99428 12.3934 11.1834C11.8557 12.2032 11.399 13.2637 11.0275 14.3551L9.77171 13.5209C10.1391 12.4663 10.5897 11.4425 11.1192 10.4592C11.6554 9.53777 12.243 8.6472 12.8792 7.79175H11.275L11.3484 7.94758C6.49004 11.1834 2.79588 16.8667 2.79588 26.3542C2.78349 26.5537 2.81074 26.7536 2.87606 26.9424C2.94138 27.1313 3.04347 27.3053 3.17644 27.4545C3.3094 27.6036 3.4706 27.725 3.65073 27.8114C3.83086 27.8979 4.02634 27.9479 4.22588 27.9584H11.5592C11.2443 27.6307 11.0269 27.2218 10.9313 26.7774C10.8357 26.3331 10.8657 25.871 11.018 25.4427C11.1703 25.0145 11.4387 24.6372 11.7934 24.3529C12.148 24.0687 12.5748 23.8888 13.0259 23.8334C12.8063 23.4611 12.6893 23.0373 12.6867 22.6051C12.6867 21.9487 12.9475 21.3191 13.4116 20.855C13.8758 20.3908 14.5053 20.1301 15.1617 20.1301H20.6617C21.3181 20.1301 21.9476 20.3908 22.4118 20.855C22.876 21.3191 23.1367 21.9487 23.1367 22.6051C23.1414 23.0358 23.0306 23.46 22.8159 23.8334Z" fill="#DA3435"/>
<path d="M19.8001 26.1249C19.8001 25.8818 19.7036 25.6486 19.5316 25.4767C19.3597 25.3048 19.1266 25.2083 18.8835 25.2083H13.3835C13.1403 25.2083 12.9072 25.3048 12.7353 25.4767C12.5634 25.6486 12.4668 25.8818 12.4668 26.1249C12.4668 26.368 12.5634 26.6012 12.7353 26.7731C12.9072 26.945 13.1403 27.0416 13.3835 27.0416H18.8835C19.1266 27.0416 19.3597 26.945 19.5316 26.7731C19.7036 26.6012 19.8001 26.368 19.8001 26.1249Z" fill="#FF6063" fill-opacity="0.8"/>
<path d="M20.6618 21.5417H15.1618C14.9187 21.5417 14.6855 21.6383 14.5136 21.8102C14.3417 21.9821 14.2451 22.2153 14.2451 22.4584C14.2451 22.7015 14.3417 22.9347 14.5136 23.1066C14.6855 23.2785 14.9187 23.3751 15.1618 23.3751H20.6618C20.9049 23.3751 21.1381 23.2785 21.31 23.1066C21.4819 22.9347 21.5785 22.7015 21.5785 22.4584C21.5785 22.2153 21.4819 21.9821 21.31 21.8102C21.1381 21.6383 20.9049 21.5417 20.6618 21.5417Z" fill="#FF6063" fill-opacity="0.8"/>
<path d="M20.1667 28.875H14.6667C14.4236 28.875 14.1904 28.9716 14.0185 29.1435C13.8466 29.3154 13.75 29.5486 13.75 29.7917C13.75 30.0348 13.8466 30.2679 14.0185 30.4398C14.1904 30.6118 14.4236 30.7083 14.6667 30.7083H20.1667C20.4098 30.7083 20.6429 30.6118 20.8148 30.4398C20.9868 30.2679 21.0833 30.0348 21.0833 29.7917C21.0833 29.5486 20.9868 29.3154 20.8148 29.1435C20.6429 28.9716 20.4098 28.875 20.1667 28.875Z" fill="#FF6063" fill-opacity="0.8"/>
<path d="M29.9752 28.875H23.5585C23.3154 28.875 23.0822 28.9716 22.9103 29.1435C22.7384 29.3154 22.6418 29.5486 22.6418 29.7917C22.6418 30.0348 22.7384 30.2679 22.9103 30.4398C23.0822 30.6118 23.3154 30.7083 23.5585 30.7083H29.9752C30.2183 30.7083 30.4515 30.6118 30.6234 30.4398C30.7953 30.2679 30.8918 30.0348 30.8918 29.7917C30.8918 29.5486 30.7953 29.3154 30.6234 29.1435C30.4515 28.9716 30.2183 28.875 29.9752 28.875Z" fill="#FF6063" fill-opacity="0.8"/>
<path d="M30.8919 25.2083H24.4753C24.2321 25.2083 23.999 25.3048 23.8271 25.4767C23.6552 25.6486 23.5586 25.8818 23.5586 26.1249C23.5586 26.368 23.6552 26.6012 23.8271 26.7731C23.999 26.945 24.2321 27.0416 24.4753 27.0416H30.8919C31.135 27.0416 31.3682 26.945 31.5401 26.7731C31.712 26.6012 31.8086 26.368 31.8086 26.1249C31.8086 25.8818 31.712 25.6486 31.5401 25.4767C31.3682 25.3048 31.135 25.2083 30.8919 25.2083Z" fill="#FF6063" fill-opacity="0.8"/>
</g>
<defs>
<clipPath id="clip0_115_234">
<rect width="33" height="33" fill="white"/>
</clipPath>
</defs>
</svg>
