<svg width="33" height="33" viewBox="0 0 33 33" fill="none" xmlns="http://www.w3.org/2000/svg">
<g clip-path="url(#clip0_115_225)">
<path d="M31.4596 24.0904C32.571 24.0904 33 23.6526 33 22.8647C33 20.4398 30.5315 17.5252 26.5839 17.5252C24.9468 17.5252 23.6952 18.0067 22.724 18.6543C24.6056 20.1075 25.7176 22.7687 24.8072 24.0904H31.4596Z" fill="#FF6063" fill-opacity="0.8"/>
<path d="M26.575 16.1864C28.2121 16.1864 29.6299 14.7161 29.6299 12.8339C29.6299 10.9694 28.2032 9.54275 26.575 9.54275C24.9557 9.54275 23.5284 10.9346 23.5284 12.8162C23.5284 14.7161 24.9468 16.1864 26.575 16.1864Z" fill="#FF6063" fill-opacity="0.8"/>
<path d="M16.5 15.9848C18.3822 15.9848 20.0009 14.3042 20.0009 12.1156C20.0009 9.95348 18.3733 8.35181 16.5 8.35181C14.6267 8.35181 12.9985 9.98884 12.9985 12.1333C12.9985 14.3042 14.6178 15.9848 16.5 15.9848Z" fill="#DA3435"/>
<path d="M10.9937 24.0904H21.9969C23.3711 24.0904 23.8614 23.6962 23.8614 22.926C23.8614 20.6679 21.034 17.5517 16.4912 17.5517C11.9572 17.5517 9.1298 20.6679 9.1298 22.926C9.1298 23.6962 9.6195 24.0904 10.9937 24.0904Z" fill="#DA3435"/>
<path d="M1.54039 24.0904H8.19343C7.28298 22.7687 8.39437 20.1075 10.2766 18.6543C9.30423 18.0067 8.05318 17.5252 6.41673 17.5252C2.46793 17.5252 0 20.4398 0 22.8647C0 23.6526 0.437839 24.0904 1.54039 24.0904Z" fill="#FF6063" fill-opacity="0.8"/>
<path d="M6.42498 16.1858C8.05318 16.1858 9.47159 14.7155 9.47159 12.8162C9.47159 10.9341 8.04434 9.54216 6.42498 9.54216C4.79679 9.54216 3.36129 10.9688 3.37013 12.8333C3.37013 14.7155 4.78795 16.1858 6.42498 16.1858Z" fill="#FF6063" fill-opacity="0.8"/>
</g>
<defs>
<clipPath id="clip0_115_225">
<rect width="33" height="33" fill="white"/>
</clipPath>
</defs>
</svg>
