<svg width="34" height="34" viewBox="0 0 34 34" fill="none" xmlns="http://www.w3.org/2000/svg">
<path d="M14.7643 4.40912C13.346 4.13043 11.8809 4.20464 10.498 4.62521C9.11514 5.04579 7.85682 5.79984 6.83382 6.821C5.74231 7.90768 4.956 9.26248 4.5539 10.7493C4.1518 12.2361 4.14806 13.8025 4.54307 15.2912C4.93854 14.9499 5.41429 14.7147 5.92564 14.6078C6.43698 14.5008 6.96712 14.5257 7.46623 14.6799C7.96534 14.8342 8.41704 15.1128 8.77887 15.4896C9.14071 15.8664 9.40079 16.329 9.5347 16.834C9.95196 16.7737 10.3772 16.7998 10.7839 16.9108C11.1907 17.0217 11.5702 17.2151 11.8991 17.479C12.2279 17.7429 12.4989 18.0715 12.6954 18.4446C12.8918 18.8176 13.0094 19.2271 13.0409 19.6475C13.7766 19.6984 14.4691 20.0132 14.9912 20.534C15.5132 21.0549 15.8295 21.7467 15.8821 22.4822C16.4688 22.5235 17.0314 22.7326 17.5026 23.0847C17.9738 23.4368 18.3337 23.917 18.5396 24.468C18.7454 25.019 18.7885 25.6176 18.6635 26.1924C18.5386 26.7672 18.251 27.2939 17.8349 27.7097L17.3356 28.207L18.8039 29.5946C19 29.7803 19.2608 29.882 19.5308 29.878C19.8007 29.874 20.0585 29.7647 20.2489 29.5734C20.4255 29.3964 20.5325 29.1619 20.5505 28.9126C20.5684 28.6633 20.4961 28.4159 20.3467 28.2155L20.2659 28.1347L20.1661 28.02L19.9514 27.8032C19.8522 27.7045 19.7734 27.5871 19.7197 27.4578C19.6659 27.3286 19.6382 27.1899 19.6382 27.0499C19.6382 26.9099 19.6659 26.7713 19.7197 26.642C19.7734 26.5127 19.8522 26.3954 19.9514 26.2966C20.1505 26.0987 20.4198 25.9877 20.7005 25.9877C20.9812 25.9877 21.2505 26.0987 21.4496 26.2966L21.7471 26.5941C21.8108 26.6579 21.8703 26.723 21.9256 26.7896L22.0849 26.9511C22.1779 27.0456 22.2887 27.1206 22.4109 27.1718C22.5331 27.223 22.6643 27.2493 22.7968 27.2493C22.9293 27.2493 23.0605 27.223 23.1827 27.1718C23.3049 27.1206 23.4158 27.0456 23.5087 26.9511C23.6978 26.7612 23.8039 26.5041 23.8039 26.2361C23.8039 25.9681 23.6978 25.7109 23.5087 25.521L23.1899 25.2022C23.088 25.1001 23.0079 24.9783 22.9545 24.8442C22.9012 24.7102 22.8757 24.5666 22.8797 24.4224C22.8793 24.2125 22.9411 24.0071 23.0573 23.8323C23.1735 23.6575 23.3389 23.521 23.5326 23.4401C23.7262 23.3592 23.9396 23.3374 24.1456 23.3776C24.3516 23.4178 24.5411 23.5181 24.6902 23.6659L24.9303 23.9081C25.0338 24.0121 25.1568 24.0947 25.2923 24.151C25.4278 24.2073 25.573 24.2363 25.7198 24.2363C25.8665 24.2363 26.0118 24.2073 26.1472 24.151C26.2827 24.0947 26.4057 24.0121 26.5092 23.9081C26.7175 23.6973 26.8343 23.4129 26.8343 23.1166C26.8343 22.8202 26.7175 22.5358 26.5092 22.325L26.4561 22.2697L26.2627 22.0891L24.6158 20.4359C24.5169 20.3372 24.4384 20.2199 24.3848 20.0908C24.3312 19.9618 24.3037 19.8234 24.3037 19.6836C24.3037 19.5439 24.3312 19.4055 24.3848 19.2764C24.4384 19.1473 24.5169 19.0301 24.6158 18.9314C24.815 18.7328 25.0847 18.6213 25.3659 18.6213C25.6472 18.6213 25.9169 18.7328 26.1161 18.9314L27.6631 20.4826L27.7672 20.5761L27.8947 20.7036C28.2239 20.9718 28.641 21.1081 29.0651 21.0862C29.4892 21.0642 29.89 20.8854 30.1897 20.5846C30.5119 20.2609 30.6928 19.8227 30.6928 19.3659C30.6928 18.9092 30.5119 18.471 30.1897 18.1472L28.6214 16.5726L28.5598 16.5152L22.2018 10.051H20.5741L16.9361 12.8177C15.1766 14.1565 12.6648 13.8165 11.3239 12.057C11.0044 11.6392 10.7705 11.1625 10.6356 10.6541C10.5008 10.1457 10.4676 9.61567 10.5381 9.09444C10.6086 8.57321 10.7813 8.07102 11.0463 7.61671C11.3114 7.16239 11.6635 6.76488 12.0826 6.447L14.7643 4.40912Z" fill="#DA3435"/>
<path d="M22.6481 7.926C22.789 7.9263 22.9285 7.95464 23.0583 8.00936C23.1882 8.06408 23.3059 8.1441 23.4046 8.24475L29.1336 14.0672C29.5417 13.2601 29.7823 12.3786 29.8406 11.476C29.899 10.5734 29.774 9.66832 29.4732 8.81531C29.1724 7.9623 28.702 7.17903 28.0903 6.5127C27.4787 5.84638 26.7384 5.3108 25.9142 4.93825L25.8398 4.9C25.1486 4.51925 24.3722 4.31967 23.5831 4.31987H18.3768L18.2727 4.40912L13.3703 8.1385C13.1733 8.28719 13.0078 8.47341 12.8831 8.6864C12.7584 8.8994 12.6772 9.13497 12.644 9.37953C12.6108 9.62408 12.6263 9.87279 12.6897 10.1113C12.7531 10.3498 12.8631 10.5734 13.0133 10.7692C13.3158 11.1661 13.7635 11.4266 14.258 11.4935C14.7525 11.5604 15.2533 11.4283 15.6504 11.1262L19.5732 8.14275C19.7577 8.00242 19.9831 7.9263 20.2149 7.926H22.6481Z" fill="#FF6063" fill-opacity="0.8"/>
<path d="M7.25245 18.2556L5.85845 19.6475C5.68077 19.8248 5.44004 19.9243 5.18907 19.9243C4.9381 19.9243 4.69737 19.8248 4.5197 19.6475C4.34642 19.4753 4.24688 19.2424 4.24212 18.9982C4.23736 18.7539 4.32776 18.5173 4.4942 18.3385L4.52182 18.3109L5.91582 16.919L5.94132 16.8956C6.12101 16.73 6.3577 16.6402 6.60201 16.645C6.84631 16.6497 7.07933 16.7487 7.25245 16.9211C7.34034 17.0086 7.41009 17.1126 7.45768 17.2271C7.50527 17.3416 7.52977 17.4644 7.52977 17.5884C7.52977 17.7124 7.50527 17.8352 7.45768 17.9497C7.41009 18.0642 7.34034 18.1681 7.25245 18.2556Z" fill="#FF6063" fill-opacity="0.8"/>
<path d="M10.3911 20.6207L8.99707 22.0105C8.8194 22.1878 8.57867 22.2873 8.3277 22.2873C8.07672 22.2873 7.83599 22.1878 7.65832 22.0105C7.48567 21.8384 7.38653 21.606 7.38177 21.3622C7.37702 21.1185 7.46701 20.8824 7.63282 20.7036L7.66045 20.676L9.05445 19.2841L9.07995 19.2586C9.25963 19.093 9.49633 19.0032 9.74063 19.008C9.98493 19.0128 10.218 19.1117 10.3911 19.2841C10.4793 19.3716 10.5493 19.4757 10.5971 19.5904C10.6449 19.7051 10.6695 19.8282 10.6695 19.9524C10.6695 20.0767 10.6449 20.1997 10.5971 20.3144C10.5493 20.4291 10.4793 20.5332 10.3911 20.6207Z" fill="#FF6063" fill-opacity="0.8"/>
<path d="M13.4872 23.3726L12.0911 24.7645C11.9134 24.9418 11.6727 25.0413 11.4217 25.0413C11.1707 25.0413 10.93 24.9418 10.7523 24.7645C10.579 24.5923 10.4795 24.3594 10.4747 24.1152C10.47 23.8709 10.5604 23.6343 10.7268 23.4555L10.7544 23.4279L12.1484 22.036L12.1739 22.0126C12.3537 21.8466 12.5906 21.7564 12.8353 21.7607C13.0799 21.7651 13.3134 21.8637 13.4872 22.036C13.5754 22.1235 13.6454 22.2276 13.6932 22.3423C13.741 22.457 13.7656 22.58 13.7656 22.7043C13.7656 22.8286 13.741 22.9516 13.6932 23.0663C13.6454 23.181 13.5754 23.2851 13.4872 23.3726Z" fill="#FF6063" fill-opacity="0.8"/>
<path d="M13.5956 27.5992C13.7732 27.7765 14.014 27.876 14.2649 27.876C14.5159 27.876 14.7566 27.7765 14.9343 27.5992L16.3304 26.2074C16.4299 26.1085 16.506 25.9886 16.5532 25.8566C16.6004 25.7245 16.6175 25.5836 16.6032 25.4441C16.589 25.3046 16.5437 25.17 16.4708 25.0502C16.3979 24.9304 16.2991 24.8285 16.1817 24.7517C15.9996 24.6321 15.7819 24.5788 15.5652 24.6009C15.3484 24.6229 15.1459 24.719 14.9917 24.8729L13.5956 26.2647C13.5077 26.3522 13.4379 26.4562 13.3903 26.5707C13.3427 26.6852 13.3182 26.808 13.3182 26.932C13.3182 27.056 13.3427 27.1788 13.3903 27.2933C13.4379 27.4078 13.5077 27.5118 13.5956 27.5992Z" fill="#FF6063" fill-opacity="0.8"/>
</svg>
