<svg width="38" height="38" viewBox="0 0 38 38" fill="none" xmlns="http://www.w3.org/2000/svg">
<path d="M27.8319 7.01742L24.6652 5.35491C21.8849 3.89666 20.4947 3.16675 19.0001 3.16675C17.5054 3.16675 16.1152 3.89508 13.3349 5.35491L12.8267 5.6225L26.9547 13.6959L33.3134 10.5134C32.2906 9.35441 30.6407 8.48833 27.8319 7.01425M34.4344 12.6097L28.1042 15.7764V20.5834C28.1042 20.8984 27.9791 21.2004 27.7564 21.4231C27.5337 21.6458 27.2317 21.7709 26.9167 21.7709C26.6018 21.7709 26.2998 21.6458 26.0771 21.4231C25.8544 21.2004 25.7292 20.8984 25.7292 20.5834V16.9639L20.1876 19.7347V34.6814C21.3244 34.398 22.618 33.7203 24.6652 32.6452L27.8319 30.9827C31.2377 29.1952 32.9413 28.3022 33.8882 26.6951C34.8334 25.0896 34.8334 23.0898 34.8334 19.0951V18.9098C34.8334 15.9126 34.8334 14.0379 34.4344 12.6097ZM17.8126 34.6814V19.7347L3.56575 12.6097C3.16675 14.0379 3.16675 15.9126 3.16675 18.9067V19.0919C3.16675 23.0898 3.16675 25.0896 4.112 26.6951C5.05883 28.3022 6.7625 29.1967 10.1682 30.9843L13.3349 32.6452C15.3822 33.7203 16.6757 34.398 17.8126 34.6814ZM4.68675 10.515L19.0001 17.6717L24.4008 14.9721L10.3313 6.93191L10.1682 7.01742C7.361 8.48991 5.70958 9.356 4.68675 10.5166" fill="#DA3435"/>
</svg>
