<svg width="31" height="31" viewBox="0 0 31 31" fill="none" xmlns="http://www.w3.org/2000/svg">
<g clip-path="url(#clip0_115_244)">
<path d="M31.0001 15.5001C31.0001 14.4986 30.1361 12.6689 28.2386 11.0196C27.1555 10.0879 25.9212 9.34828 24.5888 8.83264C24.5445 8.81607 24.4956 8.81656 24.4517 8.83401C24.4077 8.85147 24.3718 8.88464 24.3509 8.9271C24.3418 8.94465 24.3327 8.96161 24.3224 8.97917L23.7418 9.94186C22.7626 11.6327 22.2473 13.5522 22.248 15.5061C22.2488 17.46 22.7655 19.3791 23.746 21.0692L23.7599 21.0928L24.2891 22.0615C24.3172 22.113 24.363 22.1525 24.418 22.1728C24.473 22.193 24.5335 22.1927 24.5882 22.1717C29.0402 20.4298 31.0001 17.0434 31.0001 15.5001ZM25.3136 15.4916C25.1129 15.5178 24.9091 15.4806 24.7307 15.3851C24.5523 15.2896 24.4083 15.1406 24.3189 14.9591C24.2295 14.7776 24.1992 14.5726 24.2322 14.373C24.2652 14.1734 24.3599 13.9891 24.5029 13.846C24.646 13.7029 24.8303 13.6082 25.0299 13.5752C25.2296 13.5422 25.4345 13.5726 25.616 13.662C25.7976 13.7514 25.9465 13.8954 26.042 14.0738C26.1375 14.2522 26.1748 14.456 26.1485 14.6566C26.1208 14.8684 26.024 15.065 25.873 15.216C25.722 15.367 25.5253 15.4639 25.3136 15.4916Z" fill="#FF6063" fill-opacity="0.8"/>
<path d="M20.3107 15.5C20.3098 13.203 20.9173 10.9469 22.0714 8.9609L22.0786 8.94819L22.3584 8.48379C22.3786 8.45071 22.3905 8.41325 22.3933 8.37457C22.396 8.3359 22.3894 8.29713 22.374 8.26153C22.3587 8.22593 22.335 8.19454 22.305 8.17C22.275 8.14546 22.2395 8.12849 22.2015 8.12051C21.4177 7.95651 20.6235 7.84747 19.8245 7.79416C19.7303 7.78808 19.6399 7.75439 19.5647 7.69729C18.3974 6.80967 16.0833 5.25725 13.7244 4.85825C13.5632 4.83154 13.3978 4.84603 13.2437 4.90039C13.0897 4.95474 12.9518 5.04718 12.8431 5.16912C12.7343 5.29105 12.6581 5.43852 12.6217 5.59779C12.5852 5.75707 12.5896 5.92297 12.6345 6.08008L13.2775 8.33061C13.2943 8.38893 13.2885 8.4514 13.2613 8.50567C13.2342 8.55994 13.1877 8.60204 13.131 8.62366C10.8999 9.45254 8.9781 10.9698 7.57644 12.1263C7.49065 12.1965 7.38338 12.2352 7.27253 12.2358C7.16168 12.2365 7.05395 12.1991 6.96734 12.1299C6.77682 11.9786 6.58125 11.8294 6.38064 11.6825C3.98056 9.92965 1.16089 9.69897 1.04222 9.69049C0.891548 9.67911 0.740301 9.70313 0.600569 9.76063C0.460837 9.81814 0.336493 9.90753 0.237476 10.0217C0.138458 10.1358 0.0675133 10.2715 0.0303102 10.418C-0.00689285 10.5644 -0.00932218 10.7175 0.0232164 10.8651C0.0486461 10.982 0.579642 13.3288 1.94255 15.2009C2.00391 15.2848 2.03697 15.386 2.03697 15.49C2.03697 15.5939 2.00391 15.6952 1.94255 15.7791C0.579642 17.6506 0.0486461 19.998 0.0232164 20.1148C-0.00932218 20.2624 -0.00689285 20.4155 0.0303102 20.562C0.0675133 20.7084 0.138458 20.8441 0.237476 20.9583C0.336493 21.0724 0.460837 21.1618 0.600569 21.2193C0.740301 21.2768 0.891548 21.3008 1.04222 21.2895C1.16331 21.281 3.98056 21.0473 6.37761 19.2987C6.57338 19.155 6.7645 19.0093 6.95099 18.8615C7.03767 18.7924 7.14544 18.7552 7.25629 18.7559C7.36714 18.7567 7.47438 18.7955 7.56009 18.8658C8.9678 20.0277 10.8932 21.5468 13.1304 22.3775C13.187 22.3991 13.2334 22.4411 13.2605 22.4952C13.2876 22.5494 13.2935 22.6117 13.2769 22.6699L12.6315 24.9211C12.5866 25.0782 12.5822 25.2441 12.6187 25.4033C12.6551 25.5626 12.7313 25.7101 12.84 25.832C12.9488 25.954 13.0866 26.0464 13.2407 26.1008C13.3948 26.1551 13.5601 26.1696 13.7213 26.1429C14.7603 25.9673 16.8625 25.3643 19.5369 23.3075C19.6133 23.2492 19.705 23.2145 19.8009 23.2076C20.5988 23.1554 21.3923 23.0482 22.1755 22.8867C22.2125 22.8789 22.2471 22.8626 22.2767 22.8391C22.3062 22.8155 22.3298 22.7854 22.3457 22.7511C22.3615 22.7168 22.3691 22.6793 22.3678 22.6415C22.3665 22.6038 22.3565 22.5669 22.3384 22.5337L22.0653 22.0318C20.9146 20.0473 20.3093 17.7939 20.3107 15.5Z" fill="#DA3435"/>
</g>
<defs>
<clipPath id="clip0_115_244">
<rect width="31" height="31" fill="white"/>
</clipPath>
</defs>
</svg>
