<svg width="36" height="36" viewBox="0 0 36 36" fill="none" xmlns="http://www.w3.org/2000/svg">
<path d="M31.5 16.5H24V11.25C24 10.2554 24.3951 9.30161 25.0984 8.59835C25.8016 7.89509 26.7554 7.5 27.75 7.5C28.7446 7.5 29.6984 7.89509 30.4016 8.59835C31.1049 9.30161 31.5 10.2554 31.5 11.25V16.5Z" fill="#FF6063" fill-opacity="0.8"/>
<path fill-rule="evenodd" clip-rule="evenodd" d="M3 31.5V10.5C3 7.671 3 6.258 3.879 5.379C4.758 4.5 6.171 4.5 9 4.5H24C25.248 4.5 26.217 4.5 27.006 4.5405C25.3546 4.72363 23.8288 5.50939 22.7206 6.74736C21.6125 7.98532 20.9998 9.5885 21 11.25V16.5L20.8515 31.4505L16.5 30L12 31.5L7.5 30L3 31.5ZM6.43934 9.43934C6.15804 9.72064 6 10.1022 6 10.5C6 10.8978 6.15804 11.2794 6.43934 11.5607C6.72064 11.842 7.10218 12 7.5 12H16.5C16.8978 12 17.2794 11.842 17.5607 11.5607C17.842 11.2794 18 10.8978 18 10.5C18 10.1022 17.842 9.72064 17.5607 9.43934C17.2794 9.15804 16.8978 9 16.5 9H7.5C7.10218 9 6.72064 9.15804 6.43934 9.43934ZM6.43934 15.4393C6.15804 15.7206 6 16.1022 6 16.5C6 16.8978 6.15804 17.2794 6.43934 17.5607C6.72064 17.842 7.10218 18 7.5 18H10.5C10.8978 18 11.2794 17.842 11.5607 17.5607C11.842 17.2794 12 16.8978 12 16.5C12 16.1022 11.842 15.7206 11.5607 15.4393C11.2794 15.158 10.8978 15 10.5 15H7.5C7.10218 15 6.72064 15.158 6.43934 15.4393ZM6.43934 21.4393C6.15804 21.7206 6 22.1022 6 22.5C6 22.8978 6.15804 23.2794 6.43934 23.5607C6.72064 23.842 7.10218 24 7.5 24H13.5C13.8978 24 14.2794 23.842 14.5607 23.5607C14.842 23.2794 15 22.8978 15 22.5C15 22.1022 14.842 21.7206 14.5607 21.4393C14.2794 21.158 13.8978 21 13.5 21H7.5C7.10218 21 6.72064 21.158 6.43934 21.4393Z" fill="#DA3435"/>
</svg>
