<svg width="31" height="31" viewBox="0 0 31 31" fill="none" xmlns="http://www.w3.org/2000/svg">
<path fill-rule="evenodd" clip-rule="evenodd" d="M10.3334 5.68325L15.5001 12.9166L20.6667 5.68325L18.6001 2.58325H12.4001L10.3334 5.68325Z" fill="#DA3435"/>
<path d="M20.0209 8.78325L18.4709 10.9791C21.3126 12.1416 23.2501 14.8541 23.2501 18.0833C23.2501 20.1387 22.4336 22.1099 20.9802 23.5633C19.5268 25.0167 17.5555 25.8333 15.5001 25.8333C13.4447 25.8333 11.4734 25.0167 10.02 23.5633C8.5666 22.1099 7.75008 20.1387 7.75008 18.0833C7.75008 14.8541 9.68758 12.1416 12.5292 10.9791L10.9792 8.78325C7.49175 10.4624 5.16675 13.9499 5.16675 18.0833C5.16675 20.8238 6.25544 23.4521 8.19331 25.39C10.1312 27.3279 12.7595 28.4166 15.5001 28.4166C18.2407 28.4166 20.869 27.3279 22.8069 25.39C24.7447 23.4521 25.8334 20.8238 25.8334 18.0833C25.8334 13.9499 23.5084 10.4624 20.0209 8.78325Z" fill="#FF6063" fill-opacity="0.8"/>
</svg>
