<svg width="33" height="33" viewBox="0 0 33 33" fill="none" xmlns="http://www.w3.org/2000/svg">
<path d="M16.639 3.98743C16.7952 3.89396 16.9821 3.86627 17.1587 3.91043L21.8296 5.07505C21.9984 5.11758 22.1448 5.22255 22.2392 5.36877C22.3336 5.515 22.369 5.69159 22.3383 5.86293C25.5902 7.38505 28.0102 9.89168 28.959 12.7146C29.0079 12.8603 29.0065 13.0182 28.9551 13.1631C28.9037 13.308 28.8052 13.4315 28.6753 13.5138C28.5455 13.5961 28.3918 13.6326 28.2389 13.6173C28.0859 13.602 27.9425 13.5359 27.8315 13.4296C26.1677 11.8346 23.9897 10.4444 21.4487 9.4393L21.4143 9.5768C21.3702 9.75364 21.2576 9.9057 21.1013 9.99956C20.9451 10.0934 20.758 10.1214 20.5811 10.0773L19.9142 9.9123L18.6671 14.9146C18.8439 14.9587 18.996 15.0713 19.0899 15.2276C19.1837 15.3838 19.2117 15.5709 19.1676 15.7478L16.0078 28.4226C15.9637 28.5994 15.8511 28.7515 15.6948 28.8453C15.5386 28.9392 15.3515 28.9671 15.1746 28.923L11.8388 28.0912C11.662 28.047 11.5099 27.9344 11.4161 27.7782C11.3222 27.6219 11.2943 27.4348 11.3383 27.2579L14.4981 14.5832C14.5423 14.4063 14.6548 14.2543 14.8111 14.1604C14.9674 14.0666 15.1545 14.0386 15.3313 14.0827L16.5785 9.08043L15.9116 8.91405C15.8239 8.89219 15.7413 8.85325 15.6687 8.79945C15.5961 8.74565 15.5347 8.67806 15.4883 8.60054C15.4418 8.52301 15.411 8.43708 15.3978 8.34767C15.3845 8.25825 15.3891 8.1671 15.4111 8.07943L15.4455 7.94193C12.7312 7.63668 10.1558 7.84155 7.93797 8.46855C7.79005 8.51036 7.63238 8.50139 7.49016 8.44308C7.34793 8.38476 7.22936 8.28046 7.15336 8.14685C7.07737 8.01323 7.04835 7.858 7.07094 7.70595C7.09353 7.5539 7.16642 7.41381 7.27797 7.30805C9.43947 5.26205 12.7532 4.18405 16.3392 4.36555C16.3905 4.20795 16.4969 4.07278 16.639 3.98743Z" fill="#DA3435"/>
</svg>
