<svg width="39" height="39" viewBox="0 0 39 39" fill="none" xmlns="http://www.w3.org/2000/svg">
<g clip-path="url(#clip0_101_50)">
<path d="M33.5833 8.66675H23.8333V35.7501H35.7499V10.8334C35.7499 10.2588 35.5216 9.70768 35.1153 9.30135C34.709 8.89502 34.1579 8.66675 33.5833 8.66675ZM28.1666 27.0834H25.9999V24.9167H28.1666V27.0834ZM28.1666 21.6667H25.9999V19.5001H28.1666V21.6667ZM28.1666 16.2501H25.9999V14.0834H28.1666V16.2501ZM32.4999 27.0834H30.3333V24.9167H32.4999V27.0834ZM32.4999 21.6667H30.3333V19.5001H32.4999V21.6667ZM32.4999 16.2501H30.3333V14.0834H32.4999V16.2501Z" fill="#FF6063" fill-opacity="0.8"/>
<path d="M19.3699 3.25H6.62992C6.0208 3.25 5.43664 3.49197 5.00593 3.92268C4.57522 4.35339 4.33325 4.93755 4.33325 5.54667V35.75H9.74992V32.5H16.2499V35.75H21.6666V5.54667C21.6666 4.93755 21.4246 4.35339 20.9939 3.92268C20.5632 3.49197 19.979 3.25 19.3699 3.25ZM9.74992 27.0833H7.58325V24.9167H9.74992V27.0833ZM9.74992 21.6667H7.58325V19.5H9.74992V21.6667ZM9.74992 16.25H7.58325V14.0833H9.74992V16.25ZM9.74992 10.8333H7.58325V8.66667H9.74992V10.8333ZM14.0833 27.0833H11.9166V24.9167H14.0833V27.0833ZM14.0833 21.6667H11.9166V19.5H14.0833V21.6667ZM14.0833 16.25H11.9166V14.0833H14.0833V16.25ZM14.0833 10.8333H11.9166V8.66667H14.0833V10.8333ZM18.4166 27.0833H16.2499V24.9167H18.4166V27.0833ZM18.4166 21.6667H16.2499V19.5H18.4166V21.6667ZM18.4166 16.25H16.2499V14.0833H18.4166V16.25ZM18.4166 10.8333H16.2499V8.66667H18.4166V10.8333Z" fill="#DA3435"/>
</g>
<defs>
<clipPath id="clip0_101_50">
<rect width="39" height="39" fill="white"/>
</clipPath>
</defs>
</svg>
