<svg width="32" height="32" viewBox="0 0 32 32" fill="none" xmlns="http://www.w3.org/2000/svg">
<path d="M16 2.66675C18.2844 2.66666 20.5214 3.31864 22.4481 4.54607C24.3748 5.7735 25.9111 7.52538 26.8764 9.59583C27.8418 11.6663 28.1961 13.9693 27.8977 16.2341C27.5993 18.499 26.6606 20.6316 25.192 22.3814C26.8653 23.4881 27.904 24.9014 27.9933 26.4467L28 26.6667L16 29.3334L4.00001 26.6667L4.00668 26.4467C4.09601 24.9001 5.13468 23.4867 6.80668 22.3801C4.99052 20.2206 3.99638 17.4884 4.00001 14.6667C4.00001 11.4841 5.26429 8.4319 7.51473 6.18147C9.76516 3.93103 12.8174 2.66675 16 2.66675ZM16 17.3334C14.16 17.3334 12.6667 18.2294 12.6667 19.3334C12.6667 20.4374 14.16 21.3334 16 21.3334C17.84 21.3334 19.3333 20.4374 19.3333 19.3334C19.3333 18.2294 17.84 17.3334 16 17.3334ZM12 10.6667C10.5267 10.6667 9.33334 11.5627 9.33334 12.6667C9.33334 13.7707 10.5267 14.6667 12 14.6667C13.4733 14.6667 14.6667 13.7707 14.6667 12.6667C14.6667 11.5627 13.4733 10.6667 12 10.6667ZM20 10.6667C18.5267 10.6667 17.3333 11.5627 17.3333 12.6667C17.3333 13.7707 18.5267 14.6667 20 14.6667C21.4733 14.6667 22.6667 13.7707 22.6667 12.6667C22.6667 11.5627 21.4733 10.6667 20 10.6667Z" fill="#DA3435"/>
</svg>
