<svg width="34" height="34" viewBox="0 0 34 34" fill="none" xmlns="http://www.w3.org/2000/svg">
<path d="M5.1001 5.9499C5.1001 5.2736 5.36876 4.625 5.84698 4.14678C6.32519 3.66856 6.9738 3.3999 7.6501 3.3999H19.5501C20.2264 3.3999 20.875 3.66856 21.3532 4.14678C21.8314 4.625 22.1001 5.2736 22.1001 5.9499V8.998L27.6557 14.5536C28.4523 15.3504 28.8999 16.4308 28.9001 17.5575V29.7499C28.9001 29.9753 28.8105 30.1915 28.6511 30.3509C28.4917 30.5104 28.2755 30.5999 28.0501 30.5999C27.8247 30.5999 27.6085 30.5104 27.4491 30.3509C27.2896 30.1915 27.2001 29.9753 27.2001 29.7499V17.5575C27.1995 16.8814 26.9305 16.2333 26.4521 15.7555L22.1001 11.4035V16.648L23.5519 18.0981C23.7113 18.2577 23.8007 18.4741 23.8006 18.6997C23.8004 18.9252 23.7107 19.1415 23.551 19.3009C23.472 19.3798 23.3782 19.4423 23.275 19.485C23.1718 19.5277 23.0612 19.5496 22.9495 19.5495C22.7239 19.5494 22.5077 19.4596 22.3483 19.3L17.2483 14.2C16.5309 13.4826 16.1314 13.5132 15.9563 13.5574C15.6622 13.6288 15.4021 13.8634 15.0383 14.2136C14.8683 14.3768 14.7969 14.5366 14.8309 14.7746C14.8751 15.0721 15.108 15.6042 15.9019 16.3981L17.964 18.4602L18.4502 18.9481C18.5294 19.027 18.5922 19.1208 18.6351 19.2241C18.678 19.3274 18.7001 19.4381 18.7001 19.5499C18.7001 20.8657 18.7103 22.19 19.0741 23.1896C19.2452 23.6656 19.4855 24.0186 19.7949 24.2487C20.0992 24.4765 20.548 24.6499 21.2501 24.6499C21.4755 24.6499 21.6917 24.7395 21.8511 24.8989C22.0105 25.0583 22.1001 25.2745 22.1001 25.4999V28.0499C22.1001 28.7262 21.8314 29.3748 21.3532 29.853C20.875 30.3312 20.2264 30.5999 19.5501 30.5999H7.6501C6.9738 30.5999 6.32519 30.3312 5.84698 29.853C5.36876 29.3748 5.1001 28.7262 5.1001 28.0499V5.9499ZM13.6001 12.7499C12.8862 12.7498 12.1838 12.9295 11.5577 13.2725C10.9316 13.6155 10.402 14.1106 10.0177 14.7122C9.63347 15.3139 9.40695 16.0026 9.35908 16.7149C9.31121 17.4272 9.44352 18.14 9.74382 18.7877C10.0441 19.4353 10.5027 19.9969 11.0773 20.4206C11.6519 20.8442 12.3239 21.1163 13.0314 21.2118C13.7388 21.3072 14.4589 21.2229 15.1252 20.9666C15.7915 20.7103 16.3825 20.2903 16.8437 19.7454L16.7587 19.6604L14.6983 17.6C13.7922 16.6939 13.2703 15.8422 13.1496 15.0228C13.0907 14.6505 13.1251 14.2694 13.2497 13.9137C13.3743 13.5579 13.5852 13.2387 13.8636 12.9845L13.9214 12.9284L14.0812 12.7754C13.9213 12.7593 13.7608 12.7508 13.6001 12.7499ZM17.0001 28.0499V28.8999H18.7001V28.0499C18.7001 27.8245 18.7896 27.6083 18.9491 27.4489C19.1085 27.2895 19.3247 27.1999 19.5501 27.1999H20.4001V26.2819C19.8161 26.1934 19.2621 25.9654 18.7851 25.6172C18.2674 25.78 17.8152 26.1037 17.4942 26.5412C17.1731 26.9787 17.0001 27.5072 17.0001 28.0499ZM6.8001 8.4999H7.6501C8.3264 8.4999 8.975 8.23124 9.45322 7.75303C9.93144 7.27481 10.2001 6.6262 10.2001 5.9499V5.0999H8.5001V5.9499C8.5001 6.17534 8.41054 6.39154 8.25114 6.55094C8.09173 6.71035 7.87553 6.7999 7.6501 6.7999H6.8001V8.4999ZM17.0001 5.9499C17.0001 6.6262 17.2688 7.27481 17.747 7.75303C18.2252 8.23124 18.8738 8.4999 19.5501 8.4999H20.4001V6.7999H19.5501C19.3247 6.7999 19.1085 6.71035 18.9491 6.55094C18.7896 6.39154 18.7001 6.17534 18.7001 5.9499V5.0999H17.0001V5.9499ZM10.2001 28.0499C10.2001 27.3736 9.93144 26.725 9.45322 26.2468C8.975 25.7686 8.3264 25.4999 7.6501 25.4999H6.8001V27.1999H7.6501C7.87553 27.1999 8.09173 27.2895 8.25114 27.4489C8.41054 27.6083 8.5001 27.8245 8.5001 28.0499V28.8999H10.2001V28.0499Z" fill="#DA3435"/>
</svg>
