<svg width="30" height="30" viewBox="0 0 30 30" fill="none" xmlns="http://www.w3.org/2000/svg">
<path d="M13.75 2.5C12.0924 2.5 10.5027 3.15848 9.33058 4.33058C8.15848 5.50268 7.5 7.0924 7.5 8.75C7.5 10.4076 8.15848 11.9973 9.33058 13.1694C10.5027 14.3415 12.0924 15 13.75 15C15.4076 15 16.9973 14.3415 18.1694 13.1694C19.3415 11.9973 20 10.4076 20 8.75C20 7.0924 19.3415 5.50268 18.1694 4.33058C16.9973 3.15848 15.4076 2.5 13.75 2.5Z" fill="#DA3435"/>
<path d="M13.75 16.25C10.7562 16.25 8.03125 17.1175 6.0275 18.34C5.0275 18.95 4.1725 19.67 3.555 20.4525C2.9475 21.22 2.5 22.1412 2.5 23.125C2.5 24.1812 3.01375 25.0137 3.75375 25.6075C4.45375 26.17 5.3775 26.5425 6.35875 26.8025C8.33125 27.3237 10.9637 27.5 13.75 27.5L14.6062 27.4937C14.8156 27.4909 15.0209 27.4355 15.2032 27.3326C15.3856 27.2297 15.5392 27.0827 15.6499 26.905C15.7607 26.7273 15.825 26.5247 15.837 26.3157C15.849 26.1067 15.8084 25.898 15.7187 25.7087C15.2448 24.7055 14.9993 23.6096 15 22.5C15 20.935 15.4787 19.485 16.2962 18.2837C16.4178 18.1052 16.491 17.8983 16.5087 17.6831C16.5264 17.4679 16.4881 17.2517 16.3975 17.0557C16.3069 16.8597 16.167 16.6905 15.9915 16.5647C15.816 16.4388 15.611 16.3605 15.3962 16.3375C14.8579 16.2792 14.3092 16.25 13.75 16.25Z" fill="#DA3435"/>
<path d="M22.895 17.5637C22.6386 17.4783 22.3614 17.4783 22.105 17.5637L18.355 18.8137C18.106 18.8967 17.8894 19.0559 17.7359 19.2688C17.5825 19.4817 17.4999 19.7375 17.5 20V22.0887C17.4998 23.4258 17.9927 24.7159 18.8843 25.7122C19.7759 26.7086 21.0037 27.3411 22.3325 27.4887C22.445 27.5012 22.5567 27.5012 22.6675 27.4887C23.9963 27.3411 25.2241 26.7086 26.1157 25.7122C27.0073 24.7159 27.5002 23.4258 27.5 22.0887V20C27.5001 19.7375 27.4175 19.4817 27.2641 19.2688C27.1106 19.0559 26.894 18.8967 26.645 18.8137L22.895 17.5637Z" fill="#FF6063" fill-opacity="0.8"/>
</svg>
