<svg width="33" height="33" viewBox="0 0 33 33" fill="none" xmlns="http://www.w3.org/2000/svg">
<g clip-path="url(#clip0_115_273)">
<path fill-rule="evenodd" clip-rule="evenodd" d="M0.906138 5.03114C1.48633 4.45095 2.27324 4.125 3.09375 4.125H14.4375V6.1875H3.09375C2.82025 6.1875 2.55794 6.29615 2.36455 6.48955C2.17115 6.68294 2.0625 6.94525 2.0625 7.21875V21.6562C2.0625 21.9298 2.17115 22.1921 2.36455 22.3855C2.55794 22.5789 2.82025 22.6875 3.09375 22.6875H14.4375V30.9375H11.3438C11.0702 30.9375 10.8079 30.8289 10.6145 30.6355C10.4212 30.4421 10.3125 30.1798 10.3125 29.9062C10.3125 29.6327 10.4212 29.3704 10.6145 29.177C10.8079 28.9836 11.0702 28.875 11.3438 28.875H12.375V24.75H3.09375C2.27324 24.75 1.48633 24.4241 0.906138 23.8439C0.325948 23.2637 0 22.4768 0 21.6562L0 7.21875C0 6.39824 0.325948 5.61133 0.906138 5.03114Z" fill="#FF6063" fill-opacity="0.8"/>
<path fill-rule="evenodd" clip-rule="evenodd" d="M16.5 2.0625C16.5 1.51549 16.7173 0.990886 17.1041 0.604092C17.4909 0.217299 18.0155 0 18.5625 0L30.9375 0C31.4845 0 32.0091 0.217299 32.3959 0.604092C32.7827 0.990886 33 1.51549 33 2.0625V30.9375C33 31.4845 32.7827 32.0091 32.3959 32.3959C32.0091 32.7827 31.4845 33 30.9375 33H18.5625C18.0155 33 17.4909 32.7827 17.1041 32.3959C16.7173 32.0091 16.5 31.4845 16.5 30.9375V2.0625ZM18.8645 30.6355C18.6711 30.4421 18.5625 30.1798 18.5625 29.9062C18.5625 29.6327 18.6711 29.3704 18.8645 29.177C19.0579 28.9836 19.3202 28.875 19.5938 28.875C19.8673 28.875 20.1296 28.9836 20.323 29.177C20.5164 29.3704 20.625 29.6327 20.625 29.9062C20.625 30.1798 20.5164 30.4421 20.323 30.6355C20.1296 30.8289 19.8673 30.9375 19.5938 30.9375C19.3202 30.9375 19.0579 30.8289 18.8645 30.6355ZM22.9895 30.6355C22.7961 30.4421 22.6875 30.1798 22.6875 29.9062C22.6875 29.6327 22.7961 29.3704 22.9895 29.177C23.1829 28.9836 23.4452 28.875 23.7188 28.875C23.9923 28.875 24.2546 28.9836 24.448 29.177C24.6414 29.3704 24.75 29.6327 24.75 29.9062C24.75 30.1798 24.6414 30.4421 24.448 30.6355C24.2546 30.8289 23.9923 30.9375 23.7188 30.9375C23.4452 30.9375 23.1829 30.8289 22.9895 30.6355ZM18.8645 2.36455C19.0579 2.17115 19.3202 2.0625 19.5938 2.0625H29.9062C30.1798 2.0625 30.4421 2.17115 30.6355 2.36455C30.8289 2.55794 30.9375 2.82025 30.9375 3.09375C30.9375 3.36725 30.8289 3.62956 30.6355 3.82295C30.4421 4.01635 30.1798 4.125 29.9062 4.125H19.5938C19.3202 4.125 19.0579 4.01635 18.8645 3.82295C18.6711 3.62956 18.5625 3.36725 18.5625 3.09375C18.5625 2.82025 18.6711 2.55794 18.8645 2.36455ZM18.8645 7.94795C18.6711 7.75456 18.5625 7.49225 18.5625 7.21875C18.5625 6.94525 18.6711 6.68294 18.8645 6.48955C19.0579 6.29615 19.3202 6.1875 19.5938 6.1875H29.9062C30.1798 6.1875 30.4421 6.29615 30.6355 6.48955C30.8289 6.68294 30.9375 6.94525 30.9375 7.21875C30.9375 7.49225 30.8289 7.75456 30.6355 7.94795C30.4421 8.14135 30.1798 8.25 29.9062 8.25H19.5938C19.3202 8.25 19.0579 8.14135 18.8645 7.94795Z" fill="#DA3435"/>
</g>
<defs>
<clipPath id="clip0_115_273">
<rect width="33" height="33" fill="white"/>
</clipPath>
</defs>
</svg>
