<svg width="87" height="75" viewBox="0 0 87 75" fill="none" xmlns="http://www.w3.org/2000/svg">
<g clip-path="url(#clip0_1513_4058)">
<path d="M61.8357 74.4192C61.2115 74.4187 60.5977 74.2607 60.0508 73.96L9.27108 46.1887C8.40385 45.7132 7.76066 44.913 7.48263 43.9638C7.2046 43.0147 7.31444 41.9939 7.78804 41.1256L29.2174 1.94203C29.4525 1.5122 29.7699 1.13287 30.1516 0.82572C30.5332 0.518566 30.9717 0.289595 31.4418 0.151883C31.912 0.0141701 32.4047 -0.0295876 32.8917 0.0231081C33.3788 0.0758039 33.8507 0.223921 34.2805 0.459002L85.0602 28.2302C85.9275 28.7058 86.5707 29.5059 86.8487 30.4551C87.1267 31.4043 87.0169 32.425 86.5433 33.2933L65.1139 72.4769C64.8799 72.9076 64.5628 73.2875 64.181 73.5948C63.7992 73.9021 63.3602 74.1306 62.8895 74.2671C62.5473 74.3677 62.1924 74.4189 61.8357 74.4192ZM60.3576 73.3989C61.0769 73.7923 61.923 73.8838 62.7097 73.6533C63.4965 73.4229 64.1594 72.8893 64.5528 72.1701L85.9822 32.9865C86.3746 32.267 86.4656 31.4213 86.2352 30.6348C86.0049 29.8483 85.4719 29.1853 84.7534 28.7913L33.9737 1.02005C33.2544 0.626707 32.4083 0.535196 31.6216 0.765646C30.8349 0.996097 30.1719 1.52963 29.7785 2.24889L8.34914 41.4325C7.95673 42.152 7.86572 42.9977 8.09609 43.7842C8.32646 44.5707 8.85938 45.2336 9.57795 45.6277L60.3576 73.3989Z" fill="#919191"/>
<path d="M62.8824 60.7152C62.2981 60.7148 61.7233 60.5676 61.2108 60.2871L20.1569 37.8349C19.7574 37.6169 19.4049 37.3223 19.1194 36.968C18.834 36.6136 18.6212 36.2064 18.4933 35.7697C18.3654 35.333 18.3249 34.8754 18.374 34.4231C18.4232 33.9707 18.561 33.5324 18.7797 33.1334L31.578 9.73175C31.7963 9.33259 32.091 8.98034 32.4454 8.6951C32.7998 8.40986 33.2069 8.19723 33.6435 8.06935C34.0801 7.94147 34.5376 7.90085 34.9899 7.9498C35.4422 7.99875 35.8804 8.13631 36.2795 8.35463L77.3334 30.8068C77.7326 31.0251 78.0848 31.3198 78.3701 31.6742C78.6553 32.0286 78.8679 32.4358 78.9958 32.8723C79.1237 33.3089 79.1643 33.7664 79.1154 34.2187C79.0664 34.671 78.9289 35.1092 78.7106 35.5083L65.9123 58.91C65.6164 59.4556 65.1787 59.9113 64.6455 60.2291C64.1122 60.5468 63.5031 60.7147 62.8824 60.7152Z" fill="#919191"/>
<path d="M61.6081 74.4092H3.73049C2.81206 74.4082 1.93155 74.0429 1.28213 73.3934C0.632702 72.744 0.267399 71.8635 0.266357 70.9451V26.2844C0.267399 25.366 0.632702 24.4855 1.28213 23.8361C1.93155 23.1867 2.81206 22.8214 3.73049 22.8203H61.6081C62.5265 22.8214 63.407 23.1867 64.0565 23.8361C64.7059 24.4855 65.0712 25.366 65.0722 26.2844V70.9451C65.0712 71.8635 64.7059 72.744 64.0565 73.3934C63.407 74.0429 62.5265 74.4082 61.6081 74.4092Z" fill="white"/>
<path d="M61.6082 74.6755H3.7306C2.74153 74.6744 1.79328 74.281 1.0939 73.5816C0.394516 72.8823 0.00111351 71.934 0 70.9449V26.2843C0.00111351 25.2952 0.394516 24.347 1.0939 23.6476C1.79328 22.9482 2.74153 22.5548 3.7306 22.5537H61.6082C62.5973 22.5548 63.5455 22.9482 64.2449 23.6476C64.9443 24.347 65.3377 25.2952 65.3388 26.2843V70.9449C65.3377 71.934 64.9443 72.8823 64.2449 73.5816C63.5455 74.281 62.5973 74.6744 61.6082 74.6755ZM3.7306 23.1932C2.91108 23.1942 2.12539 23.5201 1.54591 24.0996C0.966418 24.6791 0.640456 25.4648 0.639532 26.2843V70.9449C0.640456 71.7645 0.966418 72.5502 1.54591 73.1296C2.12539 73.7091 2.91108 74.0351 3.7306 74.036H61.6082C62.4277 74.0351 63.2134 73.7091 63.7929 73.1296C64.3724 72.5502 64.6984 71.7645 64.6993 70.9449V26.2843C64.6984 25.4648 64.3724 24.6791 63.7929 24.0996C63.2134 23.5201 62.4277 23.1942 61.6082 23.1932H3.7306Z" fill="#B6B6B6"/>
<path d="M41.6763 37.5066C41.0039 37.5061 40.3406 37.6617 39.7386 37.961C39.1365 38.2604 38.6121 38.6954 38.2067 39.2318C37.7716 39.0446 37.2968 38.9683 36.8249 39.0099C36.353 39.0514 35.8988 39.2095 35.5031 39.47C35.1074 39.7304 34.7826 40.085 34.5578 40.502C34.3329 40.919 34.2152 41.3853 34.2151 41.859H46.0287C46.0287 41.2874 45.9161 40.7214 45.6974 40.1934C45.4787 39.6653 45.1581 39.1855 44.7539 38.7814C44.3498 38.3772 43.87 38.0566 43.3419 37.8379C42.8138 37.6192 42.2479 37.5066 41.6763 37.5066Z" fill="#B6B6B6"/>
<path d="M15.7961 54.5433C19.667 54.5433 22.8051 51.4053 22.8051 47.5344C22.8051 43.6634 19.667 40.5254 15.7961 40.5254C11.9251 40.5254 8.78711 43.6634 8.78711 47.5344C8.78711 51.4053 11.9251 54.5433 15.7961 54.5433Z" fill="#DA3435"/>
<path d="M56.85 61.9787C56.5929 62.0393 56.3296 62.0697 56.0655 62.0693H9.2731C8.69682 62.0703 8.12975 61.9247 7.62524 61.6461L7.74994 61.4671L12.9707 53.9494L20.7069 42.8119L20.8198 42.6488L22.0371 40.8965C22.1189 40.7786 22.228 40.6823 22.3552 40.6157C22.4823 40.5492 22.6237 40.5144 22.7672 40.5144C22.9107 40.5144 23.0521 40.5492 23.1793 40.6157C23.3064 40.6823 23.4156 40.7786 23.4974 40.8965L27.5413 46.7173V46.7184L29.9204 50.1442L35.5994 58.3195L44.2128 46.0245C44.2949 45.9072 44.404 45.8115 44.5309 45.7454C44.6578 45.6793 44.7988 45.6448 44.9419 45.6448C45.085 45.6448 45.226 45.6793 45.3529 45.7454C45.4798 45.8115 45.5889 45.9072 45.671 46.0245L51.1965 53.911L51.5141 54.364L56.85 61.9787Z" fill="#3F3D56"/>
<path d="M32.3741 44.7744C31.5446 44.7738 30.7262 44.9657 29.9834 45.3351C29.2406 45.7044 28.5936 46.2411 28.0935 46.9029C27.5566 46.6719 26.9708 46.5778 26.3886 46.6291C25.8064 46.6804 25.246 46.8754 24.7578 47.1968C24.2696 47.5181 23.8688 47.9556 23.5915 48.4701C23.3141 48.9845 23.1688 49.5598 23.1687 50.1442H37.7439C37.7439 49.4391 37.6051 48.7408 37.3352 48.0893C37.0653 47.4378 36.6698 46.8458 36.1712 46.3472C35.6725 45.8486 35.0806 45.453 34.4291 45.1832C33.7776 44.9133 33.0793 44.7744 32.3741 44.7744Z" fill="#CCCCCC"/>
<path d="M56.0654 62.1758H9.27304C8.81101 62.1762 8.35343 62.0855 7.92648 61.9089C7.49954 61.7323 7.11162 61.4732 6.78491 61.1465C6.4582 60.8198 6.19913 60.4319 6.02251 60.0049C5.84589 59.578 5.7552 59.1204 5.75562 58.6584V31.9857C5.75667 31.0531 6.12759 30.1591 6.78701 29.4997C7.44643 28.8402 8.34049 28.4693 9.27304 28.4683H56.0654C56.998 28.4693 57.8921 28.8402 58.5515 29.4997C59.2109 30.1591 59.5818 31.0531 59.5829 31.9857V58.6584C59.5834 59.1205 59.4928 59.5781 59.3162 60.0051C59.1396 60.4321 58.8805 60.82 58.5538 61.1468C58.2271 61.4735 57.8391 61.7326 57.4121 61.9092C56.9851 62.0857 56.5275 62.1763 56.0654 62.1758ZM9.27304 28.6814C8.39701 28.6824 7.55713 29.0309 6.93768 29.6503C6.31823 30.2698 5.96979 31.1096 5.96879 31.9857V58.6584C5.96838 59.0924 6.05357 59.5223 6.21948 59.9234C6.38539 60.3244 6.62876 60.6889 6.93567 60.9958C7.24258 61.3027 7.607 61.546 8.00808 61.712C8.40915 61.8779 8.83901 61.9631 9.27304 61.9626H56.0654C56.4995 61.9632 56.9294 61.878 57.3305 61.7122C57.7316 61.5463 58.0961 61.3029 58.403 60.996C58.71 60.6891 58.9533 60.3246 59.1192 59.9235C59.2851 59.5224 59.3702 59.0925 59.3697 58.6584V31.9857C59.3687 31.1096 59.0202 30.2698 58.4008 29.6503C57.7813 29.0309 56.9415 28.6824 56.0654 28.6814H9.27304Z" fill="#3F3D56"/>
<circle cx="64.5" cy="59.2502" r="12.5" fill="#DA3435"/>
<rect x="63.2893" y="52.7502" width="2.4375" height="13" rx="1.21875" fill="white"/>
<rect x="58.0166" y="60.5137" width="2.4375" height="13" rx="1.21875" transform="rotate(-90.3939 58.0166 60.5137)" fill="white"/>
</g>
<defs>
<clipPath id="clip0_1513_4058">
<rect width="87" height="74.6757" fill="white"/>
</clipPath>
</defs>
</svg>
