<svg width="32" height="32" viewBox="0 0 32 32" fill="none" xmlns="http://www.w3.org/2000/svg">
<path d="M17.7655 11.2478L12.6602 16.2531C12.1748 16.7331 11.9082 17.3891 11.9188 18.0784C11.9334 18.7758 12.2206 19.4397 12.7188 19.9278C13.2188 20.4224 13.8922 20.7064 14.5895 20.7184C14.9309 20.7256 15.2702 20.6645 15.5876 20.5385C15.905 20.4126 16.1939 20.2244 16.4375 19.9851L21.5415 14.9798C22.023 14.5034 22.4027 13.9342 22.6576 13.3067C22.9125 12.6791 23.0372 12.0063 23.0242 11.3291C22.9961 9.93434 22.4227 8.60607 21.4268 7.62912C20.4282 6.64092 19.0875 6.07513 17.6828 6.04912C17.0008 6.03551 16.3229 6.15796 15.6888 6.40933C15.0546 6.6607 14.477 7.03594 13.9895 7.51312L8.88149 12.5198C8.15977 13.2347 7.59065 14.0886 7.20859 15.0298C6.82654 15.9711 6.63951 16.9801 6.65883 17.9958C6.70176 20.0874 7.56236 22.0791 9.05616 23.5438C10.5533 25.0257 12.5633 25.8746 14.6695 25.9145C15.6929 25.9358 16.7103 25.7526 17.662 25.3758C18.6138 24.9989 19.4808 24.4359 20.2122 23.7198L25.3175 18.7118" stroke="#DA3435" stroke-width="2.66667" stroke-linecap="round" stroke-linejoin="round"/>
</svg>
