<svg width="40" height="40" viewBox="0 0 40 40" fill="none" xmlns="http://www.w3.org/2000/svg">
<path d="M35 23.75H32.5V35H27.5V23.75H25V16.25C25 15.9185 25.1317 15.6005 25.3661 15.3661C25.6005 15.1317 25.9185 15 26.25 15H33.75C34.0815 15 34.3995 15.1317 34.6339 15.3661C34.8683 15.6005 35 15.9185 35 16.25V23.75Z" fill="#DA3435"/>
<path fill-rule="evenodd" clip-rule="evenodd" d="M33.75 12.5H26.25C25.2557 12.501 24.3025 12.8964 23.5994 13.5994C22.8964 14.3025 22.501 15.2557 22.5 16.25V23.75C22.5 24.413 22.7634 25.0489 23.2322 25.5178C23.7011 25.9866 24.337 26.25 25 26.25V35C25 35.663 25.2634 36.2989 25.7322 36.7678C26.2011 37.2366 26.837 37.5 27.5 37.5H32.5C33.163 37.5 33.7989 37.2366 34.2678 36.7678C34.7366 36.2989 35 35.663 35 35V26.25C35.663 26.25 36.2989 25.9866 36.7678 25.5178C37.2366 25.0489 37.5 24.413 37.5 23.75V16.25C37.499 15.2557 37.1036 14.3025 36.4006 13.5994C35.6975 12.8964 34.7443 12.501 33.75 12.5ZM32.5 23.75H35V16.25C35 15.9185 34.8683 15.6005 34.6339 15.3661C34.3995 15.1317 34.0815 15 33.75 15H26.25C25.9185 15 25.6005 15.1317 25.3661 15.3661C25.1317 15.6005 25 15.9185 25 16.25V23.75H27.5V35H32.5V23.75Z" fill="#DA3435"/>
<path fill-rule="evenodd" clip-rule="evenodd" d="M25 6.25C25 5.2611 25.2932 4.2944 25.8427 3.47215C26.3921 2.64991 27.173 2.00904 28.0866 1.6306C29.0002 1.25217 30.0055 1.15315 30.9755 1.34608C31.9454 1.539 32.8363 2.01521 33.5355 2.71447C34.2348 3.41373 34.711 4.30465 34.9039 5.27455C35.0969 6.24446 34.9978 7.24979 34.6194 8.16342C34.241 9.07705 33.6001 9.85794 32.7779 10.4074C31.9556 10.9568 30.9889 11.25 30 11.25C28.6743 11.2487 27.4033 10.7215 26.4659 9.78407C25.5285 8.84668 25.0013 7.57568 25 6.25ZM27.9213 7.63893C27.6466 7.22781 27.5 6.74446 27.5 6.25C27.5 5.58696 27.7634 4.95108 28.2322 4.48224C28.7011 4.01339 29.337 3.75 30 3.75C30.4945 3.75 30.9778 3.89662 31.3889 4.17133C31.8001 4.44603 32.1205 4.83648 32.3097 5.29329C32.4989 5.75011 32.5484 6.25278 32.452 6.73773C32.3555 7.22268 32.1174 7.66814 31.7678 8.01777C31.4181 8.3674 30.9727 8.6055 30.4877 8.70197C30.0028 8.79843 29.5001 8.74892 29.0433 8.5597C28.5865 8.37048 28.196 8.05005 27.9213 7.63893Z" fill="#DA3435"/>
<path d="M27.5 6.25C27.5 6.74446 27.6466 7.22781 27.9213 7.63893C28.196 8.05005 28.5865 8.37048 29.0433 8.5597C29.5001 8.74892 30.0028 8.79843 30.4877 8.70197C30.9727 8.6055 31.4181 8.3674 31.7678 8.01777C32.1174 7.66814 32.3555 7.22268 32.452 6.73773C32.5484 6.25278 32.4989 5.75011 32.3097 5.29329C32.1205 4.83648 31.8001 4.44603 31.3889 4.17133C30.9778 3.89662 30.4945 3.75 30 3.75C29.337 3.75 28.7011 4.01339 28.2322 4.48224C27.7634 4.95108 27.5 5.58696 27.5 6.25Z" fill="#DA3435"/>
<path fill-rule="evenodd" clip-rule="evenodd" d="M17.5 20V16.25C17.499 15.2557 17.1036 14.3025 16.4006 13.5994C15.6975 12.8964 14.7443 12.501 13.75 12.5H6.25C5.25574 12.501 4.30249 12.8964 3.59945 13.5994C2.8964 14.3025 2.50099 15.2557 2.5 16.25V20H0V22.5H20V20H17.5ZM5.36612 15.3661C5.1317 15.6005 5 15.9185 5 16.25V20H15V16.25C15 15.9185 14.8683 15.6005 14.6339 15.3661C14.3995 15.1317 14.0815 15 13.75 15H6.25C5.91848 15 5.60054 15.1317 5.36612 15.3661Z" fill="#FF6063" fill-opacity="0.8"/>
<path d="M5 16.25C5 15.9185 5.1317 15.6005 5.36612 15.3661C5.60054 15.1317 5.91848 15 6.25 15H13.75C14.0815 15 14.3995 15.1317 14.6339 15.3661C14.8683 15.6005 15 15.9185 15 16.25V20H5V16.25Z" fill="#FF6063" fill-opacity="0.8"/>
<path d="M7.5 6.25C7.5 6.74446 7.64662 7.22781 7.92133 7.63893C8.19603 8.05005 8.58648 8.37048 9.04329 8.5597C9.50011 8.74892 10.0028 8.79843 10.4877 8.70197C10.9727 8.6055 11.4181 8.3674 11.7678 8.01777C12.1174 7.66814 12.3555 7.22268 12.452 6.73773C12.5484 6.25278 12.4989 5.75011 12.3097 5.29329C12.1205 4.83648 11.8 4.44603 11.3889 4.17133C10.9778 3.89662 10.4945 3.75 10 3.75C9.33696 3.75 8.70107 4.01339 8.23223 4.48224C7.76339 4.95108 7.5 5.58696 7.5 6.25Z" fill="#FF6063" fill-opacity="0.8"/>
<path fill-rule="evenodd" clip-rule="evenodd" d="M5 6.25C5 5.2611 5.29324 4.2944 5.84265 3.47215C6.39206 2.64991 7.17295 2.00904 8.08658 1.6306C9.00021 1.25217 10.0055 1.15315 10.9755 1.34608C11.9454 1.539 12.8363 2.01521 13.5355 2.71447C14.2348 3.41373 14.711 4.30465 14.9039 5.27455C15.0969 6.24446 14.9978 7.24979 14.6194 8.16342C14.241 9.07705 13.6001 9.85794 12.7779 10.4074C11.9556 10.9568 10.9889 11.25 10 11.25C8.67432 11.2487 7.40332 10.7215 6.46593 9.78407C5.52853 8.84668 5.00132 7.57568 5 6.25ZM7.92133 7.63893C7.64662 7.22781 7.5 6.74446 7.5 6.25C7.5 5.58696 7.76339 4.95108 8.23223 4.48224C8.70107 4.01339 9.33696 3.75 10 3.75C10.4945 3.75 10.9778 3.89662 11.3889 4.17133C11.8 4.44603 12.1205 4.83648 12.3097 5.29329C12.4989 5.75011 12.5484 6.25278 12.452 6.73773C12.3555 7.22268 12.1174 7.66814 11.7678 8.01777C11.4181 8.3674 10.9727 8.6055 10.4877 8.70197C10.0028 8.79843 9.50011 8.74892 9.04329 8.5597C8.58648 8.37048 8.19603 8.05005 7.92133 7.63893Z" fill="#FF6063" fill-opacity="0.8"/>
</svg>
