<svg width="37" height="36" viewBox="0 0 37 36" fill="none" xmlns="http://www.w3.org/2000/svg">
<path fill-rule="evenodd" clip-rule="evenodd" d="M18.584 4.46536C15.0312 4.46536 11.6238 5.87673 9.1116 8.38897C6.59935 10.9012 5.18799 14.3086 5.18799 17.8614C5.18799 21.4143 6.59935 24.8216 9.1116 27.3338C11.6238 29.8461 15.0312 31.2574 18.584 31.2574H25.282C27.3629 31.2574 28.4033 31.2574 29.2235 30.9181C29.7654 30.6937 30.2578 30.3647 30.6726 29.9499C31.0873 29.5352 31.4163 29.0428 31.6407 28.5008C31.9801 27.6807 31.9801 26.6403 31.9801 24.5594V17.8614C31.9801 14.3086 30.5687 10.9012 28.0565 8.38897C25.5442 5.87673 22.1369 4.46536 18.584 4.46536ZM12.6302 16.373C12.6302 15.9782 12.7871 15.5996 13.0662 15.3205C13.3453 15.0413 13.7239 14.8845 14.1187 14.8845H23.0494C23.4441 14.8845 23.8227 15.0413 24.1019 15.3205C24.381 15.5996 24.5378 15.9782 24.5378 16.373C24.5378 16.7677 24.381 17.1463 24.1019 17.4254C23.8227 17.7046 23.4441 17.8614 23.0494 17.8614H14.1187C13.7239 17.8614 13.3453 17.7046 13.0662 17.4254C12.7871 17.1463 12.6302 16.7677 12.6302 16.373ZM17.0956 22.3267C17.0956 21.932 17.2524 21.5534 17.5315 21.2743C17.8107 20.9951 18.1893 20.8383 18.584 20.8383H23.0494C23.4441 20.8383 23.8227 20.9951 24.1019 21.2743C24.381 21.5534 24.5378 21.932 24.5378 22.3267C24.5378 22.7215 24.381 23.1001 24.1019 23.3792C23.8227 23.6584 23.4441 23.8152 23.0494 23.8152H18.584C18.1893 23.8152 17.8107 23.6584 17.5315 23.3792C17.2524 23.1001 17.0956 22.7215 17.0956 22.3267Z" fill="#848484"/>
</svg>
