<svg width="24" height="24" viewBox="0 0 24 24" fill="none" xmlns="http://www.w3.org/2000/svg">
<path d="M1 12.025C1 11.6917 1.075 11.3833 1.225 11.1C1.375 10.8167 1.58333 10.5833 1.85 10.4L6.85 6.825C7.03333 6.69167 7.221 6.59567 7.413 6.537C7.605 6.47833 7.80067 6.44933 8 6.45C8.19933 6.45067 8.39533 6.48 8.588 6.538C8.78067 6.596 8.968 6.69167 9.15 6.825L14.15 10.4C14.4167 10.5833 14.625 10.8167 14.775 11.1C14.925 11.3833 15 11.6917 15 12.025V19C15 19.55 14.8043 20.021 14.413 20.413C14.0217 20.805 13.5507 21.0007 13 21H12C11.45 21 10.9793 20.8043 10.588 20.413C10.1967 20.0217 10.0007 19.5507 10 19V16.5C10 16.0833 9.85433 15.7293 9.563 15.438C9.27167 15.1467 8.91733 15.0007 8.5 15H7.5C7.08333 15 6.72933 15.146 6.438 15.438C6.14667 15.73 6.00067 16.084 6 16.5V19C6 19.55 5.80433 20.021 5.413 20.413C5.02167 20.805 4.55067 21.0007 4 21H3C2.45 21 1.97933 20.8043 1.588 20.413C1.19667 20.0217 1.00067 19.5507 1 19V12.025ZM23 5V19C23 19.55 22.8043 20.021 22.413 20.413C22.0217 20.805 21.5507 21.0007 21 21H18C17.7167 21 17.4793 20.904 17.288 20.712C17.0967 20.52 17.0007 20.2827 17 20V11.025C17 10.6917 16.929 10.3833 16.787 10.1C16.645 9.81667 16.441 9.58333 16.175 9.4L10.95 5.65C10.7333 5.48333 10.5583 5.28333 10.425 5.05C10.2917 4.81667 10.225 4.58333 10.225 4.35C10.225 3.93333 10.3583 3.60433 10.625 3.363C10.8917 3.12167 11.25 3.00067 11.7 3H21C21.55 3 22.021 3.196 22.413 3.588C22.805 3.98 23.0007 4.45067 23 5ZM17.5 9H18.5C18.6333 9 18.75 8.95 18.85 8.85C18.95 8.75 19 8.63333 19 8.5V7.5C19 7.36667 18.95 7.25 18.85 7.15C18.75 7.05 18.6333 7 18.5 7H17.5C17.3667 7 17.25 7.05 17.15 7.15C17.05 7.25 17 7.36667 17 7.5V8.5C17 8.63333 17.05 8.75 17.15 8.85C17.25 8.95 17.3667 9 17.5 9ZM17.5 13H18.5C18.6333 13 18.75 12.95 18.85 12.85C18.95 12.75 19 12.6333 19 12.5V11.5C19 11.3667 18.95 11.25 18.85 11.15C18.75 11.05 18.6333 11 18.5 11H17.5C17.3667 11 17.25 11.05 17.15 11.15C17.05 11.25 17 11.3667 17 11.5V12.5C17 12.6333 17.05 12.75 17.15 12.85C17.25 12.95 17.3667 13 17.5 13ZM17.5 17H18.5C18.6333 17 18.75 16.95 18.85 16.85C18.95 16.75 19 16.6333 19 16.5V15.5C19 15.3667 18.95 15.25 18.85 15.15C18.75 15.05 18.6333 15 18.5 15H17.5C17.3667 15 17.25 15.05 17.15 15.15C17.05 15.25 17 15.3667 17 15.5V16.5C17 16.6333 17.05 16.75 17.15 16.85C17.25 16.95 17.3667 17 17.5 17Z" fill="black"/>
</svg>
