<svg width="27" height="27" viewBox="0 0 27 27" fill="none" xmlns="http://www.w3.org/2000/svg">
<path d="M22.6469 3.0813H5.25526C4.05958 3.0813 3.0813 4.05958 3.0813 5.25526V18.299C3.0813 19.4947 4.05958 20.473 5.25526 20.473H9.60318V23.7339C9.60318 24.3861 10.038 24.8209 10.6902 24.8209H11.2337C11.451 24.8209 11.7771 24.7122 11.9945 24.4948L16.0164 20.473H22.6469C23.8426 20.473 24.8209 19.4947 24.8209 18.299V5.25526C24.8209 4.05958 23.8426 3.0813 22.6469 3.0813ZM12.8641 15.0381H8.5162V10.4728L9.92928 7.42922H12.1032L10.5815 10.6902H12.8641V15.0381ZM19.386 15.0381H15.0381V10.4728L16.4512 7.42922H18.6251L17.1033 10.6902H19.386V15.0381Z" fill="black"/>
</svg>
