<svg width="30" height="30" viewBox="0 0 30 30" fill="none" xmlns="http://www.w3.org/2000/svg">
<g clip-path="url(#clip0_56_2485)">
<path d="M10.4508 0.986913C7.45329 2.02676 4.86828 4.00043 3.07542 6.61801C1.28256 9.23559 0.376358 12.3591 0.489915 15.5298C0.603472 18.7005 1.7308 21.7512 3.70632 24.2338C5.68184 26.7164 8.40142 28.5001 11.4656 29.3229C13.9498 29.9639 16.5525 29.992 19.05 29.4049C21.3124 28.8967 23.4041 27.8096 25.1203 26.2502C26.9064 24.5776 28.2029 22.4498 28.8703 20.0955C29.5957 17.5354 29.7248 14.843 29.2476 12.2252H15.2976V18.0119H23.3765C23.2151 18.9349 22.8691 19.8157 22.3592 20.6018C21.8494 21.3879 21.1862 22.0631 20.4093 22.5869C19.4228 23.2395 18.3107 23.6786 17.1445 23.876C15.9748 24.0935 14.7751 24.0935 13.6054 23.876C12.4199 23.6309 11.2985 23.1416 10.3125 22.4393C8.72845 21.318 7.53906 19.725 6.91403 17.8877C6.27844 16.016 6.27844 13.9868 6.91403 12.115C7.35894 10.803 8.09443 9.60848 9.0656 8.62051C10.177 7.46913 11.584 6.64612 13.1324 6.24178C14.6807 5.83743 16.3105 5.86738 17.8429 6.32832C19.0401 6.6958 20.1348 7.33786 21.0398 8.20332C21.9508 7.29707 22.8601 6.38848 23.7679 5.47754C24.2367 4.98769 24.7476 4.52129 25.2093 4.01973C23.8279 2.73412 22.2063 1.73377 20.4375 1.07598C17.2165 -0.0935799 13.6921 -0.125011 10.4508 0.986913Z" fill="white"/>
<path d="M10.4507 0.986587C13.6918 -0.126092 17.2162 -0.0954888 20.4374 1.07331C22.2065 1.73556 23.8274 2.74074 25.207 4.03112C24.7382 4.53268 24.2437 5.00143 23.7656 5.48893C22.8562 6.39674 21.9476 7.30143 21.0398 8.20299C20.1347 7.33753 19.04 6.69547 17.8429 6.32799C16.311 5.86543 14.6812 5.83376 13.1325 6.23645C11.5837 6.63914 10.1758 7.46064 9.06323 8.61081C8.09205 9.59878 7.35657 10.7933 6.91166 12.1053L2.05307 8.34362C3.79215 4.89493 6.80326 2.25696 10.4507 0.986587Z" fill="#E33629"/>
<path d="M0.764068 12.0703C1.02521 10.7761 1.45876 9.52272 2.05313 8.34375L6.91172 12.1148C6.27613 13.9866 6.27613 16.0158 6.91172 17.8875C5.29297 19.1375 3.67344 20.3938 2.05313 21.6563C0.565202 18.6945 0.11141 15.3199 0.764068 12.0703Z" fill="#F8BD00"/>
<path d="M15.2977 12.2227H29.2477C29.7249 14.8405 29.5958 17.5328 28.8703 20.093C28.2029 22.4472 26.9065 24.575 25.1203 26.2477C23.5524 25.0242 21.9774 23.8102 20.4094 22.5867C21.1868 22.0624 21.8503 21.3865 22.3601 20.5995C22.87 19.8126 23.2157 18.9308 23.3766 18.007H15.2977C15.2953 16.0805 15.2977 14.1516 15.2977 12.2227Z" fill="#587DBD"/>
<path d="M2.05078 21.6564C3.67109 20.4064 5.29062 19.1502 6.90937 17.8877C7.53564 19.7257 8.72673 21.3187 10.3125 22.4393C11.3016 23.1383 12.4255 23.6236 13.6125 23.8643C14.7822 24.0817 15.9819 24.0817 17.1516 23.8643C18.3178 23.6668 19.4299 23.2278 20.4164 22.5752C21.9844 23.7986 23.5594 25.0127 25.1273 26.2361C23.4115 27.7964 21.3197 28.8843 19.057 29.3932C16.5596 29.9803 13.9569 29.9521 11.4727 29.3111C9.50789 28.7865 7.67268 27.8617 6.08203 26.5947C4.39842 25.2581 3.02333 23.5736 2.05078 21.6564Z" fill="#319F43"/>
</g>
<defs>
<clipPath id="clip0_56_2485">
<rect width="30" height="30" fill="white"/>
</clipPath>
</defs>
</svg>
