<svg width="36" height="36" viewBox="0 0 36 36" fill="none" xmlns="http://www.w3.org/2000/svg">
<path fill-rule="evenodd" clip-rule="evenodd" d="M3.7508 11.6441C2.97681 13.0536 2.97681 14.7579 2.97681 18.1635V20.4289C2.97681 26.2339 2.97681 29.1378 4.72127 30.9418C6.46573 32.7458 9.27146 32.7458 14.8844 32.7458H20.8382C26.4511 32.7458 29.2583 32.7458 31.0013 30.9418C32.7443 29.1378 32.7458 26.2353 32.7458 20.4289V18.165C32.7458 14.7579 32.7458 13.0551 31.9718 11.6441C31.2008 10.2315 29.7882 9.35633 26.9646 7.60294L23.9877 5.75577C21.0034 3.90265 19.5105 2.97684 17.8613 2.97684C16.2121 2.97684 14.7207 3.90265 11.7348 5.75577L8.75794 7.60294C5.93435 9.35633 4.5233 10.2315 3.7508 11.6441ZM16.745 26.792C16.745 27.0881 16.8626 27.372 17.0719 27.5814C17.2813 27.7907 17.5652 27.9084 17.8613 27.9084C18.1574 27.9084 18.4413 27.7907 18.6507 27.5814C18.86 27.372 18.9776 27.0881 18.9776 26.792V22.3267C18.9776 22.0306 18.86 21.7467 18.6507 21.5373C18.4413 21.3279 18.1574 21.2103 17.8613 21.2103C17.5652 21.2103 17.2813 21.3279 17.0719 21.5373C16.8626 21.7467 16.745 22.0306 16.745 22.3267V26.792Z" fill="#848484"/>
</svg>
