<svg width="261" height="233" viewBox="0 0 261 233" fill="none" xmlns="http://www.w3.org/2000/svg">
<g clip-path="url(#clip0_1513_4028)">
<path d="M244.015 126.945L57.3768 206.792C56.1021 207.335 54.6639 207.351 53.3776 206.836C52.0913 206.32 51.062 205.315 50.5155 204.042L1.28023 88.9572C0.881946 88.0234 0.870344 86.9697 1.24797 86.0273C1.62559 85.085 2.3616 84.3309 3.29453 83.9305L192.442 3.01011C193.392 2.60496 194.464 2.59319 195.422 2.97738C196.381 3.36157 197.148 4.11033 197.555 5.05941L246.765 120.083C247.308 121.358 247.324 122.796 246.809 124.083C246.293 125.369 245.288 126.398 244.015 126.945Z" fill="#F2F2F2"/>
<path d="M235.385 123.459L61.4431 197.874C58.8933 198.965 55.9878 197.91 54.9663 195.522L12.0917 95.305C11.3341 93.5342 12.2549 91.4359 14.1444 90.6275L190.425 15.2119C192.345 14.3901 194.535 15.1861 195.305 16.986L238.157 117.15C239.178 119.538 237.935 122.368 235.385 123.459Z" fill="white"/>
<path d="M197.719 5.62661L1.46907 89.5855L0.422399 87.139C-0.122626 85.8599 -0.138034 84.4169 0.379554 83.1264C0.897142 81.836 1.90546 80.8036 3.18329 80.2557L189.787 0.42344C191.066 -0.122385 192.509 -0.138691 193.8 0.378098C195.09 0.894887 196.123 1.90257 196.672 3.18007L197.719 5.62661Z" fill="#DA3435"/>
<path d="M8.68232 83.566C9.4317 83.566 10.0392 82.9586 10.0392 82.2092C10.0392 81.4598 9.4317 80.8523 8.68232 80.8523C7.93293 80.8523 7.32544 81.4598 7.32544 82.2092C7.32544 82.9586 7.93293 83.566 8.68232 83.566Z" fill="white"/>
<path d="M13.4174 81.5402C14.1668 81.5402 14.7743 80.9327 14.7743 80.1833C14.7743 79.4339 14.1668 78.8264 13.4174 78.8264C12.668 78.8264 12.0605 79.4339 12.0605 80.1833C12.0605 80.9327 12.668 81.5402 13.4174 81.5402Z" fill="white"/>
<path d="M18.1533 79.5148C18.9026 79.5148 19.5101 78.9073 19.5101 78.1579C19.5101 77.4085 18.9026 76.801 18.1533 76.801C17.4039 76.801 16.7964 77.4085 16.7964 78.1579C16.7964 78.9073 17.4039 79.5148 18.1533 79.5148Z" fill="white"/>
<path d="M96.2635 115.235L73.0665 125.16C71.7919 125.703 70.3536 125.719 69.0673 125.203C67.781 124.688 66.7517 123.683 66.2052 122.41L53.4001 92.4787C52.8565 91.2041 52.8407 89.7658 53.3562 88.4795C53.8717 87.1932 54.8763 86.1639 56.1497 85.6174L79.3467 75.6933C80.6214 75.1498 82.0596 75.134 83.3459 75.6494C84.6322 76.1649 85.6615 77.1695 86.208 78.4429L99.0132 108.374C99.5567 109.649 99.5725 111.087 99.0571 112.373C98.5416 113.66 97.5369 114.689 96.2635 115.235Z" fill="#F2F2F2"/>
<path d="M135.515 98.443L112.318 108.367C111.043 108.911 109.605 108.926 108.319 108.411C107.033 107.896 106.003 106.891 105.457 105.617L92.6516 75.6863C92.108 74.4116 92.0922 72.9733 92.6077 71.6871C93.1232 70.4008 94.1278 69.3715 95.4012 68.8249L118.598 58.9009C119.873 58.3573 121.311 58.3415 122.597 58.8569C123.884 59.3724 124.913 60.3771 125.46 61.6505L138.265 91.5817C138.808 92.8564 138.824 94.2946 138.309 95.5809C137.793 96.8672 136.788 97.8965 135.515 98.443Z" fill="#F2F2F2"/>
<path d="M174.766 81.6505L151.568 91.5746C150.294 92.1182 148.856 92.134 147.569 91.6186C146.283 91.1031 145.254 90.0984 144.707 88.825L131.902 58.8938C131.358 57.6191 131.343 56.1809 131.858 54.8946C132.374 53.6083 133.378 52.579 134.652 52.0325L157.849 42.1084C159.123 41.5648 160.562 41.549 161.848 42.0645C163.134 42.5799 164.164 43.5846 164.71 44.858L177.515 74.7892C178.059 76.0639 178.075 77.5021 177.559 78.7884C177.044 80.0747 176.039 81.104 174.766 81.6505Z" fill="#F2F2F2"/>
<path d="M116.075 161.542L92.8783 171.466C91.6036 172.01 90.1654 172.026 88.8791 171.51C87.5928 170.995 86.5635 169.99 86.017 168.717L73.2119 138.786C72.6683 137.511 72.6525 136.073 73.168 134.786C73.6835 133.5 74.6881 132.471 75.9615 131.924L99.1585 122C100.433 121.457 101.871 121.441 103.158 121.956C104.444 122.472 105.473 123.476 106.02 124.75L118.825 154.681C119.369 155.956 119.384 157.394 118.869 158.68C118.353 159.967 117.349 160.996 116.075 161.542Z" fill="#F2F2F2"/>
<path d="M155.326 144.75L132.129 154.674C130.854 155.218 129.416 155.234 128.129 154.718C126.843 154.203 125.814 153.198 125.267 151.925L112.462 121.994C111.919 120.719 111.903 119.281 112.418 117.994C112.934 116.708 113.938 115.679 115.212 115.132L138.409 105.208C139.683 104.665 141.122 104.649 142.408 105.164C143.694 105.68 144.724 106.684 145.27 107.958L158.075 137.889C158.619 139.164 158.635 140.602 158.119 141.888C157.604 143.175 156.599 144.204 155.326 144.75Z" fill="#F2F2F2"/>
<path d="M194.577 127.958L171.38 137.882C170.105 138.426 168.667 138.441 167.381 137.926C166.094 137.41 165.065 136.406 164.518 135.132L151.713 105.201C151.17 103.927 151.154 102.488 151.669 101.202C152.185 99.9157 153.19 98.8864 154.463 98.3399L177.66 88.4158C178.935 87.8722 180.373 87.8564 181.659 88.3718C182.946 88.8873 183.975 89.8919 184.521 91.1654L197.326 121.097C197.87 122.371 197.886 123.809 197.37 125.096C196.855 126.382 195.85 127.411 194.577 127.958Z" fill="#F2F2F2"/>
<path d="M255.554 233H52.5527C51.167 232.999 49.8384 232.447 48.8585 231.468C47.8787 230.488 47.3275 229.159 47.3259 227.773V102.599C47.3271 101.584 47.7308 100.611 48.4487 99.8926C49.1665 99.1748 50.1398 98.7709 51.1551 98.7698H256.885C257.918 98.7709 258.908 99.1817 259.638 99.912C260.368 100.642 260.779 101.632 260.78 102.665V227.773C260.779 229.159 260.228 230.488 259.248 231.468C258.268 232.447 256.939 232.999 255.554 233Z" fill="#E6E6E6"/>
<path d="M248.99 226.401H59.7986C57.0253 226.401 54.769 224.288 54.769 221.691V112.687C54.769 110.761 56.441 109.194 58.4961 109.194H250.231C252.32 109.194 254.02 110.787 254.02 112.745V221.691C254.02 224.288 251.764 226.401 248.99 226.401Z" fill="white"/>
<path d="M260.708 103.25H47.2529V100.589C47.2549 99.1986 47.8084 97.8658 48.7918 96.883C49.7752 95.9002 51.1084 95.3476 52.4987 95.3464H255.462C256.853 95.3476 258.186 95.9002 259.169 96.883C260.153 97.8658 260.706 99.1986 260.708 100.589V103.25Z" fill="#DA3435"/>
<path d="M56.7861 100.663C57.5355 100.663 58.1429 100.056 58.1429 99.3063C58.1429 98.557 57.5355 97.9495 56.7861 97.9495C56.0367 97.9495 55.4292 98.557 55.4292 99.3063C55.4292 100.056 56.0367 100.663 56.7861 100.663Z" fill="white"/>
<path d="M61.9367 100.663C62.6861 100.663 63.2936 100.056 63.2936 99.3063C63.2936 98.557 62.6861 97.9495 61.9367 97.9495C61.1873 97.9495 60.5798 98.557 60.5798 99.3063C60.5798 100.056 61.1873 100.663 61.9367 100.663Z" fill="white"/>
<path d="M67.0871 100.663C67.8365 100.663 68.444 100.056 68.444 99.3063C68.444 98.557 67.8365 97.9495 67.0871 97.9495C66.3377 97.9495 65.7302 98.557 65.7302 99.3063C65.7302 100.056 66.3377 100.663 67.0871 100.663Z" fill="white"/>
<path d="M238.749 139.794H149.111C145.522 139.794 142.613 142.703 142.613 146.292V146.292C142.613 149.881 145.522 152.79 149.111 152.79H238.749C242.338 152.79 245.248 149.881 245.248 146.292C245.248 142.703 242.338 139.794 238.749 139.794Z" fill="#E6E6E6"/>
<path d="M238.749 161.3H149.111C145.522 161.3 142.613 164.209 142.613 167.798V167.798C142.613 171.387 145.522 174.296 149.111 174.296H238.749C242.338 174.296 245.248 171.387 245.248 167.798C245.248 164.209 242.338 161.3 238.749 161.3Z" fill="#E6E6E6"/>
<path d="M238.749 182.806H149.111C145.522 182.806 142.613 185.715 142.613 189.304V189.304C142.613 192.893 145.522 195.802 149.111 195.802H238.749C242.338 195.802 245.248 192.893 245.248 189.304C245.248 185.715 242.338 182.806 238.749 182.806Z" fill="#E6E6E6"/>
<path d="M134.182 167.798C134.182 174.689 132.139 181.426 128.31 187.156C124.481 192.887 119.039 197.353 112.672 199.99C106.305 202.628 99.2987 203.318 92.5394 201.973C85.7801 200.629 79.5713 197.31 74.6981 192.437C69.8249 187.564 66.5062 181.355 65.1617 174.595C63.8172 167.836 64.5073 160.83 67.1446 154.463C69.782 148.096 74.2482 142.654 79.9784 138.825C85.7087 134.996 92.4456 132.952 99.3373 132.952C108.578 132.955 117.439 136.627 123.973 143.162C130.507 149.696 134.18 158.557 134.182 167.798Z" fill="white"/>
<path d="M115.443 173.759C115.062 196.045 81.9132 196.041 81.5359 173.759C81.9165 151.474 115.065 151.478 115.443 173.759Z" fill="#DA3435"/>
<path d="M97.8157 180.678L97.7981 180.044C102.165 180.627 103.105 175.215 98.7014 177.239L99.7066 169.893L100.334 169.979L99.4793 176.227C104.116 175.537 102.401 181.311 97.8157 180.678Z" fill="#2F2E41"/>
<path d="M106.851 170.517H103.439V171.15H106.851V170.517Z" fill="#2F2E41"/>
<path d="M96.0801 170.517H92.668V171.15H96.0801V170.517Z" fill="#2F2E41"/>
<path d="M103.984 197.463C104.65 192.974 99.3943 193.861 96.613 193.817C96.1645 193.818 95.7221 193.92 95.3178 194.114C94.9135 194.308 94.5576 194.589 94.2759 194.938C93.9943 195.287 93.7941 195.695 93.6899 196.131C93.5856 196.567 93.58 197.021 93.6734 197.46C91.5207 198.125 89.5272 199.225 87.8162 200.691C95.0268 203.205 102.862 203.292 110.127 200.938C108.356 199.348 106.26 198.162 103.984 197.463Z" fill="#2F2E41"/>
<path d="M90.5181 165.742C93.66 163.926 97.4701 165.319 100.716 166.08C106.873 167.973 115.508 165.603 116.257 158.268C117.036 151.446 107.704 147.644 104.721 154.434L105.59 154.32C95.9166 139.944 79.0903 140.49 79.2009 160.254C79.1651 160.865 80.1155 160.863 80.1511 160.254C79.7949 148.607 87.503 140.645 98.3989 148.13C100.892 149.95 102.91 152.359 104.769 154.8C105.904 156.072 106.151 150.595 111.582 152.03C117.559 154.345 115.609 162.904 110.266 164.783C103.665 168.155 96.5158 161.616 90.0384 164.921C89.9341 164.986 89.8595 165.09 89.8302 165.21C89.801 165.33 89.8194 165.456 89.8816 165.563C89.9439 165.669 90.045 165.747 90.1637 165.781C90.2825 165.814 90.4095 165.8 90.5181 165.742Z" fill="#2F2E41"/>
<path d="M99.3378 203.593C90.3393 203.585 81.6744 200.186 75.0711 194.073C68.4678 187.96 64.4115 179.583 63.7111 170.612C63.0107 161.64 65.7177 152.735 71.2922 145.671C76.8668 138.607 84.8992 133.904 93.7874 132.5C102.676 131.096 111.767 133.094 119.247 138.096C126.727 143.097 132.048 150.735 134.147 159.485C136.246 168.235 134.969 177.455 130.572 185.306C126.174 193.157 118.979 199.061 110.421 201.842C106.842 203.006 103.101 203.597 99.3378 203.593ZM99.3378 133.903C92.6327 133.902 86.0778 135.889 80.5023 139.614C74.9268 143.338 70.5811 148.633 68.0147 154.827C65.4483 161.022 64.7766 167.838 66.0845 174.415C67.3924 180.991 70.6211 187.032 75.3623 191.773C80.1035 196.514 86.1443 199.743 92.7207 201.051C99.297 202.359 106.113 201.687 112.308 199.121C118.503 196.554 123.797 192.208 127.521 186.633C131.246 181.057 133.234 174.503 133.233 167.798C133.222 158.811 129.648 150.196 123.294 143.842C116.939 137.487 108.324 133.913 99.3378 133.903Z" fill="#3F3D56"/>
</g>
<defs>
<clipPath id="clip0_1513_4028">
<rect width="260.781" height="233" fill="white"/>
</clipPath>
</defs>
</svg>
