<svg width="31" height="31" viewBox="0 0 31 31" fill="none" xmlns="http://www.w3.org/2000/svg">
<path opacity="0.6" d="M19.3749 2.58325H18.0833C14.4304 2.58325 12.6027 2.58325 11.4686 3.71863C10.3333 4.85271 10.3333 6.68042 10.3333 10.3333V20.6666C10.3333 24.3194 10.3333 26.1471 11.4686 27.2812C12.6027 28.4166 14.4304 28.4166 18.0833 28.4166H19.3749C23.0278 28.4166 24.8555 28.4166 25.9895 27.2812C27.1249 26.1471 27.1249 24.3194 27.1249 20.6666V10.3333C27.1249 6.68042 27.1249 4.85271 25.9895 3.71863C24.8555 2.58325 23.0278 2.58325 19.3749 2.58325Z" fill="white"/>
<path opacity="0.4" d="M10.3333 10.3333C10.3333 8.34675 10.3333 6.90137 10.5155 5.8125H10.3333C7.28887 5.8125 5.766 5.8125 4.8205 6.758C3.875 7.7035 3.875 9.22637 3.875 12.2708V18.7292C3.875 21.7736 3.875 23.2952 4.8205 24.242C5.766 25.1888 7.28887 25.1875 10.3333 25.1875H10.5155C10.3333 24.0986 10.3333 22.6532 10.3333 20.6667V10.3333Z" fill="white"/>
<path fill-rule="evenodd" clip-rule="evenodd" d="M5.77379 14.8152C5.59238 14.9969 5.49048 15.2431 5.49048 15.4998C5.49048 15.7566 5.59238 16.0028 5.77379 16.1844L8.35713 18.7677C8.54077 18.9389 8.78366 19.032 9.03463 19.0276C9.28561 19.0232 9.52506 18.9215 9.70255 18.744C9.88005 18.5665 9.98172 18.3271 9.98614 18.0761C9.99057 17.8251 9.89741 17.5822 9.72629 17.3986L8.79629 16.4686H18.0834C18.3403 16.4686 18.5867 16.3665 18.7684 16.1848C18.9501 16.0032 19.0521 15.7568 19.0521 15.4998C19.0521 15.2429 18.9501 14.9965 18.7684 14.8148C18.5867 14.6331 18.3403 14.5311 18.0834 14.5311H8.79629L9.72629 13.6011C9.82147 13.5124 9.89781 13.4054 9.95076 13.2866C10.0037 13.1678 10.0322 13.0395 10.0345 12.9094C10.0368 12.7793 10.0128 12.6501 9.96412 12.5295C9.91539 12.4089 9.84288 12.2993 9.75088 12.2073C9.65889 12.1153 9.54932 12.0428 9.42869 11.9941C9.30806 11.9454 9.17886 11.9214 9.04878 11.9237C8.91871 11.926 8.79043 11.9545 8.6716 12.0074C8.55277 12.0604 8.44581 12.1367 8.35713 12.2319L5.77379 14.8152Z" fill="white"/>
</svg>
