<svg width="391" height="349" viewBox="0 0 391 349" fill="none" xmlns="http://www.w3.org/2000/svg">
<g clip-path="url(#clip0_2359_102)">
<path d="M365.426 189.905L86.1919 309.366C84.2848 310.179 82.133 310.203 80.2085 309.431C78.2841 308.66 76.7441 307.157 75.9265 305.252L2.26449 133.071C1.66861 131.674 1.65125 130.097 2.21622 128.687C2.78119 127.277 3.88236 126.149 5.27813 125.55L288.266 4.48331C289.687 3.87716 291.291 3.85955 292.725 4.43434C294.159 5.00913 295.307 6.12938 295.916 7.54932L369.539 179.639C370.353 181.546 370.376 183.698 369.605 185.623C368.834 187.547 367.331 189.087 365.426 189.905Z" fill="#F2F2F2"/>
<path d="M352.514 184.725L92.2756 296.059C88.4608 297.691 84.1139 296.113 82.5856 292.54L18.4398 142.603C17.3064 139.954 18.6841 136.814 21.5109 135.605L285.248 22.7737C288.122 21.5443 291.397 22.7351 292.549 25.428L356.661 175.286C358.189 178.859 356.329 183.093 352.514 184.725Z" fill="white"/>
<path d="M296.152 8.41517L2.53837 134.028L0.972424 130.368C0.156998 128.454 0.133947 126.295 0.908322 124.364C1.6827 122.434 3.19126 120.889 5.10306 120.069L284.285 0.630596C286.198 -0.186026 288.357 -0.210421 290.289 0.562759C292.22 1.33594 293.765 2.84355 294.586 4.75485L296.152 8.41517Z" fill="#DA3435"/>
<path d="M13.3308 125.021C14.452 125.021 15.3609 124.112 15.3609 122.991C15.3609 121.87 14.452 120.961 13.3308 120.961C12.2097 120.961 11.3008 121.87 11.3008 122.991C11.3008 124.112 12.2097 125.021 13.3308 125.021Z" fill="white"/>
<path d="M20.4207 121.99C21.5418 121.99 22.4507 121.081 22.4507 119.96C22.4507 118.839 21.5418 117.93 20.4207 117.93C19.2995 117.93 18.3906 118.839 18.3906 119.96C18.3906 121.081 19.2995 121.99 20.4207 121.99Z" fill="white"/>
<path d="M27.5066 118.959C28.6278 118.959 29.5367 118.05 29.5367 116.928C29.5367 115.807 28.6278 114.898 27.5066 114.898C26.3854 114.898 25.4766 115.807 25.4766 116.928C25.4766 118.05 26.3854 118.959 27.5066 118.959Z" fill="white"/>
<path d="M144.358 172.42L109.652 187.268C107.745 188.081 105.594 188.105 103.669 187.334C101.745 186.562 100.205 185.059 99.387 183.154L80.2291 138.373C79.4158 136.466 79.3922 134.314 80.1634 132.39C80.9346 130.466 82.4376 128.926 84.3428 128.108L119.048 113.26C120.955 112.447 123.107 112.423 125.032 113.195C126.956 113.966 128.496 115.469 129.314 117.374L148.472 162.155C149.285 164.062 149.309 166.214 148.537 168.138C147.766 170.063 146.263 171.603 144.358 172.42Z" fill="#F2F2F2"/>
<path d="M203.085 147.287L168.379 162.135C166.472 162.948 164.32 162.972 162.396 162.201C160.471 161.43 158.931 159.926 158.114 158.021L138.956 113.241C138.142 111.333 138.119 109.182 138.89 107.257C139.661 105.333 141.164 103.793 143.069 102.975L177.775 88.1275C179.682 87.3142 181.834 87.2906 183.758 88.0618C185.683 88.833 187.223 90.3361 188.04 92.2412L207.198 137.022C208.012 138.929 208.035 141.081 207.264 143.005C206.493 144.93 204.99 146.47 203.085 147.287Z" fill="#F2F2F2"/>
<path d="M261.815 122.147L227.109 136.994C225.202 137.808 223.051 137.831 221.126 137.06C219.202 136.289 217.662 134.786 216.844 132.881L197.686 88.0999C196.873 86.1929 196.849 84.0411 197.62 82.1166C198.392 80.1922 199.895 78.6522 201.8 77.8346L236.506 62.9869C238.413 62.1736 240.564 62.15 242.489 62.9212C244.413 63.6924 245.953 65.1954 246.771 67.1006L265.929 111.881C266.742 113.788 266.766 115.94 265.995 117.865C265.223 119.789 263.72 121.329 261.815 122.147Z" fill="#F2F2F2"/>
<path d="M174.006 241.686L139.301 256.533C137.394 257.347 135.242 257.37 133.318 256.599C131.393 255.828 129.853 254.325 129.035 252.42L109.878 207.639C109.064 205.732 109.041 203.58 109.812 201.656C110.583 199.731 112.086 198.191 113.991 197.374L148.697 182.526C150.604 181.713 152.756 181.689 154.68 182.46C156.605 183.231 158.145 184.735 158.962 186.64L178.12 231.42C178.933 233.328 178.957 235.479 178.186 237.404C177.415 239.328 175.912 240.868 174.006 241.686Z" fill="#F2F2F2"/>
<path d="M232.733 216.553L198.027 231.401C196.12 232.214 193.969 232.238 192.044 231.466C190.12 230.695 188.58 229.192 187.762 227.287L168.604 182.506C167.791 180.599 167.767 178.447 168.538 176.523C169.31 174.598 170.813 173.058 172.718 172.241L207.423 157.393C209.33 156.58 211.482 156.556 213.407 157.327C215.331 158.099 216.871 159.602 217.689 161.507L236.847 206.288C237.66 208.195 237.684 210.347 236.912 212.271C236.141 214.195 234.638 215.735 232.733 216.553Z" fill="#F2F2F2"/>
<path d="M291.46 191.452L256.754 206.299C254.847 207.112 252.695 207.136 250.771 206.365C248.846 205.594 247.306 204.091 246.489 202.185L227.331 157.405C226.517 155.498 226.494 153.346 227.265 151.421C228.036 149.497 229.539 147.957 231.444 147.139L266.15 132.292C268.057 131.478 270.209 131.455 272.133 132.226C274.058 132.997 275.598 134.5 276.415 136.405L295.573 181.186C296.387 183.093 296.41 185.245 295.639 187.169C294.868 189.094 293.365 190.634 291.46 191.452Z" fill="#F2F2F2"/>
<path d="M382.679 348.607H78.9644C76.8912 348.604 74.9035 347.78 73.4375 346.314C71.9715 344.848 71.1469 342.86 71.1445 340.787V153.51C71.1462 151.991 71.7503 150.535 72.8243 149.461C73.8983 148.387 75.3545 147.783 76.8734 147.781H384.671C386.216 147.783 387.697 148.398 388.79 149.49C389.882 150.583 390.497 152.064 390.499 153.609V340.787C390.496 342.86 389.672 344.848 388.206 346.314C386.74 347.78 384.752 348.604 382.679 348.607Z" fill="#E6E6E6"/>
<path d="M372.864 338.73H89.8101C85.6608 338.73 82.2852 335.569 82.2852 331.684V168.601C82.2852 165.719 84.7866 163.375 87.8613 163.375H374.72C377.846 163.375 380.389 165.758 380.389 168.687V331.684C380.389 335.569 377.013 338.73 372.864 338.73Z" fill="white"/>
<path d="M390.39 154.489H71.0352V150.508C71.0382 148.427 71.8662 146.433 73.3375 144.963C74.8088 143.493 76.8034 142.666 78.8835 142.664H382.542C384.622 142.666 386.617 143.493 388.088 144.963C389.559 146.433 390.387 148.427 390.39 150.508V154.489Z" fill="#DA3435"/>
<path d="M85.3035 150.599C86.4247 150.599 87.3335 149.69 87.3335 148.569C87.3335 147.448 86.4247 146.539 85.3035 146.539C84.1823 146.539 83.2734 147.448 83.2734 148.569C83.2734 149.69 84.1823 150.599 85.3035 150.599Z" fill="white"/>
<path d="M93.0105 150.599C94.1317 150.599 95.0406 149.69 95.0406 148.569C95.0406 147.448 94.1317 146.539 93.0105 146.539C91.8894 146.539 90.9805 147.448 90.9805 148.569C90.9805 149.69 91.8894 150.599 93.0105 150.599Z" fill="white"/>
<path d="M100.721 150.599C101.843 150.599 102.752 149.69 102.752 148.569C102.752 147.448 101.843 146.539 100.721 146.539C99.6003 146.539 98.6914 147.448 98.6914 148.569C98.6914 149.69 99.6003 150.599 100.721 150.599Z" fill="white"/>
<path d="M357.547 209.156H223.437C218.068 209.156 213.715 213.509 213.715 218.878V218.878C213.715 224.248 218.068 228.601 223.437 228.601H357.547C362.916 228.601 367.269 224.248 367.269 218.878C367.269 213.509 362.916 209.156 357.547 209.156Z" fill="#E6E6E6"/>
<path d="M357.547 241.344H223.437C218.068 241.344 213.715 245.696 213.715 251.066V251.066C213.715 256.435 218.068 260.788 223.437 260.788H357.547C362.916 260.788 367.269 256.435 367.269 251.066C367.269 245.696 362.916 241.344 357.547 241.344Z" fill="#E6E6E6"/>
<path d="M357.547 273.492H223.437C218.068 273.492 213.715 277.845 213.715 283.214V283.214C213.715 288.584 218.068 292.936 223.437 292.936H357.547C362.916 292.936 367.269 288.584 367.269 283.214C367.269 277.845 362.916 273.492 357.547 273.492Z" fill="#E6E6E6"/>
<path d="M201.093 251.054C201.093 261.365 198.036 271.445 192.307 280.018C186.579 288.591 178.437 295.273 168.911 299.219C159.385 303.165 148.903 304.197 138.79 302.185C128.677 300.174 119.388 295.209 112.097 287.918C104.807 280.627 99.8414 271.338 97.8299 261.225C95.8183 251.112 96.8507 240.63 100.797 231.104C104.742 221.578 111.424 213.436 119.997 207.708C128.571 201.979 138.65 198.922 148.961 198.922C162.786 198.926 176.043 204.42 185.819 214.196C195.595 223.972 201.089 237.229 201.093 251.054Z" fill="white"/>
<path d="M173.057 259.95C172.488 293.291 122.893 293.286 122.328 259.949C122.898 226.608 172.492 226.613 173.057 259.95Z" fill="#DA3435"/>
<path d="M146.687 270.3L146.66 269.352C153.193 270.224 154.6 262.128 148.012 265.155L149.516 254.164L150.455 254.293L149.175 263.642C156.112 262.609 153.546 271.247 146.687 270.3Z" fill="#2F2E41"/>
<path d="M160.203 255.117H155.098V256.065H160.203V255.117Z" fill="#2F2E41"/>
<path d="M144.093 255.117H138.988V256.065H144.093V255.117Z" fill="#2F2E41"/>
<path d="M155.924 295.411C156.919 288.695 149.057 290.022 144.895 289.956C144.225 289.958 143.563 290.11 142.958 290.4C142.353 290.69 141.82 291.112 141.399 291.634C140.978 292.156 140.678 292.766 140.522 293.418C140.366 294.071 140.358 294.75 140.497 295.406C137.277 296.402 134.294 298.047 131.734 300.24C142.522 304.002 154.245 304.132 165.114 300.61C162.464 298.231 159.328 296.456 155.924 295.411Z" fill="#2F2E41"/>
<path d="M135.773 247.961C140.474 245.244 146.174 247.328 151.03 248.468C160.242 251.299 173.161 247.753 174.281 236.779C175.447 226.573 161.486 220.885 157.023 231.043L158.322 230.873C143.85 209.365 118.676 210.181 118.841 239.75C118.788 240.664 120.21 240.661 120.263 239.75C119.73 222.325 131.262 210.414 147.564 221.612C151.294 224.334 154.313 227.939 157.095 231.591C158.792 233.493 159.161 225.299 167.287 227.446C176.23 230.91 173.312 243.715 165.319 246.526C155.443 251.572 144.747 241.789 135.055 246.732C134.899 246.831 134.788 246.986 134.744 247.165C134.7 247.344 134.728 247.534 134.821 247.693C134.914 247.852 135.065 247.969 135.243 248.019C135.421 248.069 135.611 248.048 135.773 247.961Z" fill="#2F2E41"/>
<path d="M148.957 304.589C135.494 304.578 122.53 299.492 112.651 290.346C102.771 281.2 96.7025 268.667 95.6546 255.245C94.6067 241.823 98.6567 228.499 106.997 217.931C115.337 207.363 127.355 200.326 140.652 198.226C153.95 196.125 167.551 199.114 178.743 206.597C189.935 214.08 197.895 225.507 201.035 238.598C204.175 251.69 202.265 265.484 195.686 277.229C189.107 288.975 178.342 297.809 165.538 301.97C160.184 303.711 154.587 304.595 148.957 304.589ZM148.957 200.324C138.925 200.322 129.118 203.296 120.776 208.868C112.435 214.441 105.933 222.362 102.093 231.63C98.2537 240.897 97.2488 251.096 99.2055 260.935C101.162 270.774 105.993 279.811 113.086 286.905C120.18 293.998 129.217 298.829 139.056 300.786C148.895 302.742 159.094 301.737 168.362 297.898C177.629 294.058 185.55 287.556 191.123 279.215C196.695 270.873 199.669 261.066 199.667 251.035C199.652 237.59 194.304 224.7 184.798 215.194C175.291 205.687 162.401 200.339 148.957 200.324Z" fill="#3F3D56"/>
<path d="M342.59 346.047C366.511 346.047 385.903 326.655 385.903 302.735C385.903 278.814 366.511 259.422 342.59 259.422C318.669 259.422 299.277 278.814 299.277 302.735C299.277 326.655 318.669 346.047 342.59 346.047Z" fill="#00D00A"/>
<path d="M336.32 323.206L318.332 305.218L322.829 300.721L336.32 314.212L365.274 285.258L369.771 289.755L336.32 323.206Z" fill="white"/>
</g>
<defs>
<clipPath id="clip0_2359_102">
<rect width="390.16" height="348.597" fill="white" transform="translate(0.34375)"/>
</clipPath>
</defs>
</svg>
