<svg width="40" height="40" viewBox="0 0 40 40" fill="none" xmlns="http://www.w3.org/2000/svg">
<path d="M29.9999 5C31.768 5 33.4637 5.70238 34.714 6.95262C35.9642 8.20286 36.6666 9.89856 36.6666 11.6667V25C36.6666 26.7681 35.9642 28.4638 34.714 29.714C33.4637 30.9643 31.768 31.6667 29.9999 31.6667H22.1266L14.1899 36.4283C13.9509 36.5718 13.6797 36.653 13.4012 36.6645C13.1227 36.676 12.8457 36.6175 12.5957 36.4943C12.3456 36.3711 12.1305 36.1871 11.9699 35.9593C11.8093 35.7314 11.7085 35.4669 11.6766 35.19L11.6666 35V31.6667H9.99992C8.28951 31.6667 6.64454 31.0093 5.40523 29.8305C4.16593 28.6516 3.42711 27.0416 3.34159 25.3333L3.33325 25V11.6667C3.33325 9.89856 4.03563 8.20286 5.28587 6.95262C6.53612 5.70238 8.23181 5 9.99992 5H29.9999ZM19.9999 21.6667C19.5579 21.6667 19.134 21.8423 18.8214 22.1548C18.5088 22.4674 18.3333 22.8913 18.3333 23.3333V23.35C18.3333 23.792 18.5088 24.216 18.8214 24.5285C19.134 24.8411 19.5579 25.0167 19.9999 25.0167C20.4419 25.0167 20.8659 24.8411 21.1784 24.5285C21.491 24.216 21.6666 23.792 21.6666 23.35V23.3333C21.6666 22.8913 21.491 22.4674 21.1784 22.1548C20.8659 21.8423 20.4419 21.6667 19.9999 21.6667ZM19.9999 11.6667C19.5579 11.6667 19.134 11.8423 18.8214 12.1548C18.5088 12.4674 18.3333 12.8913 18.3333 13.3333V18.3333C18.3333 18.7754 18.5088 19.1993 18.8214 19.5118C19.134 19.8244 19.5579 20 19.9999 20C20.4419 20 20.8659 19.8244 21.1784 19.5118C21.491 19.1993 21.6666 18.7754 21.6666 18.3333V13.3333C21.6666 12.8913 21.491 12.4674 21.1784 12.1548C20.8659 11.8423 20.4419 11.6667 19.9999 11.6667Z" fill="#DA3435"/>
</svg>
