<svg width="4841" height="4047" viewBox="0 0 4841 4047" fill="none" xmlns="http://www.w3.org/2000/svg">
<g clip-path="url(#clip0_1861_99)">
<path d="M2361.73 4060.11C3417.41 4060.11 4273.21 4016.35 4273.21 3962.37C4273.21 3908.38 3417.41 3864.62 2361.73 3864.62C1306.05 3864.62 450.252 3908.38 450.252 3962.37C450.252 4016.35 1306.05 4060.11 2361.73 4060.11Z" fill="#1C1C1C" fill-opacity="0.19"/>
<path d="M3390.08 939.163H3368.37V344.294C3368.37 252.982 3332.09 165.409 3267.52 100.842C3202.96 36.2739 3115.38 0.000100816 3024.07 6.17513e-10H1763.76C1672.45 -0.000172826 1584.88 36.2733 1520.31 100.841C1455.74 165.408 1419.47 252.981 1419.47 344.293V3607.79C1419.47 3699.1 1455.74 3786.68 1520.31 3851.24C1584.88 3915.81 1672.45 3952.08 1763.76 3952.08H3024.07C3115.38 3952.08 3202.95 3915.81 3267.52 3851.24C3332.09 3786.68 3368.36 3699.1 3368.36 3607.79V1362.6H3390.08L3390.08 939.163Z" fill="#3F3D56"/>
<path d="M3295.17 346.615V3605.31C3295.17 3673.5 3268.08 3738.9 3219.86 3787.12C3171.64 3835.34 3106.24 3862.43 3038.05 3862.44H1771.69C1703.5 3862.43 1638.1 3835.34 1589.88 3787.12C1541.66 3738.9 1514.57 3673.5 1514.56 3605.31V346.615C1514.57 278.421 1541.66 213.021 1589.88 164.8C1638.1 116.58 1703.5 89.4896 1771.69 89.4883H1925.32C1917.77 108.038 1914.89 128.159 1916.94 148.08C1919 168.002 1925.91 187.114 1937.08 203.735C1948.26 220.357 1963.34 233.978 1981.01 243.401C1998.69 252.824 2018.4 257.76 2038.43 257.775H2760.45C2780.47 257.76 2800.19 252.824 2817.86 243.401C2835.53 233.978 2850.62 220.356 2861.79 203.735C2872.96 187.114 2879.88 168.002 2881.93 148.08C2883.98 128.159 2881.11 108.038 2873.56 89.4883H3038.05C3106.24 89.4895 3171.64 116.58 3219.86 164.8C3268.08 213.021 3295.17 278.421 3295.17 346.615Z" fill="white"/>
<path d="M2887.17 1751.77C2878.75 1756.17 2870.19 1760.33 2861.48 1764.26C2853.55 1767.84 2845.5 1771.21 2837.32 1774.36C2834.33 1775.5 2831.29 1776.64 2828.25 1777.78C2804.2 1786.5 2779.51 1793.31 2754.39 1798.14C2741.96 1800.59 2729.36 1802.51 2716.6 1803.9C2706.06 1805.09 2695.42 1805.94 2684.67 1806.45C2677.01 1806.83 2669.35 1806.99 2661.64 1806.99C2631.11 1807.01 2600.63 1804.15 2570.63 1798.47C2562.81 1797.06 2555.15 1795.37 2547.5 1793.53C2510.46 1784.65 2474.61 1771.42 2440.68 1754.1C2437.64 1752.58 2434.6 1750.95 2431.56 1749.38C2427.05 1746.99 2422.65 1744.49 2418.26 1741.88C2420.37 1738.95 2422.65 1736.07 2424.99 1733.25C2450.4 1701.76 2482.16 1675.98 2518.2 1657.58C2554.24 1639.19 2593.75 1628.6 2634.16 1626.5C2674.57 1624.4 2714.97 1630.84 2752.72 1645.39C2790.48 1659.95 2824.74 1682.3 2853.28 1710.99C2863.18 1720.93 2872.37 1731.56 2880.76 1742.81C2882.98 1745.74 2885.1 1748.73 2887.17 1751.77Z" fill="#DA3435"/>
<path d="M2672.51 1513.28C2804.2 1513.28 2910.95 1406.53 2910.95 1274.84C2910.95 1143.15 2804.2 1036.39 2672.51 1036.39C2540.82 1036.39 2434.06 1143.15 2434.06 1274.84C2434.06 1406.53 2540.82 1513.28 2672.51 1513.28Z" fill="#2F2E41"/>
<path d="M2735.94 1513.59C2821.94 1466.58 2853.55 1358.75 2806.54 1272.75C2759.52 1186.74 2651.69 1155.14 2565.69 1202.15C2479.69 1249.16 2448.08 1356.99 2495.09 1442.99C2542.11 1529 2649.94 1560.6 2735.94 1513.59Z" fill="#A0616A"/>
<path d="M2837.35 1246.41C2796.79 1274.36 2748.66 1289.24 2699.41 1289.04C2716.98 1301.22 2736.98 1309.45 2758.03 1313.16C2692.55 1327.21 2624.87 1327.59 2559.23 1314.28C2544.64 1311.94 2530.56 1307.1 2517.61 1299.98C2511.16 1296.38 2505.54 1291.46 2501.11 1285.54C2496.68 1279.62 2493.55 1272.84 2491.92 1265.63C2487.56 1240.71 2506.98 1218.07 2527.15 1202.82C2558.05 1179.81 2593.67 1163.96 2631.44 1156.42C2669.21 1148.87 2708.18 1149.81 2745.54 1159.18C2769.94 1165.48 2794.38 1176.14 2810.22 1195.73C2826.07 1215.32 2830.76 1245.52 2815.67 1265.7L2837.35 1246.41Z" fill="#2F2E41"/>
<path d="M2661.59 829.625C2555.01 829.609 2451.34 864.443 2366.39 928.817C2281.44 993.192 2219.86 1083.58 2191.05 1186.19C2162.24 1288.81 2167.77 1398.04 2206.8 1497.22C2245.83 1596.4 2316.22 1680.1 2407.24 1735.57L2410.39 1737.42C2412.99 1738.99 2415.6 1740.51 2418.21 1741.98C2422.6 1744.58 2427 1747.08 2431.51 1749.47C2434.55 1751.05 2437.59 1752.67 2440.63 1754.2C2474.55 1771.51 2510.41 1784.74 2547.45 1793.62C2555.1 1795.47 2562.76 1797.15 2570.58 1798.56C2600.58 1804.24 2631.06 1807.1 2661.59 1807.09C2669.3 1807.09 2676.96 1806.92 2684.62 1806.54C2695.37 1806.05 2706.01 1805.2 2716.55 1803.99C2729.31 1802.58 2741.91 1800.66 2754.34 1798.24C2779.46 1793.4 2804.15 1786.59 2828.2 1777.87C2831.24 1776.73 2834.28 1775.59 2837.26 1774.45C2845.46 1771.3 2853.52 1767.93 2861.43 1764.35C2870.12 1760.44 2878.68 1756.28 2887.12 1751.86C2971.65 1707.59 3041.52 1639.73 3088.25 1556.53C3088.47 1556.1 3088.74 1555.66 3088.96 1555.23C3113.89 1510.49 3131.58 1462.08 3141.36 1411.81C3155.1 1341.04 3153.02 1268.11 3135.27 1198.23C3117.52 1128.36 3084.54 1063.28 3038.69 1007.64C2992.84 952.007 2935.26 907.197 2870.07 876.422C2804.88 845.646 2733.68 829.666 2661.59 829.625ZM3080.05 1548.87C3079.62 1549.63 3079.24 1550.39 3078.81 1551.1C3033.01 1633.08 2964.12 1699.77 2880.71 1742.9C2872.4 1747.24 2863.94 1751.32 2855.35 1755.12C2848.23 1758.32 2840.96 1761.36 2833.63 1764.19C2830.53 1765.38 2827.38 1766.58 2824.23 1767.66C2803.46 1775.25 2782.17 1781.35 2760.53 1785.91C2744.48 1789.33 2728.26 1791.88 2711.93 1793.57C2701.88 1794.65 2691.68 1795.41 2681.41 1795.79C2674.84 1796.06 2668.22 1796.23 2661.59 1796.23C2632.04 1796.26 2602.55 1793.52 2573.51 1788.03C2555.85 1784.77 2538.39 1780.49 2521.22 1775.21C2495.06 1767.13 2469.65 1756.83 2445.25 1744.42C2442.42 1742.95 2439.6 1741.49 2436.83 1739.97C2432.87 1737.85 2428.85 1735.68 2424.94 1733.34C2422 1731.71 2419.07 1729.98 2416.19 1728.24C2414.51 1727.26 2412.83 1726.23 2411.14 1725.2C2331.34 1676.19 2267.69 1604.83 2228.07 1519.98C2188.46 1435.12 2174.62 1340.5 2188.3 1247.86C2201.97 1155.21 2242.54 1068.62 2304.97 998.821C2367.41 929.023 2448.96 879.092 2539.51 855.222C2630.07 831.352 2725.64 834.594 2814.37 864.545C2903.1 894.496 2981.08 949.838 3038.64 1023.71C3096.21 1097.57 3130.82 1186.72 3138.18 1280.07C3145.54 1373.43 3125.33 1466.9 3080.05 1548.87Z" fill="#3F3D56"/>
<path d="M2551.75 1039.75C2549.19 1012.77 2516.14 996.162 2490.29 1004.31C2464.45 1012.46 2447.48 1038.48 2442.35 1065.09C2439.88 1076.3 2439.65 1087.88 2441.67 1099.18C2443.69 1110.48 2447.91 1121.26 2454.11 1130.92C2467.17 1149.72 2491.18 1161.46 2513.57 1156.68C2539.13 1151.24 2556.84 1126.28 2561.91 1100.64C2566.98 1075 2561.94 1048.56 2556.92 1022.92L2551.75 1039.75Z" fill="#2F2E41"/>
<path d="M2915.58 1078.25C2913.01 1051.27 2879.96 1034.66 2854.12 1042.81C2828.27 1050.96 2811.3 1076.98 2806.17 1103.59C2803.71 1114.8 2803.47 1126.38 2805.49 1137.68C2807.51 1148.98 2811.74 1159.76 2817.93 1169.42C2831 1188.22 2855 1199.96 2877.39 1195.18C2902.96 1189.74 2920.66 1164.78 2925.73 1139.14C2930.8 1113.5 2925.77 1087.06 2920.74 1061.42L2915.58 1078.25Z" fill="#2F2E41"/>
<path d="M1816.9 1513.71C1813.52 1513.7 1810.18 1512.99 1807.09 1511.62C1804 1510.25 1801.22 1508.26 1798.95 1505.75L1529.48 1211.79C1526.43 1208.46 1522.71 1205.8 1518.57 1203.98C1514.44 1202.16 1509.97 1201.22 1505.45 1201.22H81.5055C59.8964 1201.19 39.1792 1192.6 23.8992 1177.32C8.61919 1162.04 0.0242616 1141.32 0 1119.71V606.205C0.0242472 584.596 8.61919 563.878 23.8992 548.598C39.1792 533.318 59.8963 524.723 81.5055 524.699H1926.33C1947.94 524.723 1968.66 533.318 1983.94 548.598C1999.22 563.878 2007.81 584.596 2007.84 606.205V1119.71C2007.81 1141.32 1999.22 1162.04 1983.94 1177.32C1968.66 1192.6 1947.94 1201.19 1926.33 1201.22H1874.03C1865.38 1201.23 1857.09 1204.67 1850.98 1210.78C1844.87 1216.89 1841.43 1225.18 1841.42 1233.83V1489.23C1841.44 1494.16 1839.96 1498.98 1837.18 1503.05C1834.39 1507.12 1830.44 1510.25 1825.84 1512.02C1822.99 1513.13 1819.96 1513.7 1816.9 1513.71Z" fill="white"/>
<path d="M1816.9 1513.71C1813.52 1513.7 1810.18 1512.99 1807.09 1511.62C1804 1510.25 1801.22 1508.26 1798.95 1505.75L1529.48 1211.79C1526.43 1208.46 1522.71 1205.8 1518.57 1203.98C1514.44 1202.16 1509.97 1201.22 1505.45 1201.22H81.5055C59.8964 1201.19 39.1792 1192.6 23.8992 1177.32C8.61919 1162.04 0.0242616 1141.32 0 1119.71V606.205C0.0242472 584.596 8.61919 563.878 23.8992 548.598C39.1792 533.318 59.8963 524.723 81.5055 524.699H1926.33C1947.94 524.723 1968.66 533.318 1983.94 548.598C1999.22 563.878 2007.81 584.596 2007.84 606.205V1119.71C2007.81 1141.32 1999.22 1162.04 1983.94 1177.32C1968.66 1192.6 1947.94 1201.19 1926.33 1201.22H1874.03C1865.38 1201.23 1857.09 1204.67 1850.98 1210.78C1844.87 1216.89 1841.43 1225.18 1841.42 1233.83V1489.23C1841.44 1494.16 1839.96 1498.98 1837.18 1503.05C1834.39 1507.12 1830.44 1510.25 1825.84 1512.02C1822.99 1513.13 1819.96 1513.7 1816.9 1513.71ZM81.5055 535.56C62.7758 535.581 44.8193 543.031 31.5754 556.275C18.3315 569.519 10.8818 587.475 10.8607 606.205V1119.71C10.8819 1138.44 18.3316 1156.4 31.5755 1169.64C44.8194 1182.89 62.7758 1190.34 81.5055 1190.36H1505.45C1511.47 1190.36 1517.43 1191.62 1522.95 1194.05C1528.46 1196.47 1533.41 1200.01 1537.49 1204.45L1806.95 1498.41C1808.8 1500.43 1811.22 1501.84 1813.89 1502.47C1816.55 1503.09 1819.35 1502.89 1821.9 1501.9C1824.45 1500.9 1826.64 1499.16 1828.19 1496.9C1829.73 1494.64 1830.56 1491.97 1830.56 1489.23V1233.83C1830.57 1222.3 1835.16 1211.25 1843.31 1203.1C1851.45 1194.95 1862.5 1190.37 1874.03 1190.36H1926.33C1945.06 1190.34 1963.02 1182.89 1976.26 1169.64C1989.5 1156.4 1996.95 1138.44 1996.97 1119.71V606.205C1996.95 587.475 1989.5 569.519 1976.26 556.275C1963.02 543.031 1945.06 535.581 1926.33 535.56H81.5055Z" fill="#3F3D56"/>
<path d="M199.946 751.219C239.335 751.219 271.266 719.288 271.266 679.899C271.266 640.509 239.335 608.578 199.946 608.578C160.556 608.578 128.625 640.509 128.625 679.899C128.625 719.288 160.556 751.219 199.946 751.219Z" fill="#DA3435"/>
<path d="M1843.08 1074.48H164.669C159.67 1074.49 154.719 1073.51 150.099 1071.6C145.479 1069.69 141.28 1066.89 137.743 1063.36C134.206 1059.82 131.4 1055.63 129.486 1051.01C127.571 1046.39 126.586 1041.44 126.586 1036.44C126.586 1031.44 127.571 1026.49 129.486 1021.88C131.4 1017.26 134.206 1013.06 137.743 1009.53C141.28 1006 145.479 1003.2 150.099 1001.29C154.719 999.38 159.67 998.4 164.669 998.406H1843.08C1853.16 998.418 1862.82 1002.43 1869.95 1009.56C1877.07 1016.7 1881.07 1026.36 1881.07 1036.44C1881.07 1046.52 1877.07 1056.19 1869.95 1063.32C1862.82 1070.46 1853.16 1074.47 1843.08 1074.48Z" fill="#E6E6E6"/>
<path d="M1296.29 912.841H164.669C159.67 912.847 154.719 911.867 150.099 909.959C145.479 908.05 141.28 905.249 137.743 901.716C134.206 898.183 131.4 893.988 129.486 889.37C127.571 884.752 126.586 879.802 126.586 874.803C126.586 869.804 127.571 864.854 129.486 860.236C131.4 855.619 134.206 851.423 137.743 847.891C141.28 844.358 145.479 841.557 150.099 839.648C154.719 837.739 159.67 836.76 164.669 836.766H1296.29C1306.38 836.766 1316.05 840.773 1323.18 847.907C1330.32 855.04 1334.33 864.715 1334.33 874.803C1334.33 884.892 1330.32 894.567 1323.18 901.7C1316.05 908.833 1306.38 912.841 1296.29 912.841Z" fill="#E6E6E6"/>
<path d="M3014.18 3255.15C3009.57 3253.38 3005.62 3250.26 3002.83 3246.19C3000.05 3242.12 2998.57 3237.3 2998.59 3232.36V2976.96C2998.58 2968.31 2995.14 2960.02 2989.03 2953.91C2982.92 2947.8 2974.63 2944.36 2965.98 2944.35H2913.68C2892.07 2944.33 2871.36 2935.73 2856.08 2920.45C2840.8 2905.17 2832.2 2884.45 2832.18 2862.84V2349.34C2832.2 2327.73 2840.8 2307.01 2856.08 2291.73C2871.36 2276.45 2892.07 2267.86 2913.68 2267.83H4758.51C4780.12 2267.86 4800.83 2276.45 4816.11 2291.73C4831.39 2307.01 4839.99 2327.73 4840.01 2349.34V2862.84C4839.99 2884.45 4831.39 2905.17 4816.11 2920.45C4800.83 2935.73 4780.12 2944.33 4758.51 2944.35H3334.56C3330.05 2944.35 3325.58 2945.3 3321.44 2947.12C3317.3 2948.94 3313.59 2951.6 3310.53 2954.92L3041.06 3248.89C3038.79 3251.39 3036.02 3253.39 3032.93 3254.76C3029.83 3256.13 3026.49 3256.83 3023.11 3256.84C3020.05 3256.84 3017.02 3256.26 3014.18 3255.15Z" fill="white"/>
<path d="M3014.18 3255.15C3009.57 3253.38 3005.62 3250.26 3002.83 3246.19C3000.05 3242.12 2998.57 3237.3 2998.59 3232.36V2976.96C2998.58 2968.31 2995.14 2960.02 2989.03 2953.91C2982.92 2947.8 2974.63 2944.36 2965.98 2944.35H2913.68C2892.07 2944.33 2871.36 2935.73 2856.08 2920.45C2840.8 2905.17 2832.2 2884.45 2832.18 2862.84V2349.34C2832.2 2327.73 2840.8 2307.01 2856.08 2291.73C2871.36 2276.45 2892.07 2267.86 2913.68 2267.83H4758.51C4780.12 2267.86 4800.83 2276.45 4816.11 2291.73C4831.39 2307.01 4839.99 2327.73 4840.01 2349.34V2862.84C4839.99 2884.45 4831.39 2905.17 4816.11 2920.45C4800.83 2935.73 4780.12 2944.33 4758.51 2944.35H3334.56C3330.05 2944.35 3325.58 2945.3 3321.44 2947.12C3317.3 2948.94 3313.59 2951.6 3310.53 2954.92L3041.06 3248.89C3038.79 3251.39 3036.02 3253.39 3032.93 3254.76C3029.83 3256.13 3026.49 3256.83 3023.11 3256.84C3020.05 3256.84 3017.02 3256.26 3014.18 3255.15ZM2913.68 2278.69C2894.95 2278.71 2877 2286.16 2863.75 2299.41C2850.51 2312.65 2843.06 2330.61 2843.04 2349.34V2862.84C2843.06 2881.57 2850.51 2899.53 2863.75 2912.77C2877 2926.02 2894.95 2933.47 2913.68 2933.49H2965.98C2977.51 2933.5 2988.56 2938.09 2996.71 2946.24C3004.86 2954.38 3009.44 2965.43 3009.45 2976.96V3232.36C3009.45 3235.1 3010.28 3237.78 3011.83 3240.04C3013.37 3242.3 3015.56 3244.04 3018.12 3245.03C3020.67 3246.02 3023.46 3246.22 3026.13 3245.6C3028.79 3244.98 3031.21 3243.56 3033.06 3241.55L3302.52 2947.58C3306.6 2943.15 3311.55 2939.6 3317.07 2937.18C3322.58 2934.75 3328.54 2933.5 3334.57 2933.49H4758.51C4777.24 2933.47 4795.19 2926.02 4808.44 2912.77C4821.68 2899.53 4829.13 2881.57 4829.15 2862.84V2349.34C4829.13 2330.61 4821.68 2312.65 4808.44 2299.41C4795.19 2286.16 4777.24 2278.71 4758.51 2278.69H2913.68Z" fill="#3F3D56"/>
<path d="M2439.21 3414.1C2363.55 3462.54 2275.9 3488.96 2186.08 3490.39C2096.26 3491.82 2007.81 3468.2 1930.65 3422.19C1944.23 3396.93 1961.42 3373.78 1981.7 3353.5C2012.98 3322.06 2051.06 3298.22 2093 3283.8C2134.94 3269.37 2179.62 3264.76 2223.62 3270.3C2267.63 3275.84 2309.77 3291.4 2346.82 3315.77C2383.87 3340.14 2414.85 3372.68 2437.36 3410.9C2437.95 3411.93 2438.61 3413.01 2439.21 3414.1Z" fill="#DA3435"/>
<path d="M2163.67 3154.55C2296.23 3154.55 2403.7 3047.08 2403.7 2914.52C2403.7 2781.95 2296.23 2674.49 2163.67 2674.49C2031.11 2674.49 1923.64 2781.95 1923.64 2914.52C1923.64 3047.08 2031.11 3154.55 2163.67 3154.55Z" fill="#2F2E41"/>
<path d="M2342.35 3083.78C2389.67 2997.21 2357.86 2888.66 2271.28 2841.34C2184.71 2794.01 2076.16 2825.83 2028.84 2912.4C1981.51 2998.97 2013.33 3107.52 2099.9 3154.85C2186.48 3202.17 2295.02 3170.35 2342.35 3083.78Z" fill="#FFB8B8"/>
<path d="M1997.83 2885.65C2038.66 2913.79 2087.11 2928.76 2136.69 2928.56C2119.01 2940.83 2098.87 2949.11 2077.68 2952.84C2143.6 2966.98 2211.73 2967.37 2277.8 2953.97C2292.49 2951.61 2306.66 2946.74 2319.7 2939.58C2326.19 2935.95 2331.85 2931 2336.31 2925.04C2340.76 2919.08 2343.91 2912.25 2345.56 2904.99C2349.95 2879.91 2330.4 2857.12 2310.09 2841.76C2278.99 2818.61 2243.14 2802.65 2205.11 2795.06C2167.09 2787.46 2127.86 2788.41 2090.25 2797.83C2065.69 2804.18 2041.09 2814.91 2025.14 2834.63C2009.19 2854.35 2004.46 2884.75 2019.66 2905.06L1997.83 2885.65Z" fill="#2F2E41"/>
<path d="M2178.4 3495.87C2060.85 3495.83 1947.25 3453.41 1858.44 3376.39C1769.64 3299.37 1711.57 3192.91 1694.91 3076.55C1678.25 2960.18 1704.1 2841.71 1767.72 2742.86C1831.34 2644.01 1928.47 2571.41 2041.29 2538.39C2154.11 2505.36 2275.05 2514.12 2381.94 2563.05C2488.82 2611.98 2574.48 2697.81 2623.2 2804.8C2671.92 2911.78 2680.43 3032.74 2647.18 3145.49C2613.93 3258.25 2541.13 3355.23 2442.16 3418.65C2363.45 3469.12 2271.9 3495.92 2178.4 3495.87ZM2178.4 2529.26C2083.88 2529.26 1991.47 2557.28 1912.87 2609.79C1834.27 2662.3 1773.01 2736.94 1736.83 2824.27C1700.65 2911.6 1691.18 3007.69 1709.62 3100.41C1728.06 3193.12 1773.58 3278.28 1840.42 3345.12C1907.26 3411.96 1992.42 3457.48 2085.13 3475.91C2177.84 3494.35 2273.94 3484.89 2361.27 3448.71C2448.6 3412.53 2523.24 3351.27 2575.75 3272.67C2628.26 3194.07 2656.28 3101.66 2656.27 3007.13C2656.13 2880.44 2605.74 2758.97 2516.15 2669.39C2426.56 2579.8 2305.1 2529.41 2178.4 2529.26Z" fill="#3F3D56"/>
<path d="M3061.7 2488.75C3101.09 2488.75 3133.02 2456.82 3133.02 2417.43C3133.02 2378.04 3101.09 2346.11 3061.7 2346.11C3022.31 2346.11 2990.38 2378.04 2990.38 2417.43C2990.38 2456.82 3022.31 2488.75 3061.7 2488.75Z" fill="#DA3435"/>
<path d="M4704.96 2812.26H3026.55C3021.55 2812.27 3016.6 2811.29 3011.98 2809.38C3007.36 2807.47 3003.16 2804.67 2999.62 2801.14C2996.08 2797.61 2993.28 2793.41 2991.36 2788.79C2989.45 2784.17 2988.46 2779.22 2988.46 2774.23C2988.46 2769.23 2989.45 2764.28 2991.36 2759.66C2993.28 2755.04 2996.08 2750.85 2999.62 2747.31C3003.16 2743.78 3007.36 2740.98 3011.98 2739.07C3016.6 2737.16 3021.55 2736.18 3026.55 2736.19H4704.96C4715.05 2736.19 4724.72 2740.19 4731.85 2747.33C4738.99 2754.46 4743 2764.14 4743 2774.23C4743 2784.31 4738.99 2793.99 4731.85 2801.12C4724.72 2808.26 4715.05 2812.26 4704.96 2812.26Z" fill="#E6E6E6"/>
<path d="M4158.17 2650.62H3026.55C3021.55 2650.62 3016.6 2649.64 3011.98 2647.74C3007.36 2645.83 3003.16 2643.03 2999.62 2639.49C2996.08 2635.96 2993.28 2631.77 2991.36 2627.15C2989.45 2622.53 2988.46 2617.58 2988.46 2612.58C2988.46 2607.58 2989.45 2602.63 2991.36 2598.01C2993.28 2593.4 2996.08 2589.2 2999.62 2585.67C3003.16 2582.14 3007.36 2579.33 3011.98 2577.43C3016.6 2575.52 3021.55 2574.54 3026.55 2574.54H4158.17C4168.25 2574.56 4177.91 2578.57 4185.03 2585.7C4192.16 2592.83 4196.16 2602.5 4196.16 2612.58C4196.16 2622.66 4192.16 2632.33 4185.03 2639.46C4177.91 2646.59 4168.25 2650.61 4158.17 2650.62Z" fill="#E6E6E6"/>
<path d="M3011.9 3303.68C3085.39 3303.68 3144.96 3297.07 3144.96 3288.91C3144.96 3280.76 3085.39 3274.14 3011.9 3274.14C2938.41 3274.14 2878.83 3280.76 2878.83 3288.91C2878.83 3297.07 2938.41 3303.68 3011.9 3303.68Z" fill="#F2F2F2"/>
<path d="M1822.66 1565.9C1896.15 1565.9 1955.72 1559.29 1955.72 1551.13C1955.72 1542.98 1896.15 1536.36 1822.66 1536.36C1749.17 1536.36 1689.59 1542.98 1689.59 1551.13C1689.59 1559.29 1749.17 1565.9 1822.66 1565.9Z" fill="#F2F2F2"/>
</g>
<defs>
<clipPath id="clip0_1861_99">
<rect width="4840.04" height="4046.66" fill="white"/>
</clipPath>
</defs>
</svg>
