<svg width="4374" height="4373" viewBox="0 0 4374 4373" fill="none" xmlns="http://www.w3.org/2000/svg">
<g clip-path="url(#clip0_1861_201)">
<path d="M1928.52 3468.3H212.815C191.215 3468.28 170.507 3459.68 155.233 3444.41C139.959 3429.14 131.368 3408.43 131.344 3386.83V1057.69C131.368 1036.09 139.959 1015.39 155.233 1000.11C170.507 984.838 191.215 976.247 212.815 976.223H1928.52C1950.12 976.247 1970.82 984.838 1986.1 1000.11C2001.37 1015.39 2009.96 1036.09 2009.99 1057.69V3386.83C2009.96 3408.43 2001.37 3429.14 1986.1 3444.41C1970.82 3459.68 1950.12 3468.28 1928.52 3468.3Z" fill="white"/>
<path d="M993.343 1582.48C993.343 1649.74 972.063 1715.29 932.548 1769.73C893.033 1824.16 837.309 1864.71 773.352 1885.55C771.439 1886.16 769.528 1886.77 767.586 1887.35C759.301 1889.9 750.901 1892.07 742.354 1893.92C726.888 1897.28 711.19 1899.46 695.395 1900.44C688.531 1900.9 681.627 1901.14 674.683 1901.14C638.807 1901.17 603.185 1895.14 569.322 1883.29C568.337 1882.94 567.353 1882.6 566.397 1882.25C511.532 1862.43 463.158 1827.94 426.546 1782.53C389.934 1737.11 366.49 1682.52 358.767 1624.7C351.043 1566.88 359.338 1508.05 382.747 1454.62C406.156 1401.19 443.781 1355.21 491.522 1321.69C539.263 1288.17 595.288 1268.39 653.493 1264.52C711.698 1260.65 769.849 1272.82 821.611 1299.72C873.372 1326.62 916.757 1367.21 947.039 1417.07C977.321 1466.93 993.337 1524.14 993.343 1582.48Z" fill="white"/>
<path d="M667.034 1793.67C752.66 1793.67 822.074 1724.25 822.074 1638.63C822.074 1553 752.66 1483.59 667.034 1483.59C581.408 1483.59 511.994 1553 511.994 1638.63C511.994 1724.25 581.408 1793.67 667.034 1793.67Z" fill="#DA3435"/>
<path d="M676.141 1721.94L676.302 1716.14C665.524 1715.84 656.021 1715.17 648.881 1709.95C646.856 1708.39 645.192 1706.41 644.002 1704.14C642.812 1701.88 642.123 1699.38 641.982 1696.83C641.857 1695.27 642.093 1693.7 642.672 1692.25C643.251 1690.79 644.158 1689.49 645.322 1688.45C648.019 1686.81 651.108 1685.93 654.263 1685.9C657.418 1685.88 660.521 1686.7 663.248 1688.29L668.041 1690.49L658.849 1623.3L653.109 1624.09L660.928 1681.24C657.727 1680.05 654.28 1679.68 650.901 1680.17C647.522 1680.65 644.318 1681.98 641.582 1684.02C639.741 1685.63 638.297 1687.64 637.362 1689.9C636.427 1692.15 636.027 1694.6 636.193 1697.03C636.362 1700.47 637.279 1703.82 638.881 1706.86C640.482 1709.9 642.729 1712.55 645.463 1714.63C654.638 1721.33 666.561 1721.67 676.141 1721.94Z" fill="#2F2E41"/>
<path d="M624.655 1629.16H593.451V1634.96H624.655V1629.16Z" fill="#2F2E41"/>
<path d="M723.196 1629.16H691.992V1634.96H723.196V1629.16Z" fill="#2F2E41"/>
<path d="M711.126 1855.22C711.537 1853.32 711.751 1851.38 711.764 1849.43C711.752 1842.14 708.849 1835.14 703.69 1829.98C698.532 1824.82 691.539 1821.92 684.243 1821.91H643.686C636.389 1821.92 629.393 1824.82 624.234 1829.98C619.074 1835.14 616.172 1842.13 616.166 1849.43C616.164 1851.39 616.378 1853.34 616.802 1855.25C601.492 1860.08 587.021 1867.24 573.9 1876.49C571.35 1878.26 568.83 1880.17 566.426 1882.17C567.382 1882.51 568.367 1882.86 569.351 1883.21C603.214 1895.06 638.837 1901.09 674.712 1901.05C681.664 1901.05 688.568 1900.82 695.424 1900.36C711.22 1899.37 726.917 1897.2 742.383 1893.84C750.93 1891.99 759.33 1889.81 767.615 1887.26C751.224 1872.76 731.983 1861.85 711.126 1855.22Z" fill="#2F2E41"/>
<path d="M705.921 1896.65C702.161 1896.93 698.542 1898.2 695.434 1900.33C711.229 1899.35 726.927 1897.17 742.392 1893.81L705.921 1896.65Z" fill="#2F2E41"/>
<path d="M807.676 1601.71L538.339 1503.18C535.453 1502.13 533.104 1499.97 531.81 1497.18C530.516 1494.39 530.382 1491.21 531.438 1488.32L532.349 1484.01C553.384 1426.51 623.103 1390.33 680.602 1411.36L763.482 1441.68C820.981 1462.72 845.971 1530.8 824.937 1588.3L822.539 1594.81C821.483 1597.7 819.324 1600.05 816.536 1601.34C813.749 1602.64 810.562 1602.77 807.676 1601.71Z" fill="#2F2E41"/>
<path d="M822.191 1607.17C446.788 1621.02 413.986 1573.85 528.368 1499.68L552.634 1455.03L830.737 1556.42L822.191 1607.17Z" fill="#2F2E41"/>
<path d="M748.517 1434.54C750.59 1427.65 741.712 1418.89 728.688 1414.97C715.665 1411.06 703.427 1413.47 701.354 1420.37C699.282 1427.26 708.159 1436.03 721.183 1439.94C734.207 1443.85 746.445 1441.44 748.517 1434.54Z" fill="#2F2E41"/>
<path d="M674.642 1909.77C637.788 1909.81 601.193 1903.61 566.408 1891.44L563.384 1890.36C490.521 1864.03 429.359 1812.71 390.775 1745.52C352.191 1678.34 338.686 1599.65 352.662 1523.44C366.638 1447.24 407.189 1378.46 467.104 1329.34C527.018 1280.22 602.412 1253.95 679.877 1255.19C757.342 1256.43 831.857 1285.1 890.17 1336.11C948.483 1387.12 986.814 1457.16 998.346 1533.77C1009.88 1610.38 993.864 1688.6 953.151 1754.52C912.438 1820.43 849.666 1869.77 775.998 1893.76C773.939 1894.41 772.001 1895.03 770.032 1895.62C761.804 1898.15 753.074 1900.42 744.155 1902.36C728.258 1905.8 712.123 1908.04 695.889 1909.06C688.914 1909.53 681.748 1909.77 674.642 1909.77ZM674.642 1272.45C601.702 1272.46 531.1 1298.19 475.256 1345.11C419.411 1392.04 381.9 1457.15 369.319 1528.99C356.739 1600.84 369.895 1674.82 406.473 1737.93C443.052 1801.04 500.71 1849.22 569.308 1874.02L572.178 1875.04C605.109 1886.56 639.753 1892.43 674.642 1892.39C681.359 1892.39 688.13 1892.16 694.769 1891.71C710.142 1890.75 725.422 1888.63 740.476 1885.37C748.912 1883.54 757.161 1881.39 764.99 1878.99C766.929 1878.41 768.769 1877.82 770.61 1877.23C840.774 1854.38 900.485 1807.25 939.01 1744.31C977.535 1681.37 992.346 1606.76 980.781 1533.88C969.216 1461 932.034 1394.63 875.919 1346.71C819.803 1298.79 748.434 1272.46 674.642 1272.45Z" fill="#CCCCCC"/>
<path d="M1928.52 3468.3H212.815C191.215 3468.28 170.507 3459.68 155.233 3444.41C139.959 3429.14 131.368 3408.43 131.344 3386.83V1057.69C131.368 1036.09 139.959 1015.39 155.233 1000.11C170.507 984.838 191.215 976.247 212.815 976.223H1928.52C1950.12 976.247 1970.82 984.838 1986.1 1000.11C2001.37 1015.39 2009.96 1036.09 2009.99 1057.69V3386.83C2009.96 3408.43 2001.37 3429.14 1986.1 3444.41C1970.82 3459.68 1950.12 3468.28 1928.52 3468.3ZM212.815 985.808C193.757 985.829 175.484 993.41 162.008 1006.89C148.531 1020.36 140.95 1038.64 140.929 1057.69V3386.83C140.95 3405.89 148.531 3424.16 162.008 3437.64C175.484 3451.11 193.757 3458.69 212.815 3458.72H1928.52C1947.57 3458.69 1965.85 3451.11 1979.32 3437.64C1992.8 3424.16 2000.38 3405.89 2000.4 3386.83V1057.69C2000.38 1038.64 1992.8 1020.36 1979.32 1006.89C1965.85 993.41 1947.57 985.829 1928.52 985.808H212.815Z" fill="#CCCCCC"/>
<path d="M1596.36 1581.31H1110.87C1100.7 1581.29 1090.94 1577.24 1083.75 1570.04C1076.55 1562.84 1072.51 1553.08 1072.51 1542.9C1072.51 1532.72 1076.55 1522.96 1083.75 1515.76C1090.94 1508.56 1100.7 1504.5 1110.87 1504.49H1596.36C1601.41 1504.49 1606.4 1505.47 1611.07 1507.4C1615.73 1509.33 1619.97 1512.16 1623.55 1515.72C1627.12 1519.29 1629.95 1523.53 1631.88 1528.19C1633.82 1532.85 1634.81 1537.85 1634.81 1542.9C1634.81 1547.95 1633.82 1552.95 1631.88 1557.61C1629.95 1562.27 1627.12 1566.51 1623.55 1570.07C1619.97 1573.64 1615.73 1576.47 1611.07 1578.4C1606.4 1580.32 1601.41 1581.31 1596.36 1581.31Z" fill="#E6E6E6"/>
<path d="M1754.79 1710.83H1110.87C1100.7 1710.81 1090.94 1706.76 1083.75 1699.56C1076.55 1692.36 1072.51 1682.6 1072.51 1672.42C1072.51 1662.24 1076.55 1652.48 1083.75 1645.28C1090.94 1638.08 1100.7 1634.02 1110.87 1634.01H1754.79C1764.97 1634.02 1774.72 1638.08 1781.91 1645.28C1789.11 1652.48 1793.15 1662.24 1793.15 1672.42C1793.15 1682.6 1789.11 1692.36 1781.91 1699.56C1774.72 1706.76 1764.97 1710.81 1754.79 1710.83Z" fill="#E6E6E6"/>
<path d="M1595.66 2207.99H386.512C381.464 2207.99 376.464 2207 371.799 2205.08C367.134 2203.15 362.894 2200.32 359.323 2196.75C355.751 2193.19 352.918 2188.95 350.985 2184.29C349.052 2179.63 348.057 2174.63 348.057 2169.58C348.057 2164.53 349.052 2159.53 350.985 2154.87C352.918 2150.21 355.751 2145.97 359.323 2142.4C362.894 2138.84 367.134 2136.01 371.799 2134.08C376.464 2132.15 381.464 2131.17 386.512 2131.17H1595.66C1605.83 2131.18 1615.59 2135.24 1622.78 2142.44C1629.98 2149.64 1634.02 2159.4 1634.02 2169.58C1634.02 2179.76 1629.98 2189.52 1622.78 2196.72C1615.59 2203.92 1605.83 2207.97 1595.66 2207.99Z" fill="#E6E6E6"/>
<path d="M1754.09 2337.51H386.512C381.464 2337.51 376.464 2336.52 371.799 2334.6C367.134 2332.67 362.894 2329.84 359.323 2326.27C355.751 2322.71 352.918 2318.47 350.985 2313.81C349.052 2309.14 348.057 2304.15 348.057 2299.1C348.057 2294.05 349.052 2289.05 350.985 2284.39C352.918 2279.73 355.751 2275.49 359.323 2271.92C362.894 2268.36 367.134 2265.53 371.799 2263.6C376.464 2261.67 381.464 2260.69 386.512 2260.69H1754.09C1759.13 2260.69 1764.13 2261.67 1768.8 2263.6C1773.46 2265.53 1777.7 2268.36 1781.28 2271.92C1784.85 2275.49 1787.68 2279.73 1789.61 2284.39C1791.55 2289.05 1792.54 2294.05 1792.54 2299.1C1792.54 2304.15 1791.55 2309.14 1789.61 2313.81C1787.68 2318.47 1784.85 2322.71 1781.28 2326.27C1777.7 2329.84 1773.46 2332.67 1768.8 2334.6C1764.13 2336.52 1759.13 2337.51 1754.09 2337.51Z" fill="#E6E6E6"/>
<path d="M1595.61 2635.55H386.464C376.278 2635.55 366.509 2631.5 359.306 2624.3C352.103 2617.1 348.057 2607.33 348.057 2597.14C348.057 2586.96 352.103 2577.19 359.306 2569.98C366.509 2562.78 376.278 2558.73 386.464 2558.73H1595.61C1605.79 2558.73 1615.56 2562.78 1622.77 2569.98C1629.97 2577.19 1634.02 2586.96 1634.02 2597.14C1634.02 2607.33 1629.97 2617.1 1622.77 2624.3C1615.56 2631.5 1605.79 2635.55 1595.61 2635.55Z" fill="#E6E6E6"/>
<path d="M1754.04 2765.07H386.464C376.278 2765.07 366.509 2761.02 359.306 2753.82C352.103 2746.62 348.057 2736.85 348.057 2726.66C348.057 2716.47 352.103 2706.71 359.306 2699.5C366.509 2692.3 376.278 2688.25 386.464 2688.25H1754.04C1764.22 2688.25 1773.99 2692.3 1781.2 2699.5C1788.4 2706.71 1792.45 2716.47 1792.45 2726.66C1792.45 2736.85 1788.4 2746.62 1781.2 2753.82C1773.99 2761.02 1764.22 2765.07 1754.04 2765.07Z" fill="#E6E6E6"/>
<path d="M1595.61 3063.11H386.464C376.278 3063.11 366.509 3059.06 359.306 3051.86C352.103 3044.66 348.057 3034.89 348.057 3024.7C348.057 3014.52 352.103 3004.75 359.306 2997.55C366.509 2990.34 376.278 2986.3 386.464 2986.3H1595.61C1605.79 2986.3 1615.56 2990.34 1622.77 2997.55C1629.97 3004.75 1634.02 3014.52 1634.02 3024.7C1634.02 3034.89 1629.97 3044.66 1622.77 3051.86C1615.56 3059.06 1605.79 3063.11 1595.61 3063.11Z" fill="#E6E6E6"/>
<path d="M1754.04 3192.63H386.464C376.278 3192.63 366.509 3188.58 359.306 3181.38C352.103 3174.18 348.057 3164.41 348.057 3154.22C348.057 3144.04 352.103 3134.27 359.306 3127.07C366.509 3119.86 376.278 3115.82 386.464 3115.82H1754.04C1764.22 3115.82 1773.99 3119.86 1781.2 3127.07C1788.4 3134.27 1792.45 3144.04 1792.45 3154.22C1792.45 3164.41 1788.4 3174.18 1781.2 3181.38C1773.99 3188.58 1764.22 3192.63 1754.04 3192.63Z" fill="#E6E6E6"/>
<path d="M4161.8 2883.69L2446.1 2883.69C2424.5 2883.66 2403.79 2875.07 2388.52 2859.8C2373.25 2844.53 2364.66 2823.82 2364.63 2802.22L2364.63 473.083C2364.65 451.482 2373.24 430.774 2388.52 415.5C2403.79 400.227 2424.5 391.635 2446.1 391.611L4161.8 391.609C4183.4 391.634 4204.11 400.225 4219.38 415.499C4234.66 430.772 4243.25 451.481 4243.27 473.081L4243.27 2802.22C4243.25 2823.82 4234.66 2844.52 4219.38 2859.8C4204.11 2875.07 4183.4 2883.66 4161.8 2883.69Z" fill="white"/>
<path d="M4161.8 2883.69L2446.1 2883.69C2424.5 2883.66 2403.79 2875.07 2388.52 2859.8C2373.25 2844.53 2364.66 2823.82 2364.63 2802.22L2364.63 473.083C2364.65 451.482 2373.24 430.774 2388.52 415.5C2403.79 400.227 2424.5 391.635 2446.1 391.611L4161.8 391.609C4183.4 391.634 4204.11 400.225 4219.38 415.499C4234.66 430.772 4243.25 451.481 4243.27 473.081L4243.27 2802.22C4243.25 2823.82 4234.66 2844.52 4219.38 2859.8C4204.11 2875.07 4183.4 2883.66 4161.8 2883.69ZM2446.1 401.196C2427.04 401.217 2408.77 408.798 2395.29 422.275C2381.82 435.751 2374.24 454.024 2374.21 473.083L2374.22 2802.22C2374.24 2821.28 2381.82 2839.55 2395.29 2853.02C2408.77 2866.5 2427.04 2874.08 2446.1 2874.1L4161.8 2874.1C4180.86 2874.08 4199.13 2866.5 4212.61 2853.02C4226.09 2839.55 4233.67 2821.27 4233.69 2802.22L4233.69 473.081C4233.67 454.022 4226.08 435.75 4212.61 422.273C4199.13 408.797 4180.86 401.216 4161.8 401.194L2446.1 401.196Z" fill="#CCCCCC"/>
<path d="M3227.46 994.546C3227.46 1057.57 3208.77 1119.18 3173.75 1171.58C3138.74 1223.99 3088.97 1264.83 3030.74 1288.95C2972.52 1313.07 2908.45 1319.38 2846.63 1307.08C2784.82 1294.79 2728.04 1264.44 2683.47 1219.87C2638.91 1175.31 2608.56 1118.53 2596.26 1056.71C2583.97 994.9 2590.28 930.828 2614.4 872.601C2638.51 814.373 2679.36 764.606 2731.76 729.591C2784.16 694.576 2845.77 675.887 2908.8 675.887C2993.3 675.913 3074.34 709.495 3134.1 769.249C3193.85 829.004 3227.43 910.041 3227.46 994.546Z" fill="white"/>
<path d="M3056 1049.01C3052.52 1252.81 2749.37 1252.77 2745.92 1049C2749.4 845.207 3052.55 845.239 3056 1049.01Z" fill="#DA3435"/>
<path d="M2894.84 1112.33L2894.68 1106.54C2934.62 1111.87 2943.22 1062.38 2902.94 1080.88L2912.14 1013.7L2917.88 1014.49L2910.06 1071.64C2952.46 1065.32 2936.78 1118.12 2894.84 1112.33Z" fill="#2F2E41"/>
<path d="M2977.52 1019.57H2946.31V1025.36H2977.52V1019.57Z" fill="#2F2E41"/>
<path d="M2878.98 1019.57H2847.77V1025.36H2878.98V1019.57Z" fill="#2F2E41"/>
<path d="M2951.27 1265.94C2957.35 1224.89 2909.29 1233 2883.86 1232.6C2879.76 1232.61 2875.71 1233.54 2872.01 1235.31C2868.32 1237.09 2865.06 1239.66 2862.48 1242.86C2859.91 1246.05 2858.08 1249.77 2857.13 1253.76C2856.17 1257.75 2856.12 1261.9 2856.97 1265.91C2837.29 1272 2819.06 1282.05 2803.41 1295.46C2869.35 1318.45 2941 1319.25 3007.44 1297.72C2991.24 1283.18 2972.08 1272.33 2951.27 1265.94Z" fill="#2F2E41"/>
<path d="M2828.13 975.872C2856.86 959.266 2891.71 972.005 2921.39 978.97C2977.7 996.281 3056.66 974.605 3063.51 907.526C3070.64 845.141 2985.3 810.372 2958.02 872.462L2965.96 871.424C2877.5 739.957 2723.62 744.943 2724.64 925.688C2724.31 931.272 2733 931.253 2733.32 925.684C2730.07 819.174 2800.56 746.367 2900.2 814.815C2922.46 832.237 2942.08 852.781 2958.46 875.811C2968.84 887.44 2971.09 837.356 3020.76 850.474C3075.42 871.651 3057.59 949.921 3008.73 967.103C2948.36 997.944 2882.98 938.147 2823.74 968.364C2822.79 968.966 2822.11 969.915 2821.84 971.011C2821.57 972.106 2821.74 973.263 2822.31 974.237C2822.88 975.211 2823.81 975.925 2824.89 976.23C2825.98 976.535 2827.14 976.407 2828.13 975.872Z" fill="#2F2E41"/>
<path d="M2908.78 1321.88C2826.49 1321.81 2747.25 1290.72 2686.86 1234.82C2626.47 1178.91 2589.38 1102.3 2582.97 1020.26C2576.57 938.219 2601.32 856.778 2652.3 792.18C2703.28 727.582 2776.74 684.574 2858.02 671.734C2939.3 658.894 3022.44 677.165 3090.85 722.904C3159.26 768.643 3207.91 838.488 3227.11 918.509C3246.3 998.53 3234.63 1082.85 3194.41 1154.64C3154.2 1226.44 3088.4 1280.43 3010.14 1305.87C2977.41 1316.51 2943.2 1321.91 2908.78 1321.88ZM2908.78 684.558C2847.46 684.549 2787.52 702.725 2736.53 736.786C2685.54 770.847 2645.8 819.264 2622.33 875.914C2598.86 932.563 2592.72 994.9 2604.68 1055.04C2616.64 1115.18 2646.16 1170.42 2689.52 1213.78C2732.88 1257.14 2788.13 1286.67 2848.27 1298.63C2908.41 1310.59 2970.74 1304.45 3027.39 1280.98C3084.04 1257.51 3132.46 1217.77 3166.52 1166.78C3200.58 1115.79 3218.76 1055.84 3218.75 994.526C3218.66 912.346 3185.97 833.558 3127.86 775.448C3069.75 717.337 2990.96 684.65 2908.78 684.558Z" fill="#CCCCCC"/>
<path d="M3829.69 996.44L3344.21 996.44C3334.02 996.44 3324.25 992.394 3317.05 985.191C3309.85 977.988 3305.8 968.219 3305.8 958.033C3305.8 947.846 3309.85 938.077 3317.05 930.875C3324.25 923.672 3334.02 919.625 3344.21 919.625L3829.69 919.625C3839.88 919.625 3849.65 923.671 3856.85 930.874C3864.05 938.077 3868.1 947.846 3868.1 958.032C3868.1 968.219 3864.05 977.988 3856.85 985.19C3849.65 992.393 3839.88 996.44 3829.69 996.44Z" fill="#E6E6E6"/>
<path d="M3988.04 1126.21L3344.13 1126.21C3339.08 1126.22 3334.08 1125.23 3329.41 1123.3C3324.75 1121.37 3320.51 1118.54 3316.94 1114.98C3313.37 1111.41 3310.53 1107.17 3308.6 1102.51C3306.67 1097.85 3305.67 1092.85 3305.67 1087.8C3305.67 1082.75 3306.67 1077.76 3308.6 1073.09C3310.53 1068.43 3313.37 1064.19 3316.94 1060.63C3320.51 1057.06 3324.75 1054.23 3329.41 1052.3C3334.08 1050.38 3339.08 1049.39 3344.13 1049.4L3988.04 1049.39C3998.23 1049.39 4008 1053.44 4015.2 1060.64C4022.4 1067.85 4026.45 1077.62 4026.45 1087.8C4026.45 1097.99 4022.4 1107.76 4015.2 1114.96C4008 1122.16 3998.23 1126.21 3988.04 1126.21Z" fill="#E6E6E6"/>
<path d="M3828.98 1623.37L2619.83 1623.37C2609.65 1623.36 2599.9 1619.31 2592.7 1612.11C2585.51 1604.91 2581.47 1595.14 2581.47 1584.97C2581.47 1574.79 2585.51 1565.03 2592.7 1557.83C2599.9 1550.62 2609.65 1546.57 2619.83 1546.56L3828.98 1546.56C3839.16 1546.56 3848.93 1550.61 3856.13 1557.81C3863.34 1565.01 3867.38 1574.78 3867.38 1584.97C3867.38 1595.15 3863.34 1604.92 3856.13 1612.12C3848.93 1619.33 3839.16 1623.37 3828.98 1623.37Z" fill="#E6E6E6"/>
<path d="M3987.37 1752.89L2619.8 1752.89C2614.75 1752.9 2609.75 1751.91 2605.08 1749.98C2600.42 1748.06 2596.18 1745.23 2592.61 1741.66C2589.04 1738.09 2586.2 1733.86 2584.27 1729.2C2582.34 1724.53 2581.34 1719.53 2581.34 1714.49C2581.34 1709.44 2582.34 1704.44 2584.27 1699.78C2586.2 1695.11 2589.04 1690.88 2592.61 1687.31C2596.18 1683.74 2600.42 1680.92 2605.08 1678.99C2609.75 1677.06 2614.75 1676.07 2619.8 1676.08L3987.37 1676.08C3997.56 1676.08 4007.33 1680.12 4014.53 1687.33C4021.73 1694.53 4025.78 1704.3 4025.78 1714.49C4025.78 1724.67 4021.73 1734.44 4014.53 1741.64C4007.33 1748.85 3997.56 1752.89 3987.37 1752.89Z" fill="#E6E6E6"/>
<path d="M3828.98 2050.94L2619.83 2050.94C2609.65 2050.92 2599.9 2046.87 2592.7 2039.67C2585.51 2032.47 2581.47 2022.71 2581.47 2012.53C2581.47 2002.35 2585.51 1992.59 2592.7 1985.39C2599.9 1978.19 2609.65 1974.13 2619.83 1974.12L3828.98 1974.12C3839.16 1974.12 3848.93 1978.17 3856.13 1985.37C3863.34 1992.57 3867.38 2002.34 3867.38 2012.53C3867.38 2022.71 3863.34 2032.48 3856.13 2039.69C3848.93 2046.89 3839.16 2050.94 3828.98 2050.94Z" fill="#E6E6E6"/>
<path d="M3987.37 2180.45L2619.8 2180.45C2614.75 2180.46 2609.75 2179.47 2605.08 2177.54C2600.42 2175.62 2596.18 2172.79 2592.61 2169.22C2589.04 2165.65 2586.2 2161.42 2584.27 2156.75C2582.34 2152.09 2581.34 2147.09 2581.34 2142.05C2581.34 2137 2582.34 2132 2584.27 2127.34C2586.2 2122.67 2589.04 2118.44 2592.61 2114.87C2596.18 2111.3 2600.42 2108.48 2605.08 2106.55C2609.75 2104.62 2614.75 2103.63 2619.8 2103.64L3987.37 2103.64C3997.56 2103.64 4007.33 2107.68 4014.53 2114.89C4021.73 2122.09 4025.78 2131.86 4025.78 2142.04C4025.78 2152.23 4021.73 2162 4014.53 2169.2C4007.33 2176.4 3997.56 2180.45 3987.37 2180.45Z" fill="#E6E6E6"/>
<path d="M3829.02 2478.49L2619.88 2478.5C2609.69 2478.5 2599.92 2474.45 2592.72 2467.25C2585.52 2460.04 2581.47 2450.27 2581.47 2440.09C2581.47 2429.9 2585.52 2420.13 2592.72 2412.93C2599.92 2405.73 2609.69 2401.68 2619.88 2401.68L3829.02 2401.68C3839.21 2401.68 3848.98 2405.73 3856.18 2412.93C3863.38 2420.13 3867.43 2429.9 3867.43 2440.09C3867.43 2450.27 3863.38 2460.04 3856.18 2467.25C3848.98 2474.45 3839.21 2478.49 3829.02 2478.49Z" fill="#E6E6E6"/>
<path d="M3987.45 2608.01L2619.88 2608.02C2609.69 2608.02 2599.92 2603.97 2592.72 2596.77C2585.52 2589.56 2581.47 2579.79 2581.47 2569.61C2581.47 2559.42 2585.52 2549.65 2592.72 2542.45C2599.92 2535.25 2609.69 2531.2 2619.88 2531.2L3987.45 2531.2C3997.64 2531.2 4007.41 2535.25 4014.61 2542.45C4021.81 2549.65 4025.86 2559.42 4025.86 2569.61C4025.86 2579.79 4021.81 2589.56 4014.61 2596.76C4007.41 2603.97 3997.64 2608.01 3987.45 2608.01Z" fill="#E6E6E6"/>
<path d="M3126.68 3885.41H1410.98C1389.38 3885.38 1368.67 3876.79 1353.4 3861.52C1338.13 3846.24 1329.53 3825.53 1329.51 3803.93V1474.8C1329.53 1453.2 1338.13 1432.49 1353.4 1417.22C1368.67 1401.94 1389.38 1393.35 1410.98 1393.33H3126.68C3148.28 1393.35 3168.99 1401.94 3184.26 1417.22C3199.54 1432.49 3208.13 1453.2 3208.15 1474.8V3803.93C3208.13 3825.53 3199.54 3846.24 3184.26 3861.52C3168.99 3876.79 3148.28 3885.38 3126.68 3885.41Z" fill="white"/>
<path d="M1554 1992.95C1553.94 2034.89 1562.19 2076.43 1578.27 2115.17C1594.35 2153.91 1617.94 2189.08 1647.68 2218.65C1650.18 2221.11 1652.73 2223.58 1655.3 2225.98C1670.83 2240.49 1687.78 2253.41 1705.88 2264.54C1709.36 2266.68 1712.84 2268.74 1716.4 2270.74C1734.71 2281.06 1754 2289.53 1773.99 2296.03C1777.44 2297.16 1780.94 2298.23 1784.45 2299.21C1847.98 2317.44 1915.61 2315.53 1978.02 2293.77C1979.24 2293.33 1980.45 2292.9 1981.64 2292.46C2036.43 2272.53 2084.7 2237.95 2121.2 2192.49C2157.7 2147.02 2181.02 2092.42 2188.64 2034.62C2196.26 1976.82 2187.87 1918.03 2164.4 1864.67C2140.93 1811.3 2103.26 1765.39 2055.51 1731.95C2007.75 1698.5 1951.74 1678.8 1893.56 1674.98C1835.39 1671.16 1777.28 1683.37 1725.56 1710.29C1673.84 1737.2 1630.5 1777.79 1600.25 1827.63C1570 1877.47 1554 1934.65 1554 1992.95Z" fill="white"/>
<path d="M1805.36 2149.14C1805.52 2173.83 1796.42 2197.68 1779.86 2215.99C1763.47 2233.97 1739.08 2245.9 1714.47 2240.96C1691.8 2236.42 1673.38 2216.61 1675.68 2192.65C1676.06 2187.46 1677.57 2182.41 1680.1 2177.86C1682.63 2173.31 1686.12 2169.37 1690.33 2166.31C1694.54 2163.25 1699.37 2161.15 1704.48 2160.14C1709.59 2159.14 1714.85 2159.26 1719.9 2160.5C1741.44 2166.09 1750.02 2197.12 1732.07 2211.69C1727.77 2215.18 1721.58 2209.07 1725.93 2205.54C1728.61 2203.09 1730.63 2200.01 1731.81 2196.58C1732.99 2193.14 1733.29 2189.47 1732.68 2185.89C1732.07 2182.31 1730.57 2178.94 1728.32 2176.09C1726.08 2173.24 1723.15 2170.99 1719.81 2169.57C1715.87 2168.31 1711.69 2167.96 1707.6 2168.55C1703.5 2169.14 1699.6 2170.65 1696.17 2172.98C1692.75 2175.3 1689.9 2178.37 1687.84 2181.96C1685.78 2185.55 1684.56 2189.56 1684.28 2193.69C1682.86 2213.89 1698.34 2229.11 1717.32 2232.69C1737.85 2236.56 1758.21 2226.05 1772.12 2211.55C1788.07 2194.7 1796.87 2172.34 1796.67 2149.14C1796.71 2148.02 1797.18 2146.95 1797.99 2146.16C1798.81 2145.38 1799.89 2144.94 1801.02 2144.94C1802.14 2144.94 1803.23 2145.38 1804.04 2146.16C1804.85 2146.95 1805.32 2148.02 1805.36 2149.14Z" fill="#2F2E41"/>
<path d="M1890.31 2204.4C1975.94 2204.4 2045.35 2134.99 2045.35 2049.36C2045.35 1963.73 1975.94 1894.32 1890.31 1894.32C1804.69 1894.32 1735.27 1963.73 1735.27 2049.36C1735.27 2134.99 1804.69 2204.4 1890.31 2204.4Z" fill="#DA3435"/>
<path d="M1882.29 2115.33L1882.12 2109.54C1892.9 2109.24 1902.41 2108.56 1909.55 2103.34C1911.57 2101.78 1913.23 2099.8 1914.43 2097.54C1915.62 2095.27 1916.3 2092.78 1916.45 2090.23C1916.57 2088.66 1916.33 2087.1 1915.76 2085.64C1915.18 2084.19 1914.27 2082.89 1913.11 2081.84C1910.41 2080.2 1907.32 2079.33 1904.16 2079.3C1901.01 2079.27 1897.91 2080.09 1895.18 2081.68L1890.39 2083.88L1899.58 2016.7L1905.32 2017.49L1897.5 2074.63C1900.7 2073.44 1904.15 2073.08 1907.53 2073.56C1910.91 2074.05 1914.11 2075.37 1916.85 2077.42C1918.69 2079.02 1920.13 2081.03 1921.07 2083.29C1922 2085.55 1922.4 2087.99 1922.23 2090.43C1922.07 2093.86 1921.15 2097.21 1919.55 2100.25C1917.95 2103.29 1915.7 2105.94 1912.96 2108.02C1903.79 2114.73 1891.87 2115.06 1882.29 2115.33Z" fill="#2F2E41"/>
<path d="M1964.96 2022.56H1933.76V2028.36H1964.96V2022.56Z" fill="#2F2E41"/>
<path d="M1866.42 2022.56H1835.21V2028.36H1866.42V2022.56Z" fill="#2F2E41"/>
<path d="M1784.48 2299.16C1848.02 2317.38 1915.64 2315.48 1978.05 2293.71C1979.27 2293.28 1980.48 2292.84 1981.67 2292.41C1966.96 2281.06 1950.33 2272.46 1932.57 2267.03C1933.83 2262.57 1933.81 2257.86 1932.51 2253.41C1930.75 2247.78 1927.22 2242.87 1922.45 2239.4C1917.67 2235.93 1911.9 2234.1 1906 2234.18H1868.23C1862.34 2234.1 1856.58 2235.93 1851.81 2239.39C1847.05 2242.85 1843.53 2247.76 1841.78 2253.38C1840.49 2257.84 1840.47 2262.56 1841.72 2267.03C1826.08 2271.82 1811.29 2279.07 1797.92 2288.5C1795.23 2290.38 1792.62 2292.35 1790.1 2294.4C1788.19 2295.94 1786.3 2297.53 1784.48 2299.16Z" fill="#2F2E41"/>
<path d="M2011.64 2032.89C2011.64 2059.02 2024.5 2080.69 2041.22 2084.46C2042.92 2084.84 2044.66 2085.04 2046.41 2085.04C2065.55 2085.04 2081.17 2061.66 2081.17 2032.89C2081.6 2018.06 2076.87 2003.54 2067.78 1991.82C2064.96 1988.4 2061.48 1985.57 2057.56 1983.5C2054.11 1981.7 2050.29 1980.76 2046.41 1980.75C2041.07 1980.82 2035.89 1982.56 2031.6 1985.73C2019.81 1994.08 2011.64 2012.07 2011.64 2032.89Z" fill="#3F3D56"/>
<path d="M1701.77 2032.89C1701.77 2055.37 1711.27 2074.55 1724.6 2081.88C1728.25 2083.93 1732.35 2085.01 1736.53 2085.04C1737.46 2085.04 1738.39 2084.98 1739.31 2084.86C1757.16 2082.75 1771.3 2060.27 1771.3 2032.89C1771.3 2010.96 1762.23 1992.16 1749.42 1984.49C1745.55 1982.08 1741.09 1980.79 1736.53 1980.75C1732.65 1980.76 1728.82 1981.7 1725.38 1983.5C1721.44 1985.58 1717.96 1988.42 1715.12 1991.85C1706.07 2003.57 1701.35 2018.08 1701.77 2032.89Z" fill="#3F3D56"/>
<path d="M1726.76 2076.67C1727.45 2076.67 1728.13 2076.51 1728.75 2076.19C1729.36 2075.88 1729.89 2075.42 1730.29 2074.86C1730.69 2074.3 1730.96 2073.65 1731.06 2072.97C1731.16 2072.29 1731.1 2071.59 1730.88 2070.94C1722.58 2046.24 1720.08 2019.96 1723.58 1994.14C1727.08 1968.32 1736.49 1943.66 1751.08 1922.07C1765.66 1900.48 1785.03 1882.54 1807.67 1869.65C1830.31 1856.76 1855.63 1849.26 1881.64 1847.75C1907.65 1846.23 1933.66 1850.73 1957.65 1860.9C1981.64 1871.07 2002.96 1886.63 2019.96 1906.38C2036.95 1926.13 2049.16 1949.53 2055.65 1974.77C2062.13 2000.01 2062.7 2026.4 2057.33 2051.89C2057.09 2053.02 2057.31 2054.19 2057.94 2055.16C2058.57 2056.12 2059.56 2056.8 2060.68 2057.03C2061.81 2057.27 2062.98 2057.05 2063.95 2056.42C2064.91 2055.8 2065.59 2054.81 2065.83 2053.69C2071.49 2026.88 2070.88 1999.13 2064.07 1972.6C2057.26 1946.06 2044.42 1921.46 2026.55 1900.69C2008.68 1879.93 1986.27 1863.56 1961.04 1852.87C1935.82 1842.18 1908.47 1837.44 1881.12 1839.04C1853.78 1840.64 1827.16 1848.52 1803.36 1862.07C1779.55 1875.63 1759.19 1894.49 1743.86 1917.19C1728.53 1939.9 1718.64 1965.83 1714.96 1992.98C1711.28 2020.12 1713.91 2047.75 1722.65 2073.72C1722.94 2074.58 1723.49 2075.33 1724.23 2075.86C1724.97 2076.39 1725.85 2076.67 1726.76 2076.67Z" fill="#3F3D56"/>
<path d="M1968.11 1948.72C1970.68 1952.92 1971.75 1957.87 1971.14 1962.75C1970.53 1967.64 1968.28 1972.18 1964.75 1975.62C1956.34 1985.02 1942.92 1985.61 1931.26 1983.87C1918.18 1981.91 1904.31 1975.78 1891.07 1979.91C1879.79 1983.43 1871.74 1993.66 1860.01 1996.24C1849.62 1998.52 1837.18 1995.5 1833.54 1984.42C1831.79 1979.09 1840.18 1976.81 1841.92 1982.11C1844.28 1989.27 1854.46 1989.13 1860.29 1987.15C1869.64 1983.96 1876.84 1976.22 1886.03 1972.52C1896.98 1969.13 1908.71 1969.16 1919.64 1972.62C1930.04 1974.96 1942 1978.43 1952.36 1974.05C1960.02 1970.82 1966.12 1960.63 1960.61 1953.1C1957.3 1948.59 1964.84 1944.25 1968.11 1948.72Z" fill="#2F2E41"/>
<path d="M1872.63 2320.21C1841.97 2320.24 1811.47 2315.95 1782.01 2307.47C1778.54 2306.5 1774.91 2305.39 1771.25 2304.2C1750.73 2297.51 1730.91 2288.81 1712.1 2278.22C1708.58 2276.24 1705.04 2274.15 1701.29 2271.84C1682.7 2260.41 1665.29 2247.14 1649.34 2232.24C1646.7 2229.78 1644.1 2227.26 1641.55 2224.74C1591.37 2174.72 1558.78 2109.76 1548.68 2039.63C1538.57 1969.5 1551.5 1897.98 1585.51 1835.82C1619.52 1773.67 1672.78 1724.22 1737.3 1694.92C1801.81 1665.62 1874.09 1658.05 1943.28 1673.33C2012.46 1688.62 2074.82 1725.95 2120.98 1779.7C2167.14 1833.46 2194.61 1900.74 2199.27 1971.44C2203.93 2042.14 2185.51 2112.45 2146.8 2171.79C2108.09 2231.13 2051.16 2276.31 1984.58 2300.54C1983.38 2300.98 1982.15 2301.42 1980.91 2301.86C1946.11 2314.05 1909.5 2320.25 1872.63 2320.21ZM1872.63 1682.89C1811.28 1682.9 1751.31 1701.1 1700.31 1735.21C1649.32 1769.31 1609.59 1817.78 1586.16 1874.48C1562.73 1931.18 1556.65 1993.55 1568.68 2053.71C1580.72 2113.86 1610.34 2169.09 1653.79 2212.41C1656.19 2214.78 1658.68 2217.19 1661.2 2219.53C1676.31 2233.65 1692.79 2246.21 1710.4 2257.04C1713.95 2259.23 1717.29 2261.2 1720.62 2263.07C1738.43 2273.1 1757.2 2281.34 1776.64 2287.67C1780.08 2288.8 1783.48 2289.83 1786.76 2290.76C1848.59 2308.5 1914.38 2306.65 1975.11 2285.48L1978.62 2284.21C2047.11 2259.28 2104.62 2211.02 2141.06 2147.91C2177.5 2084.79 2190.54 2010.86 2177.89 1939.08C2165.24 1867.31 2127.7 1802.29 2071.88 1755.44C2016.05 1708.59 1945.51 1682.9 1872.63 1682.89Z" fill="#CCCCCC"/>
<path d="M3126.68 3885.41H1410.98C1389.38 3885.38 1368.67 3876.79 1353.4 3861.52C1338.13 3846.24 1329.53 3825.53 1329.51 3803.93V1474.8C1329.53 1453.2 1338.13 1432.49 1353.4 1417.22C1368.67 1401.94 1389.38 1393.35 1410.98 1393.33H3126.68C3148.28 1393.35 3168.99 1401.94 3184.26 1417.22C3199.54 1432.49 3208.13 1453.2 3208.15 1474.8V3803.93C3208.13 3825.53 3199.54 3846.24 3184.26 3861.52C3168.99 3876.79 3148.28 3885.38 3126.68 3885.41ZM1410.98 1402.91C1391.92 1402.93 1373.65 1410.52 1360.17 1423.99C1346.7 1437.47 1339.12 1455.74 1339.09 1474.8V3803.93C1339.12 3822.99 1346.7 3841.26 1360.17 3854.74C1373.65 3868.22 1391.92 3875.8 1410.98 3875.82H3126.68C3145.74 3875.8 3164.01 3868.22 3177.49 3854.74C3190.97 3841.26 3198.55 3822.99 3198.57 3803.93V1474.8C3198.55 1455.74 3190.97 1437.47 3177.49 1423.99C3164.01 1410.52 3145.74 1402.93 3126.68 1402.91H1410.98Z" fill="#3F3D56"/>
<path d="M2794.44 1998.16H2308.96C2298.77 1998.16 2289 1994.12 2281.8 1986.91C2274.6 1979.71 2270.55 1969.94 2270.55 1959.76C2270.55 1949.57 2274.6 1939.8 2281.8 1932.6C2289 1925.39 2298.77 1921.35 2308.96 1921.35H2794.44C2804.63 1921.35 2814.4 1925.39 2821.6 1932.6C2828.8 1939.8 2832.85 1949.57 2832.85 1959.76C2832.85 1969.94 2828.8 1979.71 2821.6 1986.91C2814.4 1994.12 2804.63 1998.16 2794.44 1998.16Z" fill="#DA3435"/>
<path d="M2952.87 2127.67H2308.96C2298.77 2127.67 2289 2123.63 2281.8 2116.42C2274.6 2109.22 2270.55 2099.45 2270.55 2089.27C2270.55 2079.08 2274.6 2069.31 2281.8 2062.11C2289 2054.91 2298.77 2050.86 2308.96 2050.86H2952.87C2963.06 2050.86 2972.83 2054.91 2980.03 2062.11C2987.23 2069.31 2991.28 2079.08 2991.28 2089.27C2991.28 2099.45 2987.23 2109.22 2980.03 2116.42C2972.83 2123.63 2963.06 2127.67 2952.87 2127.67Z" fill="#DA3435"/>
<path d="M2793.77 2624.84H1584.63C1574.44 2624.84 1564.67 2620.8 1557.47 2613.59C1550.27 2606.39 1546.22 2596.62 1546.22 2586.43C1546.22 2576.25 1550.27 2566.48 1557.47 2559.28C1564.67 2552.07 1574.44 2548.03 1584.63 2548.03H2793.77C2803.96 2548.03 2813.73 2552.07 2820.93 2559.28C2828.13 2566.48 2832.18 2576.25 2832.18 2586.43C2832.18 2596.62 2828.13 2606.39 2820.93 2613.59C2813.73 2620.8 2803.96 2624.84 2793.77 2624.84Z" fill="#CCCCCC"/>
<path d="M2952.2 2754.61H1584.63C1574.44 2754.61 1564.67 2750.57 1557.47 2743.36C1550.27 2736.16 1546.22 2726.39 1546.22 2716.2C1546.22 2706.02 1550.27 2696.25 1557.47 2689.05C1564.67 2681.84 1574.44 2677.8 1584.63 2677.8H2952.2C2962.39 2677.8 2972.16 2681.84 2979.36 2689.05C2986.56 2696.25 2990.61 2706.02 2990.61 2716.2C2990.61 2726.39 2986.56 2736.16 2979.36 2743.36C2972.16 2750.57 2962.39 2754.61 2952.2 2754.61Z" fill="#CCCCCC"/>
<path d="M2793.73 3052.4H1584.58C1574.4 3052.39 1564.65 3048.34 1557.45 3041.14C1550.26 3033.94 1546.22 3024.18 1546.22 3014C1546.22 3003.82 1550.26 2994.06 1557.45 2986.86C1564.65 2979.65 1574.4 2975.6 1584.58 2975.59H2793.73C2803.91 2975.59 2813.68 2979.64 2820.88 2986.84C2828.09 2994.04 2832.13 3003.81 2832.13 3014C2832.13 3024.18 2828.09 3033.95 2820.88 3041.16C2813.68 3048.36 2803.91 3052.4 2793.73 3052.4Z" fill="#CCCCCC"/>
<path d="M2952.16 3182.17H1584.58C1574.4 3182.16 1564.65 3178.11 1557.45 3170.91C1550.26 3163.71 1546.22 3153.94 1546.22 3143.77C1546.22 3133.59 1550.26 3123.83 1557.45 3116.63C1564.65 3109.42 1574.4 3105.37 1584.58 3105.36H2952.16C2962.34 3105.36 2972.11 3109.41 2979.31 3116.61C2986.52 3123.81 2990.56 3133.58 2990.56 3143.77C2990.56 3153.95 2986.52 3163.72 2979.31 3170.92C2972.11 3178.13 2962.34 3182.17 2952.16 3182.17Z" fill="#CCCCCC"/>
<path d="M2793.77 3479.96H1584.63C1574.44 3479.96 1564.67 3475.92 1557.47 3468.71C1550.27 3461.51 1546.22 3451.74 1546.22 3441.56C1546.22 3431.37 1550.27 3421.6 1557.47 3414.4C1564.67 3407.2 1574.44 3403.15 1584.63 3403.15H2793.77C2803.96 3403.15 2813.73 3407.2 2820.93 3414.4C2828.13 3421.6 2832.18 3431.37 2832.18 3441.56C2832.18 3451.74 2828.13 3461.51 2820.93 3468.71C2813.73 3475.92 2803.96 3479.96 2793.77 3479.96Z" fill="#CCCCCC"/>
<path d="M2952.2 3609.74H1584.63C1574.44 3609.74 1564.67 3605.69 1557.47 3598.49C1550.27 3591.28 1546.22 3581.52 1546.22 3571.33C1546.22 3561.14 1550.27 3551.37 1557.47 3544.17C1564.67 3536.97 1574.44 3532.92 1584.63 3532.92H2952.2C2962.39 3532.92 2972.16 3536.97 2979.36 3544.17C2986.56 3551.37 2990.61 3561.14 2990.61 3571.33C2990.61 3581.52 2986.56 3591.28 2979.36 3598.49C2972.16 3605.69 2962.39 3609.74 2952.2 3609.74Z" fill="#CCCCCC"/>
<path d="M3106.77 3354.96C3057.05 3354.91 3007.79 3364.65 2961.83 3383.64C2915.87 3402.64 2874.11 3430.5 2838.93 3465.64C2803.74 3500.79 2775.83 3542.52 2756.79 3588.46C2737.74 3634.4 2727.94 3683.64 2727.94 3733.37C2727.94 3783.1 2737.74 3832.34 2756.79 3878.28C2775.83 3924.22 2803.74 3965.95 2838.92 4001.09C2874.11 4036.24 2915.87 4064.1 2961.83 4083.1C3007.79 4102.09 3057.04 4111.84 3106.77 4111.78C3207.02 4111.6 3303.1 4071.66 3373.92 4000.71C3444.74 3929.76 3484.52 3833.62 3484.52 3733.37C3484.52 3633.13 3444.74 3536.98 3373.92 3466.03C3303.1 3395.08 3207.02 3355.14 3106.77 3354.96Z" fill="#DA3435"/>
<path d="M3049.42 3546.48C3047.03 3515.94 3071.16 3489.83 3101.8 3489.83C3132.43 3489.83 3156.57 3515.94 3154.18 3546.48L3137.27 3762.07C3135.82 3780.58 3120.37 3794.86 3101.8 3794.86C3083.23 3794.86 3067.78 3780.58 3066.33 3762.07L3049.42 3546.48Z" fill="white"/>
<path d="M3100.57 3866.63C3074.14 3866.63 3052.72 3888.05 3052.72 3914.48C3052.72 3940.91 3074.14 3962.33 3100.57 3962.33C3127 3962.33 3148.42 3940.91 3148.42 3914.48C3148.42 3888.05 3127 3866.63 3100.57 3866.63Z" fill="white"/>
</g>
<defs>
<clipPath id="clip0_1861_201">
<rect width="4111.93" height="3720.16" fill="white" transform="translate(131.344 391.609)"/>
</clipPath>
</defs>
</svg>
