<svg width="4374" height="4374" viewBox="0 0 4374 4374" fill="none" xmlns="http://www.w3.org/2000/svg">
<g clip-path="url(#clip0_1861_127)">
<g clip-path="url(#clip1_1861_127)">
<path d="M415.365 2058.09V1216.39C415.365 1204.36 420.14 1192.84 428.64 1184.34C437.14 1175.84 448.668 1171.06 460.688 1171.06C472.708 1171.06 484.236 1175.84 492.736 1184.34C501.236 1192.84 506.011 1204.36 506.011 1216.39V2058.09C506.011 2070.11 501.236 2081.64 492.736 2090.14C484.236 2098.64 472.708 2103.42 460.688 2103.42C448.668 2103.42 437.14 2098.64 428.64 2090.14C420.14 2081.64 415.365 2070.11 415.365 2058.09Z" fill="#ADADAD"/>
<path d="M306.881 2058.09V1216.39C306.881 1204.36 311.656 1192.84 320.156 1184.34C328.655 1175.84 340.183 1171.06 352.204 1171.06C364.224 1171.06 375.752 1175.84 384.252 1184.34C392.751 1192.84 397.526 1204.36 397.526 1216.39V2058.09C397.526 2070.11 392.751 2081.64 384.252 2090.14C375.752 2098.64 364.224 2103.42 352.204 2103.42C340.183 2103.42 328.655 2098.64 320.156 2090.14C311.656 2081.64 306.881 2070.11 306.881 2058.09Z" fill="#ADADAD"/>
<path d="M198.396 2058.09V1216.39C198.396 1204.36 203.172 1192.84 211.671 1184.34C220.171 1175.84 231.699 1171.06 243.719 1171.06C255.74 1171.06 267.268 1175.84 275.767 1184.34C284.267 1192.84 289.042 1204.36 289.042 1216.39V2058.09C289.042 2070.11 284.267 2081.64 275.767 2090.14C267.268 2098.64 255.74 2103.42 243.719 2103.42C231.699 2103.42 220.171 2098.64 211.671 2090.14C203.172 2081.64 198.396 2070.11 198.396 2058.09Z" fill="#ADADAD"/>
<path d="M4293.03 3402.48C4274.78 3402.5 4256.67 3399.35 4239.49 3393.19L4236.84 3392.23L4238.06 3386.37C4207.29 3324.21 4218.04 3239.06 4265.59 3169.04C4308.82 3105.38 4374.56 3059.11 4432.55 3018.28C4439.91 3013.1 4448.65 3010.24 4457.65 3010.07C4466.64 3009.89 4475.49 3012.42 4483.04 3017.31C4490.59 3022.21 4496.51 3029.25 4500.03 3037.53C4503.54 3045.81 4504.51 3054.96 4502.78 3063.79L4482.05 3170.19C4467.08 3246.95 4449.27 3319.6 4396.47 3364.91C4367.47 3389.18 4330.85 3402.48 4293.03 3402.48Z" fill="#E6E6E6"/>
<path d="M4428.79 3586.51C4408.7 3586.39 4388.96 3581.26 4371.36 3571.57C4353.77 3561.88 4338.87 3547.96 4328.02 3531.05L4326.52 3528.71L4330.1 3525.55C4339.38 3474.93 4383.02 3429.83 4441.61 3410.43C4494.87 3392.8 4553.66 3395.68 4605.5 3398.22C4612.35 3398.55 4618.94 3400.91 4624.45 3405C4629.96 3409.08 4634.13 3414.71 4636.43 3421.17C4638.74 3427.63 4639.07 3434.63 4637.4 3441.28C4635.72 3447.93 4632.1 3453.93 4627.01 3458.53L4568.69 3511.17C4526.31 3549.42 4484.04 3583.95 4433.05 3586.43C4431.63 3586.48 4430.21 3586.51 4428.79 3586.51Z" fill="#E6E6E6"/>
<path d="M4247.89 3642.66C4239.28 3578.52 4230.42 3513.56 4236.46 3448.74C4241.83 3391.17 4259.01 3334.95 4293.99 3288.84C4312.47 3264.5 4335.06 3243.57 4360.74 3227C4367.42 3222.7 4373.56 3233.51 4366.92 3237.8C4322.39 3266.7 4288.14 3308.95 4269.07 3358.49C4247.77 3413.88 4244.35 3474.26 4248.02 3533.1C4250.24 3568.68 4254.95 3604.03 4259.69 3639.33C4260.07 3640.92 4259.84 3642.58 4259.05 3644.01C4258.26 3645.43 4256.96 3646.51 4255.42 3647.02C4254.63 3647.23 4253.82 3647.28 4253.02 3647.18C4252.22 3647.07 4251.45 3646.81 4250.75 3646.4C4250.05 3646 4249.44 3645.46 4248.95 3644.81C4248.46 3644.17 4248.1 3643.44 4247.89 3642.66Z" fill="#F2F2F2"/>
<path d="M4223.55 3679.58C4265.01 3604.59 4313.09 3521.25 4399.01 3494.62C4422.87 3487.24 4447.94 3484.59 4472.81 3486.83C4480.64 3487.52 4478.69 3499.87 4470.87 3499.18C4429.09 3495.67 4387.41 3506.94 4353.09 3531.03C4319.89 3554.14 4294.03 3586.26 4272.15 3620.33C4258.74 3641.19 4246.74 3662.95 4234.73 3684.67C4230.89 3691.61 4219.67 3686.6 4223.55 3679.58Z" fill="#F2F2F2"/>
<path d="M4204.91 3678.43L4246.77 3679.39L3994.39 2331.11L3952.53 2339L4018.43 2688.76H3806.1L3872.01 2339L3830.15 2331.11L3579.88 3679.39L3619.63 3678.43L3751.21 2980.12H4073.33L4204.91 3678.43ZM3760.97 2928.32L3796.35 2740.56H4028.19L4063.57 2928.32H3760.97Z" fill="#A3A3A3"/>
<path d="M2377.12 2079.52V1636.74C2377.12 1623.6 2397.45 1612.9 2422.45 1612.9C2447.44 1612.9 2467.77 1623.6 2467.77 1636.74V2079.52C2467.77 2092.66 2447.44 2103.36 2422.45 2103.36C2397.45 2103.36 2377.12 2092.66 2377.12 2079.52Z" fill="#ADADAD"/>
<path d="M2268.64 2079.52V1636.74C2268.64 1623.6 2288.97 1612.9 2313.96 1612.9C2338.95 1612.9 2359.28 1623.6 2359.28 1636.74V2079.52C2359.28 2092.66 2338.95 2103.36 2313.96 2103.36C2288.97 2103.36 2268.64 2092.66 2268.64 2079.52Z" fill="#ADADAD"/>
<path d="M2160.28 2079.52V1636.74C2160.28 1623.6 2180.61 1612.9 2205.61 1612.9C2230.6 1612.9 2250.93 1623.6 2250.93 1636.74V2079.52C2250.93 2092.66 2230.6 2103.36 2205.61 2103.36C2180.61 2103.36 2160.28 2092.66 2160.28 2079.52Z" fill="#ADADAD"/>
<path d="M3072.56 1754.07C3072.36 1752.72 3071.88 1751.43 3071.14 1750.29C3070.41 1749.14 3069.45 1748.16 3068.31 1747.41L2726.62 1521.84C2731.77 1519.69 2736.08 1515.92 2738.89 1511.1C2742.3 1505.14 2743.22 1498.08 2741.45 1491.45C2739.67 1484.82 2735.34 1479.17 2729.41 1475.72L2701.37 1459.53C2695.42 1456.12 2688.36 1455.2 2681.73 1456.97C2675.1 1458.75 2669.45 1463.08 2666 1469.01C2664.13 1472.27 2663.01 1475.9 2662.72 1479.65L2416.07 1316.82C2407.79 1296.76 2395.23 1278.74 2379.27 1264.03C2363.31 1249.32 2344.34 1238.27 2323.67 1231.64V1159.84H2233.03V1231.64C2202.95 1241.25 2176.71 1260.18 2158.09 1285.68C2139.47 1311.18 2129.44 1341.93 2129.43 1373.51V1392.93H2220.08C2220.08 1408.39 2226.22 1423.21 2237.15 1434.14C2248.07 1445.07 2262.9 1451.2 2278.35 1451.2C2293.81 1451.2 2308.63 1445.07 2319.56 1434.14C2330.48 1423.21 2336.62 1408.39 2336.62 1392.93H2427.27V1373.51C2427.26 1364.2 2426.38 1354.91 2424.65 1345.76L3048.61 1757.68L2789.42 2072.8C2787.4 2072.79 2785.4 2072.77 2783.38 2072.77C2762.7 2072.77 2742.66 2073.26 2723.57 2074.1C2724.72 2070.9 2725.22 2067.51 2725.05 2064.11C2724.67 2057.26 2721.6 2050.83 2716.5 2046.24C2711.4 2041.65 2704.69 2039.26 2697.84 2039.59L2665.51 2041.28C2658.65 2041.65 2652.23 2044.73 2647.64 2049.83C2643.04 2054.93 2640.65 2061.63 2640.99 2068.49C2641.23 2072.54 2642.43 2076.47 2644.5 2079.96C2587.33 2086.04 2550.29 2094.41 2550.29 2098.67C2550.29 2105.65 2649.76 2099.01 2774.26 2098.69C2774.83 2100.31 2775.82 2101.74 2777.13 2102.85C2778.44 2103.96 2780.03 2104.7 2781.72 2105C2783.41 2105.3 2785.15 2105.14 2786.76 2104.54C2788.37 2103.95 2789.79 2102.93 2790.88 2101.6L2793.27 2098.69C2917.41 2099.03 3016.46 2105.64 3016.46 2098.67C3016.46 2092.1 2928.4 2075.76 2814.29 2073.14L3070.46 1761.68C3071.33 1760.63 3071.96 1759.41 3072.32 1758.1C3072.68 1756.79 3072.76 1755.41 3072.56 1754.07Z" fill="#A8A8A8"/>
<path d="M3082.01 3681.57H2284.23C2268.11 3681.55 2252.65 3675.14 2241.25 3663.74C2229.85 3652.34 2223.44 3636.88 2223.42 3620.76V2311.48C2223.41 2297.07 2217.68 2283.26 2207.49 2273.08C2197.3 2262.89 2183.49 2257.16 2169.09 2257.14H302.982C288.577 2257.16 274.766 2262.89 264.579 2273.08C254.393 2283.26 248.663 2297.07 248.646 2311.48V3620.76C248.628 3636.88 242.215 3652.34 230.815 3663.74C219.415 3675.14 203.958 3681.55 187.835 3681.57H160.539C144.417 3681.55 128.96 3675.14 117.56 3663.74C106.159 3652.34 99.7469 3636.88 99.7285 3620.76V2240.96C99.7718 2202.33 115.134 2165.3 142.445 2137.99C169.756 2110.68 206.785 2095.32 245.409 2095.28H2997.15C3035.77 2095.32 3072.8 2110.68 3100.11 2137.99C3127.42 2165.31 3142.78 2202.33 3142.83 2240.96V3620.76C3142.81 3636.88 3136.4 3652.34 3124.99 3663.74C3113.59 3675.14 3098.14 3681.55 3082.01 3681.57Z" fill="#BDBDBD"/>
<path d="M3139.5 2435.39H2226.57V2474.24H3139.5V2435.39Z" fill="white"/>
<path d="M3139.5 2959.83H2226.57V2998.68H3139.5V2959.83Z" fill="white"/>
<path d="M1470.97 2088.96L1444.73 2077.92L1426.73 1946.38H1187.03L1167.52 2077.38L1144.05 2089.12C1142.93 2089.68 1142.03 2090.6 1141.49 2091.74C1140.96 2092.88 1140.83 2094.16 1141.12 2095.38C1141.41 2096.6 1142.1 2097.69 1143.08 2098.47C1144.07 2099.25 1145.29 2099.68 1146.54 2099.68H1468.8C1470.09 2099.68 1471.34 2099.23 1472.33 2098.42C1473.33 2097.6 1474.01 2096.47 1474.27 2095.2C1474.52 2093.94 1474.33 2092.63 1473.73 2091.49C1473.13 2090.36 1472.15 2089.46 1470.97 2088.96Z" fill="#E6E6E6"/>
<path d="M1896.79 1963.91H719.345C713.168 1963.89 707.248 1961.43 702.884 1957.05C698.521 1952.68 696.07 1946.76 696.07 1940.58V1774.54H1920.06V1940.58C1920.06 1946.76 1917.61 1952.68 1913.25 1957.05C1908.89 1961.43 1902.97 1963.89 1896.79 1963.91Z" fill="#A8A8A8"/>
<path d="M1921.35 1853.01H695.053V1142.58C695.061 1135.13 698.027 1127.98 703.299 1122.71C708.571 1117.43 715.719 1114.47 723.174 1114.46H1893.23C1900.69 1114.47 1907.83 1117.43 1913.11 1122.71C1918.38 1127.98 1921.34 1135.13 1921.35 1142.58V1853.01Z" fill="#3F3D56"/>
<path d="M1848.18 1801.39H768.359C762.612 1801.38 757.101 1799.1 753.037 1795.03C748.972 1790.97 746.686 1785.46 746.68 1779.71V1187.65C746.686 1181.9 748.972 1176.39 753.037 1172.32C757.101 1168.26 762.612 1165.97 768.359 1165.96H1848.18C1853.92 1165.97 1859.43 1168.26 1863.5 1172.32C1867.56 1176.39 1869.85 1181.9 1869.85 1187.65V1779.71C1869.85 1785.46 1867.56 1790.97 1863.5 1795.03C1859.43 1799.1 1853.92 1801.38 1848.18 1801.39Z" fill="white"/>
<path d="M3058.66 1234C3068.99 1232.51 3079.52 1233.31 3089.51 1236.33C3099.5 1239.35 3108.71 1244.52 3116.48 1251.49C3124.25 1258.45 3130.4 1267.03 3134.5 1276.63C3138.6 1286.23 3140.54 1296.61 3140.19 1307.04L3376.94 1398.17L3269.67 1474.8L3061.3 1376.52C3043.82 1374.77 3027.58 1366.67 3015.67 1353.75C3003.76 1340.84 2997 1324 2996.68 1306.43C2996.35 1288.86 3002.48 1271.79 3013.91 1258.44C3025.33 1245.09 3041.26 1236.39 3058.66 1234Z" fill="#9E616A"/>
<path d="M3957.48 1189.16L3997.54 1261.98C3987.86 1308.17 3962.84 1349.72 3926.56 1379.89C3865.24 1431.61 3544.6 1624.22 3544.6 1624.22L3139.82 1421.01L3210.64 1326.92L3528.43 1433.42C3646.31 1322.1 3788.57 1239.86 3943.87 1193.25L3957.48 1189.16Z" fill="#BDBDBD"/>
<path d="M3883.03 2394.21C4057.5 2394.21 4198.94 2348.12 4198.94 2291.27C4198.94 2234.42 4057.5 2188.34 3883.03 2188.34C3708.56 2188.34 3567.13 2234.42 3567.13 2291.27C3567.13 2348.12 3708.56 2394.21 3883.03 2394.21Z" fill="#A3A3A3"/>
<path d="M3174.38 3591.18L3090.49 3568L3140.01 3233.4L3263.82 3267.63L3174.38 3591.18Z" fill="#9E616A"/>
<path d="M3173.32 3678.54L2902.84 3603.77L2903.79 3600.35C2911.51 3572.43 2930 3548.72 2955.2 3534.43C2980.4 3520.15 3010.24 3516.46 3038.17 3524.17L3038.17 3524.17L3203.37 3569.84L3173.32 3678.54Z" fill="#2F2E41"/>
<path d="M2931.09 3592.37L2851.47 3557.21L2949.18 3233.4L3066.69 3285.28L2931.09 3592.37Z" fill="#9E616A"/>
<path d="M2917.35 3678.48L2660.63 3565.12L2662.07 3561.88C2673.77 3535.38 2695.52 3514.61 2722.53 3504.15C2749.54 3493.68 2779.61 3494.37 2806.11 3506.07L2806.11 3506.08L2962.91 3575.31L2917.35 3678.48Z" fill="#2F2E41"/>
<path d="M4128.97 2039.74C4128.97 2039.74 4171.16 2170.48 3912.25 2335.83L3578.8 2668.1L3232.32 3496.9L3026.62 3404.68L3066.97 3296.99L3094.04 3224.73L3107.89 3187.76L3122.73 3148.13L3342.95 2560.32L3527.93 2236.43L3533.3 2060.69L3578.8 1936.8L3908.9 1819.67L4128.97 2039.74Z" fill="#2F2E41"/>
<path d="M3960.57 2046.11C3960.57 2046.11 4002.77 2176.85 3743.85 2342.2L3410.4 2674.47L3063.92 3503.27L2858.22 3411.05L2898.57 3303.36L2925.64 3231.1L2939.49 3194.13L2954.34 3154.5L3174.55 2566.69L3236.49 2458.24C3318.2 2315.18 3417.48 2182.9 3532.03 2064.49L3592.75 2001.72L3599.23 1904.6L3740.5 1826.04L3960.57 2046.11Z" fill="#2F2E41"/>
<path d="M3761.08 1406.17L3864.68 1186.03L4045.46 1161.37C4045.46 1161.37 4186.63 1341.22 4149.56 1593.94C4135.67 1688.71 4124.34 1783.06 4123.67 1865.87C4123.49 1887.91 4142.76 1897.75 4143.09 1917.67C4143.41 1937.24 4106.55 1969.12 4117.19 1982.42C4132.4 2000.75 4141.46 2023.4 4143.09 2047.16C4130.26 2077.7 3741.94 1912.27 3578.73 1936.82L3761.08 1406.17Z" fill="#BDBDBD"/>
<path d="M4017.84 1050.5C4063.99 972.871 4038.47 872.534 3960.84 826.389C3883.21 780.244 3782.87 805.765 3736.73 883.393C3690.58 961.02 3716.11 1061.36 3793.73 1107.5C3871.36 1153.65 3971.7 1128.13 4017.84 1050.5Z" fill="#9E616A"/>
<path d="M3981.83 908.138C3981.52 912.441 3981.09 918.139 3980.59 924.586C3980.08 942.234 3985.05 959.606 3994.82 974.311C4003.97 989.781 3993.05 1083.22 3993.05 1083.22C4260.9 896.514 4049.26 708.939 3966.48 725.613C3968.2 701.869 3900.69 711.275 3900.69 711.275C3874.96 671.211 3818.57 724.393 3818.57 724.393L3829.45 706.09C3785.68 717.224 3742.41 852.517 3742.41 852.517C3757.26 910.884 3983.56 884.395 3981.83 908.138Z" fill="#2F2E41"/>
<path d="M2942.83 1492.63C3034.87 1370.2 3107.63 1234.41 3158.58 1089.96C3161.54 1081.32 3161.33 1071.92 3157.99 1063.42C3154.66 1054.92 3148.42 1047.88 3140.38 1043.55L2825.41 874.784C2820.32 872.033 2814.66 870.481 2808.88 870.246C2803.09 870.011 2797.33 871.1 2792.03 873.429C2786.63 875.775 2781.83 879.323 2778.01 883.802C2774.19 888.281 2771.44 893.572 2769.97 899.274C2733.31 1038.46 2664.4 1167.07 2568.82 1274.69C2564.88 1279.07 2562 1284.29 2560.39 1289.95C2558.77 1295.61 2558.47 1301.57 2559.51 1307.37C2560.51 1313.07 2562.79 1318.47 2566.19 1323.16C2569.59 1327.85 2574.02 1331.7 2579.13 1334.41L2894.1 1503.18C2902.15 1507.48 2911.47 1508.77 2920.4 1506.84C2929.32 1504.91 2937.27 1499.87 2942.83 1492.63Z" fill="#A8A8A8"/>
<path d="M2921.35 1476.37C2919.65 1478.48 2917.27 1479.94 2914.62 1480.49C2911.97 1481.03 2909.2 1480.64 2906.81 1479.37L2591.85 1310.6C2590.32 1309.8 2588.99 1308.66 2587.98 1307.27C2586.96 1305.87 2586.29 1304.26 2586 1302.56C2585.67 1300.77 2585.76 1298.92 2586.27 1297.17C2586.77 1295.41 2587.68 1293.8 2588.91 1292.45C2687.31 1181.67 2758.25 1049.27 2795.99 905.979C2796.43 904.208 2797.27 902.563 2798.44 901.171C2799.62 899.78 2801.11 898.68 2802.78 897.958C2804.36 897.253 2806.08 896.923 2807.81 896.994C2809.53 897.065 2811.22 897.536 2812.73 898.369L3127.69 1067.13C3130.08 1068.42 3131.94 1070.5 3132.95 1073.02C3133.96 1075.53 3134.07 1078.32 3133.24 1080.91C3083.2 1222.77 3011.74 1356.13 2921.35 1476.37Z" fill="white"/>
<path d="M2811.12 1058.78L3028.36 1186.11C3049.98 1198.78 3069.55 1165.21 3047.97 1152.56L2830.73 1025.23C2809.12 1012.56 2789.54 1046.13 2811.12 1058.78Z" fill="#DA3435"/>
<path d="M2772.24 1130.16L2989.48 1257.49C3011.1 1270.16 3030.67 1236.6 3009.09 1223.95L2791.85 1096.62C2770.24 1083.95 2750.66 1117.51 2772.24 1130.16Z" fill="#DA3435"/>
<path d="M2726.99 1207.67L2944.23 1335C2965.84 1347.67 2985.42 1314.11 2963.84 1301.46L2746.6 1174.13C2724.98 1161.46 2705.41 1195.02 2726.99 1207.67Z" fill="#DA3435"/>
<path d="M2681.61 1272.43L2898.84 1399.76C2920.46 1412.43 2940.03 1378.86 2918.45 1366.22L2701.21 1238.88C2679.6 1226.21 2660.03 1259.78 2681.61 1272.43Z" fill="#DA3435"/>
<path d="M3671.97 2021.55L3753.52 2204.95C3755.49 2209.34 3756.33 2214.15 3755.97 2218.95C3755.61 2223.75 3754.06 2228.38 3751.46 2232.43C3748.4 2237.27 3743.97 2241.09 3738.74 2243.41C3733.51 2245.74 3727.71 2246.47 3722.06 2245.5C3720.14 2245.21 3718.26 2244.71 3716.44 2244C3709.23 2241.22 3703.42 2235.69 3700.28 2228.63L3618.72 2045.23C3617.17 2041.74 3616.32 2037.97 3616.22 2034.14C3616.12 2030.32 3616.78 2026.51 3618.15 2022.94C3620.92 2015.73 3626.45 2009.91 3633.51 2006.77C3640.57 2003.63 3648.59 2003.43 3655.8 2006.2C3663.01 2008.97 3668.83 2014.49 3671.97 2021.55Z" fill="#DA3435"/>
<path d="M3746.96 2190.12L3763.3 2227.14L3771.65 2279.61C3772.21 2283.07 3771.6 2286.61 3769.93 2289.68C3768.27 2292.76 3765.63 2295.2 3762.43 2296.62C3759.23 2298.04 3755.66 2298.36 3752.26 2297.54C3748.86 2296.72 3745.82 2294.8 3743.63 2292.07L3709.82 2250.01L3693.71 2213.8L3746.96 2190.12Z" fill="#3F3D56"/>
<path d="M3600.6 1970.37L3612.29 2043.79C3612.67 2046.19 3613.6 2048.48 3615.01 2050.46C3616.41 2052.45 3618.25 2054.09 3620.39 2055.25C3622.53 2056.41 3624.91 2057.06 3627.34 2057.16C3629.77 2057.26 3632.2 2056.79 3634.42 2055.8L3646.01 2050.65L3668.37 2100.94C3669.07 2102.5 3670.36 2103.73 3671.96 2104.34C3673.57 2104.96 3675.35 2104.91 3676.91 2104.21C3678.48 2103.52 3679.71 2102.23 3680.32 2100.62C3680.94 2099.02 3680.9 2097.24 3680.2 2095.68L3657.84 2045.39L3669.43 2040.24C3673.27 2038.53 3676.27 2035.36 3677.79 2031.44C3679.3 2027.52 3679.2 2023.16 3677.51 2019.31C3676.94 2018.03 3676.21 2016.84 3675.33 2015.75L3628.64 1957.9C3626.44 1955.17 3623.4 1953.25 3620 1952.43C3616.6 1951.61 3613.03 1951.94 3609.83 1953.36C3606.63 1954.78 3604 1957.22 3602.33 1960.3C3600.66 1963.37 3600.05 1966.91 3600.6 1970.37Z" fill="#3F3D56"/>
<path d="M3634.49 2103C3636.33 2092.73 3640.4 2082.98 3646.41 2074.45C3652.42 2065.92 3660.23 2058.81 3669.29 2053.62C3678.34 2048.44 3688.43 2045.3 3698.83 2044.43C3709.23 2043.56 3719.69 2044.99 3729.48 2048.6L3890.48 1852.56L3929.47 1978.49L3770.6 2145.35C3763.44 2161.39 3750.64 2174.25 3734.64 2181.49C3718.63 2188.73 3700.52 2189.85 3683.74 2184.63C3666.96 2179.41 3652.68 2168.21 3643.61 2153.17C3634.53 2138.13 3631.29 2120.27 3634.49 2103Z" fill="#9E616A"/>
<path d="M3837.16 2090.36L3766.25 1987.93L3967.61 1719.46L3863.88 1497.18L3871.43 1232.79L3957.15 1216.95L3958.21 1217.49C3999.88 1241.47 4032.1 1279 4049.5 1323.82C4070.88 1377.28 4118.62 1577.95 4145.17 1692.81C4150.38 1715.07 4149.81 1738.29 4143.51 1760.27C4137.21 1782.24 4125.39 1802.24 4109.17 1818.35L3837.16 2090.36Z" fill="#BDBDBD"/>
<path d="M1840.55 1595.4C1839.96 1600.38 1839.77 1605.39 1839.97 1610.4L1476.91 1874.52L1377.17 1830.38L1290.88 1972.2L1459.86 2067.5C1473.51 2075.2 1489.29 2078.27 1504.83 2076.23C1520.37 2074.2 1534.83 2067.18 1546.04 2056.23L1911.44 1699.32C1930.15 1704.08 1949.85 1703.02 1967.94 1696.3C1986.03 1689.58 2001.65 1677.51 2012.71 1661.7C2023.77 1645.89 2029.76 1627.08 2029.87 1607.78C2029.99 1588.49 2024.23 1569.61 2013.35 1553.67C2002.48 1537.73 1987.01 1525.47 1969 1518.54C1950.99 1511.6 1931.29 1510.32 1912.54 1514.85C1893.78 1519.38 1876.84 1529.51 1863.98 1543.9C1851.13 1558.29 1842.95 1576.26 1840.55 1595.4Z" fill="#FFB6B6"/>
<path d="M1465.18 1884L1359.3 2060.42C1356.29 2065.44 1352.23 2069.75 1347.4 2073.06C1342.57 2076.37 1337.09 2078.6 1331.32 2079.6C1325.55 2080.6 1319.64 2080.34 1313.98 2078.85C1308.31 2077.35 1303.04 2074.66 1298.52 2070.94L1140 1940.75C1114.41 1925.19 1096.03 1900.12 1088.9 1871.03C1081.77 1841.95 1086.46 1811.22 1101.94 1785.58C1117.43 1759.95 1142.45 1741.5 1171.51 1734.28C1200.58 1727.06 1231.32 1731.66 1257 1747.07L1445.87 1825.41C1451.27 1827.66 1456.13 1831.04 1460.11 1835.33C1464.09 1839.62 1467.1 1844.72 1468.94 1850.28C1470.77 1855.84 1471.38 1861.73 1470.73 1867.55C1470.08 1873.37 1468.19 1878.98 1465.18 1884Z" fill="#DA3435"/>
<path d="M1011.58 3417.48H1219.11V3073.57H1011.58V3417.48Z" fill="#A3A3A3"/>
<path d="M1208.65 3255.59L1182.02 3294.84L1680.09 3632.82L1706.73 3593.56L1208.65 3255.59Z" fill="#A3A3A3"/>
<path d="M1021.92 3255.68L523.848 3593.65L550.484 3632.91L1048.55 3294.93L1021.92 3255.68Z" fill="#A3A3A3"/>
<path d="M1693.41 3678.46C1729.43 3678.46 1758.64 3649.26 1758.64 3613.24C1758.64 3577.22 1729.43 3548.02 1693.41 3548.02C1657.39 3548.02 1628.19 3577.22 1628.19 3613.24C1628.19 3649.26 1657.39 3678.46 1693.41 3678.46Z" fill="#A3A3A3"/>
<path d="M1112.37 3678.46C1148.39 3678.46 1177.59 3649.26 1177.59 3613.24C1177.59 3577.22 1148.39 3548.02 1112.37 3548.02C1076.35 3548.02 1047.14 3577.22 1047.14 3613.24C1047.14 3649.26 1076.35 3678.46 1112.37 3678.46Z" fill="#A3A3A3"/>
<path d="M537.188 3678.46C573.21 3678.46 602.412 3649.26 602.412 3613.24C602.412 3577.22 573.21 3548.02 537.188 3548.02C501.166 3548.02 471.965 3577.22 471.965 3613.24C471.965 3649.26 501.166 3678.46 537.188 3678.46Z" fill="#A3A3A3"/>
<path d="M1136.01 3275.21H1088.57V3613.19H1136.01V3275.21Z" fill="#A3A3A3"/>
<path d="M1070.89 3227.79H1159.84V2771.22H1070.89V3227.79Z" fill="#A3A3A3"/>
<path d="M860.389 2842.38V2735.65C860.411 2716 868.227 2697.16 882.122 2683.27C896.017 2669.37 914.856 2661.56 934.506 2661.54H1331.78C1351.43 2661.56 1370.27 2669.37 1384.16 2683.27C1398.06 2697.16 1405.87 2716 1405.89 2735.65V2842.38C1405.87 2862.03 1398.06 2880.87 1384.16 2894.77C1370.27 2908.66 1351.43 2916.48 1331.78 2916.5H934.506C914.856 2916.48 896.017 2908.66 882.122 2894.77C868.227 2880.87 860.411 2862.03 860.389 2842.38Z" fill="#3F3D56"/>
<path d="M1577.85 3571.9L1687.71 3571.9L1739.99 3286.94L1577.84 3286.95L1577.85 3571.9Z" fill="#FFB8B8"/>
<path d="M1549.8 3678.41L1904.06 3678.4V3673.92C1904.06 3655.81 1900.49 3637.88 1893.56 3621.15C1886.64 3604.42 1876.48 3589.22 1863.68 3576.42C1850.87 3563.61 1835.67 3553.46 1818.94 3546.53C1802.21 3539.6 1784.28 3536.03 1766.18 3536.03H1766.16L1549.79 3536.04L1549.8 3678.41Z" fill="#2F2E41"/>
<path d="M1742.15 3395.22L1961.18 2904.04C1979.47 2862.65 1981.49 2815.88 1966.84 2773.06C1952.2 2730.23 1921.96 2694.5 1882.15 2672.97L1407.06 2418.21L1190.26 2399.77L990.285 2381.59L988.843 2384.04C986.999 2387.15 944.001 2461.42 973.066 2542.85C995.112 2604.62 1052.46 2652.87 1143.51 2686.26C1356.03 2764.18 1601.53 2830.78 1697.22 2855.8C1701.45 2856.88 1705.4 2858.84 1708.82 2861.56C1712.23 2864.28 1715.03 2867.69 1717.04 2871.57C1719.05 2875.4 1720.24 2879.61 1720.54 2883.92C1720.84 2888.24 1720.25 2892.57 1718.8 2896.65L1515.31 3353.83C1513.18 3359.63 1512.42 3365.84 1513.07 3371.98C1513.72 3378.12 1515.78 3384.03 1519.08 3389.25C1522.38 3394.47 1526.83 3398.86 1532.09 3402.09C1537.36 3405.32 1543.29 3407.29 1549.44 3407.86L1701.49 3418.93C1702.78 3419.06 1704.07 3419.12 1705.35 3419.12C1713.14 3419.11 1720.76 3416.86 1727.29 3412.61C1733.82 3408.37 1738.98 3402.33 1742.15 3395.22Z" fill="#2F2E41"/>
<path d="M1506.21 3571.9L1616.07 3571.9L1668.35 3286.94L1506.19 3286.95L1506.21 3571.9Z" fill="#FFB8B8"/>
<path d="M1478.16 3678.41L1832.42 3678.4V3673.92C1832.42 3655.81 1828.85 3637.88 1821.92 3621.15C1814.99 3604.42 1804.84 3589.22 1792.03 3576.42C1779.23 3563.61 1764.03 3553.46 1747.3 3546.53C1730.57 3539.6 1712.64 3536.03 1694.53 3536.03H1694.52L1478.15 3536.04L1478.16 3678.41Z" fill="#2F2E41"/>
<path d="M1661.52 3422.09L1880.55 2930.92C1898.84 2889.52 1900.86 2842.75 1886.21 2799.93C1871.57 2757.11 1841.33 2721.38 1801.52 2699.85L1326.43 2445.09L1109.63 2426.65L952.999 2413.06L953.021 2410.91C951.176 2414.03 908.179 2488.29 937.243 2569.73C959.29 2631.5 971.826 2679.75 1062.88 2713.13C1275.4 2791.06 1520.9 2857.66 1616.59 2882.67C1620.82 2883.75 1624.77 2885.72 1628.19 2888.44C1631.6 2891.15 1634.4 2894.56 1636.41 2898.44C1638.41 2902.28 1639.61 2906.48 1639.91 2910.8C1640.21 2915.12 1639.62 2919.45 1638.16 2923.52L1434.67 3380.7C1432.55 3386.5 1431.78 3392.71 1432.44 3398.85C1433.09 3404.99 1435.15 3410.9 1438.45 3416.12C1441.74 3421.34 1446.2 3425.74 1451.46 3428.96C1456.73 3432.19 1462.66 3434.17 1468.81 3434.74L1620.86 3445.81C1622.15 3445.93 1623.44 3445.99 1624.72 3445.99C1632.51 3445.99 1640.12 3443.73 1646.66 3439.49C1653.19 3435.25 1658.35 3429.2 1661.52 3422.09Z" fill="#2F2E41"/>
<path d="M1524.18 1306.59C1552.3 1188.33 1479.23 1069.65 1360.97 1041.53C1242.7 1013.4 1124.03 1086.48 1095.9 1204.74C1067.78 1323.01 1140.85 1441.68 1259.12 1469.8C1377.38 1497.93 1496.05 1424.86 1524.18 1306.59Z" fill="#FFB8B8"/>
<path d="M2068.71 2101.21C2160.75 1978.78 2233.51 1842.99 2284.47 1698.54C2287.42 1689.9 2287.21 1680.49 2283.88 1672C2280.54 1663.5 2274.3 1656.45 2266.26 1652.13L1951.3 1483.36C1946.2 1480.61 1940.55 1479.06 1934.76 1478.82C1928.98 1478.59 1923.21 1479.68 1917.91 1482.01C1912.51 1484.35 1907.72 1487.9 1903.89 1492.38C1900.07 1496.86 1897.32 1502.15 1895.85 1507.85C1859.19 1647.04 1790.28 1775.65 1694.7 1883.27C1690.77 1887.65 1687.88 1892.87 1686.27 1898.53C1684.66 1904.19 1684.36 1910.15 1685.4 1915.95C1686.39 1921.65 1688.68 1927.05 1692.08 1931.74C1695.48 1936.43 1699.9 1940.27 1705.02 1942.99L2019.98 2111.76C2028.04 2116.05 2037.36 2117.35 2046.28 2115.42C2055.2 2113.49 2063.15 2108.45 2068.71 2101.21Z" fill="#A8A8A8"/>
<path d="M2047.23 2085.2C2045.54 2087.32 2043.16 2088.77 2040.5 2089.32C2037.85 2089.87 2035.09 2089.47 2032.69 2088.2L1717.73 1919.44C1716.2 1918.64 1714.88 1917.5 1713.86 1916.1C1712.85 1914.71 1712.17 1913.1 1711.88 1911.4C1711.55 1909.6 1711.64 1907.76 1712.15 1906C1712.65 1904.25 1713.56 1902.64 1714.79 1901.29C1813.19 1790.5 1884.13 1658.11 1921.87 1514.81C1922.31 1513.04 1923.15 1511.4 1924.33 1510.01C1925.51 1508.62 1926.99 1507.52 1928.66 1506.79C1930.24 1506.09 1931.96 1505.76 1933.69 1505.83C1935.42 1505.9 1937.1 1506.37 1938.62 1507.21L2253.57 1675.97C2255.96 1677.26 2257.82 1679.34 2258.83 1681.85C2259.85 1684.37 2259.95 1687.16 2259.13 1689.74C2209.08 1831.6 2137.62 1964.96 2047.23 2085.2Z" fill="white"/>
<path d="M1937.01 1667.36L2154.25 1794.69C2175.86 1807.36 2195.43 1773.79 2173.85 1761.15L1956.62 1633.81C1935 1621.14 1915.43 1654.71 1937.01 1667.36Z" fill="#A8A8A8"/>
<path d="M1898.12 1738.74L2115.36 1866.08C2136.98 1878.74 2156.55 1845.18 2134.97 1832.53L1917.73 1705.2C1896.12 1692.53 1876.54 1726.1 1898.12 1738.74Z" fill="#A8A8A8"/>
<path d="M1867.66 1809.66L2065.23 1926.95C2084.89 1938.62 2105.91 1914.49 2086.29 1902.84L1888.72 1785.55C1869.06 1773.88 1848.04 1798.01 1867.66 1809.66Z" fill="#A8A8A8"/>
<path d="M1807.49 1881.01L2024.73 2008.34C2046.34 2021.01 2065.92 1987.45 2044.34 1974.8L1827.1 1847.47C1805.48 1834.8 1785.91 1868.36 1807.49 1881.01Z" fill="#A8A8A8"/>
<path d="M1436.89 2436.08L1001.32 2433.47L1001.2 2430.38C992.892 2211.83 1019.6 2013.86 1082.85 1825.16C1083.75 1818.1 1084.71 1810.55 1085.66 1803.14C1096.47 1718.71 1105.05 1651.68 1185.33 1626.72C1178.64 1617.83 1174.69 1607.17 1173.98 1596.07C1173.48 1588.69 1174.44 1581.28 1176.83 1574.28C1179.21 1567.27 1182.97 1560.81 1187.87 1555.28C1192.56 1549.93 1198.27 1545.57 1204.67 1542.45C1211.06 1539.33 1218.01 1537.51 1225.12 1537.1L1380.16 1531.83C1388.3 1531.77 1396.23 1534.46 1402.67 1539.46C1414.47 1548.23 1422.77 1560.91 1426.07 1575.24C1429.37 1589.57 1427.46 1604.6 1420.69 1617.65C1418.86 1621.29 1418.16 1622.94 1417.9 1623.67C1423.41 1652.54 1439.76 1686.84 1457.07 1723.14C1481.85 1775.12 1509.93 1834.02 1517.15 1897.04C1521.05 1931.07 1519.43 1965.5 1512.35 1999.01C1509.12 2017.07 1508.38 2035.49 1510.14 2053.74C1511.56 2080.82 1512.89 2106.38 1497.59 2131.11C1493.69 2137.81 1489.23 2144.95 1483.99 2152.87L1462.46 2204.33L1436.89 2436.08Z" fill="#DA3435"/>
<path d="M783.266 2741.83V1851.81C783.298 1822.81 794.834 1795 815.341 1774.49C835.849 1753.99 863.654 1742.45 892.656 1742.42H922.911C951.913 1742.45 979.718 1753.99 1000.23 1774.49C1020.73 1795 1032.27 1822.81 1032.3 1851.81V2741.83C1032.27 2770.83 1020.73 2798.63 1000.23 2819.14C979.718 2839.65 951.913 2851.18 922.911 2851.22H892.656C863.654 2851.18 835.849 2839.65 815.341 2819.14C794.834 2798.63 783.298 2770.83 783.266 2741.83Z" fill="#3F3D56"/>
<path d="M1951.28 1940.67C1948.15 1944.58 1945.34 1948.74 1942.86 1953.09L1495.09 1985.79L1433.68 1895.65L1285.53 1970.55L1378.74 2140.69C1386.27 2154.43 1398.06 2165.36 1412.33 2171.84C1426.6 2178.32 1442.59 2179.99 1457.89 2176.61L1956.63 2066.35C1970.01 2080.26 1987.3 2089.77 2006.22 2093.61C2025.13 2097.45 2044.76 2095.44 2062.5 2087.85C2080.25 2080.26 2095.26 2067.45 2105.54 2051.12C2115.82 2034.79 2120.89 2015.71 2120.07 1996.43C2119.25 1977.15 2112.58 1958.58 2100.94 1943.18C2089.31 1927.79 2073.26 1916.3 2054.94 1910.24C2036.61 1904.19 2016.88 1903.86 1998.36 1909.29C1979.85 1914.73 1963.42 1925.67 1951.28 1940.67Z" fill="#FFB6B6"/>
<path d="M1480.11 1987.81L1297.06 2081.76C1291.85 2084.44 1286.13 2085.96 1280.28 2086.22C1274.43 2086.48 1268.6 2085.48 1263.17 2083.28C1257.74 2081.09 1252.85 2077.74 1248.83 2073.49C1244.82 2069.23 1241.76 2064.16 1239.88 2058.61L1173.96 1864.37C1160.45 1837.7 1158.04 1806.76 1167.27 1778.33C1176.5 1749.89 1196.62 1726.27 1223.22 1712.63C1142.08 1754.28 1311.07 1635.97 1375.57 1761.63L1494.63 1927.85C1498.04 1932.61 1500.38 1938.05 1501.5 1943.8C1502.61 1949.55 1502.48 1955.47 1501.1 1961.16C1499.72 1966.85 1497.13 1972.17 1493.51 1976.77C1489.89 1981.37 1485.32 1985.13 1480.11 1987.81Z" fill="#DA3435"/>
<path d="M1210.58 1469.72C1197.33 1469.72 1182.71 1463.34 1166.23 1450.4C1117.74 1412.32 1083.07 1359.38 1067.56 1299.7C1052.04 1240.03 1056.53 1176.91 1080.34 1120.03C1092.33 1091.4 1114.74 1052.5 1153.46 1029.7C1181.29 1013.32 1213.99 1007.4 1242.45 1003.14C1267.09 999.443 1292.04 996.503 1316.61 994.41C1345.96 991.9 1379.86 990.205 1410.79 1001.95C1433.44 1010.56 1452.73 1025.77 1471.38 1040.48C1477.88 1045.6 1484.6 1050.9 1491.33 1055.81C1507.65 1068.54 1526.46 1077.67 1546.55 1082.63C1550.79 1083.51 1554.79 1085.28 1558.28 1087.84C1561.77 1090.4 1564.67 1093.68 1566.79 1097.45C1568.95 1101.29 1570.26 1105.55 1570.63 1109.94C1571.01 1114.33 1570.43 1118.74 1568.95 1122.89C1566.04 1131.05 1563.42 1138.4 1568.73 1146.37C1570.7 1149.17 1573.32 1151.46 1576.38 1153.01C1579.43 1154.57 1582.82 1155.35 1586.25 1155.3C1588.06 1155.27 1589.85 1155.69 1591.45 1156.53C1593.05 1157.36 1594.42 1158.59 1595.43 1160.09C1596.46 1161.58 1597.1 1163.29 1597.31 1165.09C1597.52 1166.88 1597.29 1168.7 1596.63 1170.38L1595.78 1172.58C1598.06 1172.79 1600.25 1173.55 1602.17 1174.8C1604.09 1176.05 1605.68 1177.74 1606.79 1179.74C1608.46 1182.58 1609.1 1185.91 1608.61 1189.17C1608.13 1192.43 1606.55 1195.42 1604.13 1197.66C1584.49 1216.36 1560 1229.17 1533.44 1234.66C1515.27 1238.22 1496.57 1238.18 1478.42 1234.53L1475.49 1233.96L1475.85 1230.72C1402.4 1204.53 1336.1 1248.98 1298.31 1299.81L1292.85 1296.36C1293.79 1294.47 1294.33 1292.4 1294.45 1290.29C1294.57 1288.18 1294.26 1286.07 1293.54 1284.08C1292.78 1281.7 1291.56 1279.48 1289.94 1277.57C1288.32 1275.66 1286.34 1274.09 1284.12 1272.94C1279.62 1271.08 1274.67 1270.6 1269.89 1271.55C1265.12 1272.51 1260.73 1274.85 1257.29 1278.3C1253.78 1281.97 1251.08 1286.34 1249.35 1291.12C1247.62 1295.89 1246.91 1300.98 1247.25 1306.05C1248.25 1316.79 1250.98 1327.3 1255.36 1337.16C1257.13 1341.88 1258.97 1346.76 1260.46 1351.68C1268.83 1379.63 1266.6 1409.67 1254.2 1436.08C1248.48 1448.12 1238.13 1463.48 1221.34 1468.24C1217.84 1469.23 1214.22 1469.73 1210.58 1469.72Z" fill="#2F2E41"/>
<path d="M4788.27 3691.42H-438.7C-440.74 3691.42 -442.696 3690.6 -444.137 3689.16C-445.577 3687.71 -446.387 3685.75 -446.387 3683.71C-446.387 3681.67 -445.577 3679.72 -444.137 3678.27C-442.696 3676.82 -440.74 3676.01 -438.7 3676H4788.27C4790.31 3676 4792.27 3676.82 4793.72 3678.26C4795.17 3679.71 4795.98 3681.67 4795.98 3683.71C4795.98 3685.76 4795.17 3687.72 4793.72 3689.16C4792.27 3690.61 4790.31 3691.42 4788.27 3691.42Z" fill="#A3A3A3"/>
</g>
</g>
<defs>
<clipPath id="clip0_1861_127">
<rect width="4373" height="4373" fill="white" transform="translate(0.806641 0.558594)"/>
</clipPath>
<clipPath id="clip1_1861_127">
<rect width="5242.39" height="2995.04" fill="white" transform="translate(-446.387 696.332)"/>
</clipPath>
</defs>
</svg>
