<svg width="764" height="764" viewBox="0 0 764 764" fill="none" xmlns="http://www.w3.org/2000/svg">
<g clip-path="url(#clip0_187_13)">
<path d="M392.882 16.2726C399.504 20.1487 404.094 24.2654 407.367 31.3343C409.814 45.8086 409.344 60.9867 409.698 75.6337C409.763 78.1469 409.828 80.6601 409.893 83.1733C410.051 89.2711 410.203 95.3691 410.351 101.467C411.77 101.463 413.19 101.459 414.652 101.455C449.2 101.355 483.747 101.282 518.295 101.235C535.002 101.212 551.709 101.181 568.416 101.129C582.979 101.085 597.542 101.056 612.105 101.046C619.815 101.04 627.525 101.026 635.235 100.994C642.496 100.963 649.756 100.954 657.016 100.961C659.677 100.96 662.338 100.951 664.999 100.934C668.642 100.911 672.283 100.917 675.926 100.929C676.971 100.916 678.016 100.903 679.093 100.889C687.796 100.968 696.15 102.804 702.907 108.561C703.586 109.451 704.265 110.342 704.965 111.26C706.024 112.601 706.024 112.601 707.104 113.97C711.972 120.961 710.862 129.063 710.281 137.28C707.693 145.185 703.399 148.919 696.851 153.694C691.243 155.563 686.025 155.371 680.186 155.332C679 155.33 677.814 155.327 676.592 155.325C672.806 155.317 669.021 155.298 665.235 155.279C662.668 155.272 660.1 155.265 657.532 155.259C651.24 155.242 644.948 155.217 638.656 155.186C638.967 156.045 639.278 156.905 639.599 157.79C648.731 183.055 657.578 208.415 666.354 233.806C666.927 235.464 667.501 237.122 668.091 238.83C670.447 245.646 672.802 252.463 675.157 259.28C680.73 275.413 686.315 291.542 691.909 307.669C693.481 312.203 695.052 316.738 696.624 321.272C701.724 335.982 706.853 350.681 712.035 365.363C713.024 368.168 714.012 370.973 715.001 373.778C716.845 379.013 718.699 384.243 720.558 389.472C721.378 391.796 722.198 394.119 723.017 396.442C723.393 397.492 723.769 398.542 724.157 399.624C725.661 403.911 726.695 407.261 726.695 411.842C728.547 411.79 730.399 411.738 732.308 411.685C734.758 411.643 737.208 411.602 739.658 411.562C741.486 411.506 741.486 411.506 743.351 411.449C750.441 411.363 755.37 411.516 761.015 416.319C766.539 423.597 764.014 434.312 763.009 442.876C759.316 467.05 747.502 489.444 731.171 507.342C729.772 508.923 729.772 508.923 728.344 510.536C705.287 535.195 670.268 550.535 636.646 552.291C594.606 553.6 555.592 543.545 523.915 514.867C500.227 492.303 485.397 461.783 484.494 428.816C484.54 423.2 484.777 421.112 487.665 416.132C492.074 412.353 495.777 411.666 501.392 411.37C502.522 411.308 503.652 411.245 504.816 411.181C505.989 411.122 507.161 411.063 508.369 411.003C509.559 410.938 510.748 410.874 511.974 410.808C514.907 410.65 517.84 410.499 520.773 410.35C521.065 409.519 521.357 408.689 521.658 407.833C552.793 319.345 552.793 319.345 554.568 314.299C555.738 310.975 556.907 307.651 558.077 304.327C560.979 296.078 563.882 287.83 566.785 279.581C572.328 263.83 577.869 248.079 583.404 232.325C586.02 224.881 588.637 217.437 591.254 209.993C592.502 206.442 593.749 202.891 594.996 199.34C596.725 194.418 598.455 189.496 600.185 184.575C600.692 183.13 601.199 181.685 601.721 180.196C602.198 178.841 602.675 177.485 603.167 176.089C603.575 174.927 603.983 173.765 604.404 172.568C606.319 167.252 608.32 161.968 610.304 156.678C544.812 156.186 479.32 155.693 411.843 155.186C412.92 186.855 413.997 218.524 415.107 251.152C415.789 271.303 416.47 291.453 417.147 311.603C417.19 312.859 417.232 314.115 417.275 315.408C419.257 374.381 421.209 433.354 423.127 492.328C423.417 501.228 423.709 510.128 424.002 519.028C424.36 529.92 424.715 540.811 425.066 551.703C425.246 557.258 425.426 562.814 425.61 568.369C425.811 574.427 426.005 580.485 426.199 586.543C426.257 588.262 426.315 589.982 426.374 591.754C426.817 605.916 426.765 619.985 426.765 634.178C459.757 634.178 492.75 634.178 526.742 634.178C536.098 652.89 545.454 671.602 555.093 690.881C562.049 690.389 569.004 689.896 576.17 689.389C595.921 689.157 595.921 689.157 603.837 695.622C610.531 704.108 614.782 713.759 618.855 723.712C621.405 729.735 624.623 735.206 628.024 740.776C632.687 748.883 632.687 748.883 632.687 750.569C467.726 750.569 302.764 750.569 132.804 750.569C135.154 744.693 137.568 739.744 140.714 734.312C142.164 731.803 142.164 731.803 143.643 729.244C144.146 728.38 144.649 727.515 145.167 726.625C146.685 724.015 148.195 721.402 149.705 718.787C151.641 715.445 153.604 712.117 155.595 708.807C158.187 704.51 158.187 704.51 159.748 700.473C161.367 696.805 162.439 694.825 165.632 692.373C173.268 690.695 180.691 690.776 188.481 690.881C195.714 690.881 202.946 690.881 210.398 690.881C219.754 672.169 229.11 653.457 238.749 634.178C271.742 634.178 304.734 634.178 338.726 634.178C338.726 621.375 338.726 608.572 338.726 595.381C338.835 588.849 338.96 582.333 339.169 575.805C339.217 574.167 339.264 572.529 339.314 570.842C339.47 565.53 339.634 560.218 339.798 554.906C339.914 551.026 340.029 547.145 340.144 543.265C340.421 533.925 340.704 524.585 340.989 515.245C341.323 504.311 341.65 493.376 341.977 482.442C342.561 462.897 343.151 443.353 343.744 423.809C344.316 404.953 344.885 386.098 345.451 367.242C345.503 365.499 345.503 365.499 345.556 363.722C345.696 359.049 345.836 354.376 345.976 349.704C346.552 330.487 347.131 311.271 347.71 292.054C347.84 287.715 347.971 283.375 348.102 279.035C348.474 266.648 348.848 254.26 349.224 241.873C349.337 238.148 349.45 234.423 349.562 230.698C349.614 228.962 349.666 227.225 349.72 225.435C349.765 223.94 349.81 222.445 349.856 220.904C350.532 198.993 351.344 177.095 352.156 155.186C253.917 155.925 253.917 155.925 153.695 156.678C168.144 198.42 182.596 240.157 197.161 281.859C204.93 304.12 212.631 326.406 220.336 348.689C221.405 351.78 222.473 354.87 223.542 357.96C224.057 359.449 224.571 360.937 225.102 362.471C230.626 378.438 236.177 394.395 241.734 410.35C242.579 410.368 243.424 410.387 244.295 410.406C246.624 410.456 248.954 410.508 251.284 410.561C253.724 410.612 256.165 410.642 258.606 410.66C264.565 410.894 269.006 411.463 273.886 415.06C279.441 421.499 278.597 426.097 278.228 434.289C275.309 459.565 265.908 481.143 250.687 501.373C249.935 502.387 249.183 503.401 248.408 504.445C226.443 532.013 189.532 548.076 155.187 552.108C112.925 554.727 73.9028 545.455 41.5009 517.228C39.0809 514.955 36.6867 512.655 34.3197 510.327C33.1675 509.194 32.0153 508.061 30.8282 506.893C11.5242 486.731 -0.181519 459.871 -0.373639 431.893C-0.404415 430.767 -0.435191 429.641 -0.4669 428.481C-0.501421 423.583 -0.365627 419.981 1.98122 415.625C6.08033 411.861 9.95269 411.659 15.2652 411.696C16.4626 411.701 17.66 411.706 18.8936 411.711C20.1372 411.724 21.3808 411.736 22.662 411.749C24.5533 411.759 24.5533 411.759 26.4828 411.769C29.5926 411.787 32.7022 411.814 35.8119 411.842C36.0666 410.86 36.3212 409.877 36.5836 408.865C39.3588 398.4 42.6269 388.191 46.1931 377.971C46.7592 376.335 47.3253 374.699 47.9086 373.013C49.7466 367.706 51.5923 362.402 53.4384 357.098C54.7255 353.387 56.0122 349.677 57.2985 345.966C66.7046 318.85 76.1719 291.756 85.6759 264.675C88.9218 255.42 92.149 246.158 95.3712 236.895C114.441 182.083 114.441 182.083 123.851 156.678C122.331 156.717 120.812 156.756 119.246 156.796C113.562 156.932 107.878 157.018 102.193 157.088C99.7413 157.125 97.2897 157.176 94.8386 157.241C70.2568 157.875 70.2568 157.875 61.7183 151.279C54.9483 144.407 53.3469 139.19 52.9721 129.725C53.3058 120.804 55.4451 116.064 61.8669 109.779C69.6252 102.808 75.8763 102.739 85.9199 102.78C87.6368 102.778 87.6368 102.778 89.3883 102.776C93.226 102.774 97.0636 102.782 100.901 102.79C103.651 102.79 106.401 102.79 109.151 102.789C116.621 102.789 124.09 102.798 131.56 102.808C139.365 102.817 147.17 102.818 154.974 102.82C169.755 102.825 184.537 102.837 199.318 102.852C216.145 102.869 232.972 102.877 249.799 102.884C284.415 102.9 319.032 102.926 353.648 102.959C353.704 100.58 353.704 100.58 353.761 98.1516C353.903 92.1917 354.052 86.232 354.203 80.2723C354.267 77.7067 354.33 75.1411 354.39 72.5753C355.378 30.6069 355.378 30.6069 362.601 22.3812C371.223 14.6007 381.742 11.8696 392.882 16.2726ZM137.281 193.983C136.804 195.343 136.804 195.343 136.318 196.73C122.323 236.679 108.322 276.626 94.1937 316.529C93.682 317.974 93.1702 319.42 92.643 320.91C87.0867 336.601 81.498 352.28 75.8503 367.939C75.3549 369.314 74.8594 370.689 74.3489 372.105C72.0111 378.59 69.668 385.073 67.3147 391.553C66.4954 393.82 65.6762 396.087 64.8571 398.354C64.4808 399.384 64.1045 400.414 63.7168 401.475C61.8122 406.53 61.8122 406.53 61.1791 411.842C112.391 411.842 163.603 411.842 216.367 411.842C201.57 368.646 201.57 368.646 186.43 325.575C184.275 319.518 182.123 313.459 179.971 307.401C179.146 305.078 179.146 305.078 178.305 302.709C173.963 290.474 169.664 278.224 165.376 265.969C164.084 262.281 162.792 258.593 161.5 254.905C159.616 249.527 157.734 244.149 155.859 238.768C154.122 233.788 152.379 228.81 150.635 223.832C150.126 222.367 149.617 220.901 149.093 219.391C146.046 210.721 142.65 202.315 138.773 193.983C138.28 193.983 137.788 193.983 137.281 193.983ZM625.226 193.983C618.479 209.122 613.182 224.728 607.811 240.393C605.02 248.533 602.209 256.665 599.398 264.798C598.82 266.471 598.242 268.145 597.647 269.869C591.602 287.35 585.435 304.787 579.248 322.218C578.191 325.197 577.135 328.176 576.079 331.156C571.665 343.6 567.244 356.04 562.803 368.474C561.091 373.27 559.384 378.067 557.678 382.865C556.524 386.105 555.362 389.343 554.199 392.58C553.516 394.503 552.832 396.426 552.15 398.348C551.561 399.995 550.972 401.641 550.366 403.337C548.905 407.376 548.905 407.376 549.124 411.842C599.844 411.842 650.563 411.842 702.82 411.842C699.266 399.918 699.266 399.918 695.361 388.144C694.815 386.581 694.269 385.019 693.706 383.408C693.124 381.754 692.542 380.1 691.943 378.396C691.322 376.624 690.702 374.851 690.062 373.025C688.386 368.24 686.707 363.457 685.026 358.674C683.62 354.672 682.217 350.67 680.814 346.668C662.946 295.715 644.935 244.812 626.718 193.983C626.226 193.983 625.733 193.983 625.226 193.983Z" fill="white"/>
</g>
<defs>
<clipPath id="clip0_187_13">
<rect width="764" height="764" fill="white"/>
</clipPath>
</defs>
</svg>
