<svg width="37" height="36" viewBox="0 0 37 36" fill="none" xmlns="http://www.w3.org/2000/svg">
<path d="M30.2144 25.3035C30.2144 25.6983 30.0576 26.0769 29.7785 26.356C29.4993 26.6351 29.1208 26.792 28.726 26.792C28.3312 26.792 27.9526 26.6351 27.6735 26.356C27.3944 26.0769 27.2375 25.6983 27.2375 25.3035V7.44212C27.2375 7.04736 27.0807 6.66877 26.8016 6.38963C26.5225 6.11049 26.1439 5.95367 25.7491 5.95367H4.91081C4.51605 5.95367 4.13746 6.11049 3.85832 6.38963C3.57918 6.66877 3.42236 7.04736 3.42236 7.44212V26.792C3.42236 27.5815 3.736 28.3387 4.29428 28.8969C4.85255 29.4552 5.60974 29.7689 6.39926 29.7689H28.726C31.1879 29.7689 33.1913 27.7654 33.1913 25.3035V10.419H30.2144V25.3035ZM18.3069 10.419H22.7722V13.3959H18.3069V10.419ZM18.3069 16.3728H22.7722V19.3497H18.3069V16.3728ZM7.88771 10.419H15.33V19.3497H7.88771V10.419ZM7.88771 25.3035V22.3266H22.7722V25.3035H7.88771Z" fill="#848484"/>
</svg>
