<svg width="15" height="18" viewBox="0 0 15 18" fill="none" xmlns="http://www.w3.org/2000/svg">
<path d="M14.5586 12.0709C14.495 11.9942 14.4325 11.9175 14.3711 11.8435C13.5275 10.8232 13.0172 10.2073 13.0172 7.31882C13.0172 5.82337 12.6594 4.59633 11.9542 3.67606C11.4343 2.9962 10.7314 2.48046 9.80502 2.09932C9.79309 2.09269 9.78245 2.08399 9.77357 2.07363C9.44036 0.95779 8.52852 0.210449 7.50011 0.210449C6.4717 0.210449 5.56024 0.95779 5.22703 2.07248C5.21815 2.08247 5.20765 2.0909 5.19597 2.0974C3.03408 2.98738 1.98343 4.69488 1.98343 7.31767C1.98343 10.2073 1.47383 10.8232 0.629478 11.8424C0.568126 11.9164 0.505624 11.9915 0.441972 12.0697C0.277549 12.268 0.173374 12.5093 0.141775 12.7649C0.110176 13.0206 0.152476 13.2799 0.263668 13.5123C0.500256 14.0108 1.00449 14.3202 1.58005 14.3202H13.4244C13.9973 14.3202 14.498 14.0111 14.7354 13.515C14.8471 13.2825 14.8898 13.023 14.8584 12.767C14.8271 12.5111 14.7231 12.2695 14.5586 12.0709ZM7.50011 17.3889C8.0542 17.3885 8.59785 17.2381 9.07338 16.9537C9.54892 16.6693 9.93861 16.2614 10.2011 15.7735C10.2135 15.7501 10.2196 15.7239 10.2189 15.6975C10.2181 15.671 10.2105 15.6452 10.1969 15.6226C10.1832 15.5999 10.1639 15.5812 10.1409 15.5682C10.1178 15.5552 10.0918 15.5484 10.0654 15.5484H4.9356C4.90912 15.5483 4.88306 15.5551 4.85996 15.568C4.83687 15.581 4.81753 15.5997 4.80382 15.6224C4.79011 15.6451 4.78251 15.6709 4.78175 15.6974C4.78099 15.7238 4.7871 15.7501 4.79948 15.7735C5.06196 16.2614 5.45159 16.6692 5.92705 16.9536C6.40251 17.238 6.94608 17.3884 7.50011 17.3889Z" fill="white"/>
</svg>
