<svg width="27" height="27" viewBox="0 0 27 27" fill="none" xmlns="http://www.w3.org/2000/svg">
<path fill-rule="evenodd" clip-rule="evenodd" d="M7.72366 3.20304C6.84321 3.31826 6.37798 3.53022 6.04536 3.85523C5.71383 4.18132 5.49752 4.63785 5.37904 5.49983C5.2573 6.38789 5.25513 7.56401 5.25513 9.24991V18.5653C5.68555 18.2715 6.16311 18.0534 6.66711 17.9208C7.24104 17.7697 7.91062 17.7697 8.89216 17.7708H22.6468V9.251C22.6468 7.56401 22.6446 6.38789 22.5229 5.49983C22.4044 4.63785 22.1881 4.18132 21.8566 3.85523C21.524 3.53022 21.0587 3.31826 20.1783 3.20304C19.2717 3.08347 18.0717 3.0813 16.3499 3.0813H11.552C9.83023 3.0813 8.6302 3.08347 7.72366 3.20304ZM8.25411 8.07597C8.25411 7.58901 8.65629 7.19443 9.15304 7.19443H18.7489C18.9847 7.1924 19.2118 7.28392 19.3803 7.44895C19.5488 7.61398 19.645 7.83906 19.6478 8.07489C19.6453 8.31091 19.5492 8.53626 19.3806 8.70152C19.2121 8.86679 18.9849 8.95846 18.7489 8.95643H9.15304C8.9172 8.95846 8.69017 8.86694 8.52168 8.70191C8.35319 8.53688 8.25697 8.3118 8.25411 8.07597ZM9.15304 11.3076C8.9172 11.3055 8.69017 11.3971 8.52168 11.5621C8.35319 11.7271 8.25697 11.9522 8.25411 12.188C8.25411 12.675 8.65629 13.0696 9.15304 13.0696H15.1499C15.3859 13.0719 15.6132 12.9805 15.782 12.8154C15.9507 12.6504 16.0471 12.4251 16.0499 12.1891C16.0473 11.9529 15.9511 11.7274 15.7824 11.5621C15.6136 11.3968 15.3861 11.3052 15.1499 11.3076H9.15304Z" fill="black"/>
<path d="M9.03032 19.5327H22.6469C22.6437 20.761 22.6241 21.6784 22.5241 22.4023C22.4056 23.2643 22.1893 23.7209 21.8578 24.0469C21.5252 24.372 21.0599 24.5839 20.1795 24.6991C19.2729 24.8187 18.0729 24.8209 16.3511 24.8209H11.5521C9.83033 24.8209 8.63031 24.8187 7.72376 24.7002C6.84331 24.5839 6.37808 24.372 6.04547 24.0469C5.71394 23.7209 5.49763 23.2643 5.37915 22.4023C5.33458 22.0762 5.30523 21.7099 5.28784 21.2936C5.43683 20.8865 5.68258 20.5216 6.00393 20.2306C6.32528 19.9395 6.71258 19.731 7.13245 19.6229C7.44767 19.5403 7.85746 19.5327 9.03032 19.5327Z" fill="black"/>
</svg>
