<svg width="22" height="22" viewBox="0 0 22 22" fill="none" xmlns="http://www.w3.org/2000/svg">
<g clip-path="url(#clip0_490_100)">
<path d="M11.3135 0.468542C11.5042 0.580158 11.6363 0.698701 11.7306 0.902258C11.8011 1.31906 11.7875 1.75612 11.7977 2.17789C11.7996 2.25026 11.8015 2.32263 11.8033 2.395C11.8079 2.57059 11.8123 2.74619 11.8165 2.92179C11.8574 2.92167 11.8983 2.92155 11.9404 2.92143C12.9352 2.91857 13.93 2.91645 14.9249 2.91511C15.406 2.91445 15.8871 2.91354 16.3681 2.91206C16.7875 2.91078 17.2069 2.90995 17.6262 2.90966C17.8482 2.90949 18.0702 2.9091 18.2922 2.90816C18.5013 2.90728 18.7104 2.90702 18.9194 2.90721C18.9961 2.90717 19.0727 2.90692 19.1493 2.90642C19.2542 2.90578 19.3591 2.90594 19.464 2.90629C19.4941 2.90591 19.5242 2.90554 19.5552 2.90515C19.8058 2.9074 20.0463 2.96027 20.2409 3.12606C20.2605 3.1517 20.28 3.17735 20.3002 3.20377C20.3307 3.24241 20.3307 3.24241 20.3618 3.28182C20.502 3.48312 20.47 3.71642 20.4532 3.95304C20.3787 4.18069 20.2551 4.28821 20.0665 4.42569C19.905 4.47953 19.7548 4.47398 19.5866 4.47286C19.5525 4.4728 19.5183 4.47274 19.4832 4.47268C19.3741 4.47243 19.2651 4.4719 19.1561 4.47135C19.0822 4.47113 19.0082 4.47094 18.9343 4.47076C18.7531 4.47029 18.5719 4.46955 18.3907 4.46866C18.3997 4.49341 18.4087 4.51815 18.4179 4.54365C18.6809 5.27117 18.9356 6.00144 19.1883 6.73258C19.2049 6.78032 19.2214 6.82807 19.2384 6.87726C19.3062 7.07355 19.374 7.26984 19.4418 7.46613C19.6023 7.93071 19.7631 8.39516 19.9242 8.85954C19.9695 8.9901 20.0147 9.12068 20.06 9.25126C20.2068 9.67484 20.3545 10.0981 20.5038 10.5209C20.5322 10.6017 20.5607 10.6824 20.5892 10.7632C20.6423 10.9139 20.6957 11.0646 20.7492 11.2151C20.7728 11.282 20.7964 11.3489 20.82 11.4158C20.8308 11.4461 20.8417 11.4763 20.8528 11.5075C20.8961 11.6309 20.9259 11.7274 20.9259 11.8593C20.9792 11.8578 21.0326 11.8563 21.0875 11.8548C21.1581 11.8535 21.2286 11.8524 21.2992 11.8512C21.3518 11.8496 21.3518 11.8496 21.4055 11.848C21.6097 11.8455 21.7516 11.8499 21.9142 11.9882C22.0733 12.1978 22.0005 12.5063 21.9716 12.7529C21.8653 13.449 21.5251 14.0939 21.0548 14.6093C21.0145 14.6548 21.0145 14.6548 20.9734 14.7013C20.3095 15.4113 19.3011 15.8531 18.3329 15.9036C17.1223 15.9413 15.9989 15.6518 15.0867 14.826C14.4046 14.1762 13.9775 13.2974 13.9515 12.3481C13.9529 12.1863 13.9597 12.1262 14.0428 11.9828C14.1698 11.874 14.2764 11.8542 14.4381 11.8457C14.4707 11.8439 14.5032 11.8421 14.5367 11.8402C14.5705 11.8385 14.6042 11.8369 14.639 11.8351C14.6733 11.8333 14.7075 11.8314 14.7428 11.8295C14.8273 11.8249 14.9118 11.8206 14.9962 11.8163C15.0046 11.7924 15.013 11.7685 15.0217 11.7438C15.9183 9.19577 15.9183 9.19577 15.9694 9.05046C16.0031 8.95475 16.0367 8.85903 16.0704 8.76331C16.154 8.52578 16.2376 8.28825 16.3212 8.05072C16.4808 7.59716 16.6403 7.14358 16.7997 6.68995C16.8751 6.47559 16.9504 6.26124 17.0258 6.04688C17.0617 5.94463 17.0976 5.84237 17.1335 5.7401C17.1833 5.59837 17.2331 5.45666 17.283 5.31495C17.2976 5.27334 17.3122 5.23173 17.3272 5.18886C17.3409 5.14983 17.3547 5.1108 17.3688 5.07058C17.3806 5.03712 17.3923 5.00367 17.4044 4.96919C17.4596 4.81613 17.5172 4.66397 17.5743 4.51163C15.6884 4.49745 13.8025 4.48327 11.8595 4.46866C11.8905 5.38059 11.9215 6.29253 11.9535 7.23209C11.9731 7.81234 11.9927 8.39258 12.0122 8.97283C12.0134 9.00899 12.0147 9.04515 12.0159 9.0824C12.073 10.7806 12.1292 12.4787 12.1844 14.177C12.1928 14.4332 12.2012 14.6895 12.2096 14.9458C12.2199 15.2594 12.2302 15.5731 12.2403 15.8867C12.2454 16.0467 12.2506 16.2066 12.2559 16.3666C12.2617 16.541 12.2673 16.7155 12.2729 16.8899C12.2745 16.9394 12.2762 16.989 12.2779 17.04C12.2907 17.4478 12.2892 17.8529 12.2892 18.2616C13.2392 18.2616 14.1893 18.2616 15.1681 18.2616C15.4375 18.8005 15.7069 19.3393 15.9845 19.8944C16.1848 19.8803 16.3851 19.8661 16.5914 19.8515C17.1602 19.8448 17.1602 19.8448 17.3881 20.031C17.5809 20.2753 17.7033 20.5532 17.8206 20.8398C17.894 21.0133 17.9866 21.1708 18.0846 21.3312C18.2189 21.5647 18.2189 21.5647 18.2189 21.6132C13.4687 21.6132 8.71848 21.6132 3.82434 21.6132C3.89201 21.444 3.96153 21.3015 4.0521 21.1451C4.09385 21.0728 4.09385 21.0728 4.13645 20.9991C4.15093 20.9742 4.16541 20.9494 4.18033 20.9237C4.22404 20.8486 4.26754 20.7733 4.31101 20.698C4.36677 20.6018 4.42328 20.506 4.48061 20.4106C4.55525 20.2869 4.55525 20.2869 4.60022 20.1707C4.64684 20.065 4.6777 20.008 4.76965 19.9374C4.98953 19.8891 5.20327 19.8914 5.42761 19.8944C5.63587 19.8944 5.84414 19.8944 6.05871 19.8944C6.32812 19.3556 6.59754 18.8168 6.87512 18.2616C7.82516 18.2616 8.7752 18.2616 9.75402 18.2616C9.75402 17.893 9.75402 17.5243 9.75402 17.1444C9.75717 16.9563 9.76075 16.7687 9.76678 16.5807C9.76816 16.5336 9.76953 16.4864 9.77095 16.4378C9.77544 16.2848 9.78017 16.1319 9.7849 15.9789C9.78823 15.8672 9.79154 15.7555 9.79485 15.6437C9.80282 15.3748 9.81098 15.1058 9.81919 14.8369C9.8288 14.522 9.83822 14.2071 9.84763 13.8923C9.86446 13.3295 9.88145 12.7667 9.89853 12.2039C9.91501 11.6609 9.93139 11.118 9.94767 10.575C9.94917 10.5248 9.94917 10.5248 9.9507 10.4736C9.95474 10.3391 9.95877 10.2045 9.9628 10.07C9.97939 9.51661 9.99605 8.96325 10.0127 8.4099C10.0165 8.28493 10.0202 8.15997 10.024 8.035C10.0347 7.67829 10.0455 7.32159 10.0563 6.96488C10.0596 6.85763 10.0628 6.75037 10.0661 6.64311C10.0676 6.59309 10.0691 6.54308 10.0706 6.49155C10.0719 6.4485 10.0732 6.40544 10.0745 6.36107C10.094 5.73011 10.1174 5.09955 10.1407 4.46866C7.31189 4.48993 7.31189 4.48993 4.4259 4.51163C4.84198 5.71364 5.25814 6.91548 5.67753 8.11631C5.90126 8.75735 6.12301 9.39907 6.34489 10.0408C6.37566 10.1297 6.40643 10.2187 6.4372 10.3077C6.45203 10.3506 6.46685 10.3934 6.48212 10.4376C6.64119 10.8974 6.80105 11.3569 6.96105 11.8163C6.98539 11.8168 7.00972 11.8174 7.0348 11.8179C7.10188 11.8194 7.16897 11.8209 7.23606 11.8224C7.30633 11.8239 7.37662 11.8247 7.44691 11.8252C7.61849 11.832 7.74638 11.8484 7.8869 11.9519C8.04686 12.1374 8.02256 12.2698 8.01194 12.5057C7.92788 13.2335 7.65716 13.8548 7.21887 14.4374C7.19721 14.4666 7.17555 14.4958 7.15324 14.5259C6.52074 15.3197 5.45786 15.7822 4.46887 15.8984C3.2519 15.9738 2.12823 15.7068 1.19518 14.894C1.1255 14.8285 1.05656 14.7623 0.988398 14.6952C0.95522 14.6626 0.922041 14.63 0.887858 14.5964C0.331982 14.0158 -0.0050934 13.2423 -0.0106257 12.4367C-0.0115119 12.4043 -0.0123981 12.3718 -0.0133112 12.3384C-0.0143053 12.1974 -0.010395 12.0936 0.0571844 11.9682C0.175222 11.8598 0.286729 11.854 0.439707 11.8551C0.474187 11.8552 0.508667 11.8554 0.544192 11.8555C0.580001 11.8559 0.61581 11.8562 0.652704 11.8566C0.707166 11.8569 0.707166 11.8569 0.762728 11.8572C0.852275 11.8577 0.941821 11.8585 1.03137 11.8593C1.0387 11.831 1.04603 11.8027 1.05359 11.7736C1.1335 11.4722 1.22761 11.1782 1.3303 10.8839C1.3466 10.8368 1.3629 10.7897 1.3797 10.7412C1.43263 10.5884 1.48578 10.4356 1.53893 10.2829C1.576 10.176 1.61305 10.0692 1.65009 9.96233C1.92095 9.18151 2.19357 8.40132 2.46724 7.62149C2.56071 7.35498 2.65364 7.08829 2.74642 6.82154C3.29555 5.24318 3.29555 5.24318 3.56652 4.51163C3.52276 4.51276 3.47901 4.51388 3.43392 4.51504C3.27025 4.51896 3.10658 4.52141 2.94287 4.52343C2.87227 4.52451 2.80167 4.52597 2.73109 4.52784C2.02324 4.54611 2.02324 4.54611 1.77736 4.35616C1.58241 4.15828 1.5363 4.00804 1.52551 3.73551C1.53512 3.47862 1.59672 3.3421 1.78164 3.16114C2.00505 2.96041 2.18505 2.95841 2.47427 2.95959C2.52371 2.95954 2.52371 2.95954 2.57414 2.95948C2.68465 2.95941 2.79516 2.95964 2.90567 2.95988C2.98486 2.95989 3.06405 2.95988 3.14323 2.95986C3.35833 2.95985 3.57342 2.9601 3.78851 2.9604C4.01326 2.96067 4.238 2.96069 4.46274 2.96075C4.88838 2.96088 5.31401 2.96123 5.73965 2.96166C6.2242 2.96214 6.70875 2.96238 7.1933 2.9626C8.1901 2.96304 9.18691 2.9638 10.1837 2.96476C10.1853 2.89623 10.1853 2.89623 10.187 2.82632C10.1911 2.6547 10.1954 2.48308 10.1997 2.31147C10.2016 2.23759 10.2033 2.16371 10.2051 2.08983C10.2335 0.88131 10.2335 0.88131 10.4415 0.644445C10.6898 0.420398 10.9927 0.341755 11.3135 0.468542ZM3.95324 5.58585C3.93953 5.62501 3.93953 5.62501 3.92553 5.66495C3.52252 6.81532 3.11935 7.96564 2.71252 9.11466C2.69778 9.15629 2.68305 9.19792 2.66786 9.24082C2.50787 9.69267 2.34694 10.1442 2.18431 10.5951C2.17004 10.6347 2.15577 10.6742 2.14107 10.715C2.07375 10.9018 2.00628 11.0885 1.93851 11.275C1.91492 11.3403 1.89133 11.4056 1.86775 11.4709C1.85691 11.5005 1.84607 11.5302 1.83491 11.5608C1.78007 11.7063 1.78007 11.7063 1.76184 11.8593C3.23652 11.8593 4.71121 11.8593 6.23059 11.8593C5.80451 10.6154 5.80451 10.6154 5.36852 9.37516C5.30648 9.20073 5.24451 9.02627 5.18255 8.85181C5.15879 8.78494 5.15879 8.78494 5.13456 8.71671C5.00953 8.36438 4.88574 8.01163 4.76226 7.65876C4.72506 7.55256 4.68786 7.44635 4.65065 7.34015C4.59641 7.1853 4.54222 7.03042 4.48821 6.87548C4.43821 6.73207 4.38801 6.58873 4.33778 6.44539C4.32313 6.40318 4.30848 6.36098 4.29338 6.31749C4.20565 6.06784 4.10787 5.82578 3.99621 5.58585C3.98203 5.58585 3.96785 5.58585 3.95324 5.58585ZM18.004 5.58585C17.8097 6.0218 17.6572 6.47117 17.5026 6.92228C17.4222 7.15665 17.3412 7.39083 17.2603 7.62502C17.2436 7.67322 17.227 7.72141 17.2099 7.77107C17.0358 8.27444 16.8582 8.77655 16.68 9.27848C16.6496 9.36427 16.6192 9.45006 16.5888 9.53586C16.4617 9.89419 16.3344 10.2524 16.2065 10.6105C16.1572 10.7486 16.1081 10.8867 16.0589 11.0249C16.0257 11.1182 15.9922 11.2114 15.9588 11.3046C15.9391 11.36 15.9194 11.4154 15.8997 11.4707C15.8828 11.5181 15.8658 11.5655 15.8484 11.6144C15.8063 11.7307 15.8063 11.7307 15.8126 11.8593C17.2731 11.8593 18.7336 11.8593 20.2384 11.8593C20.1361 11.5159 20.1361 11.5159 20.0236 11.1769C20.0079 11.1319 19.9922 11.0869 19.976 11.0405C19.9592 10.9929 19.9425 10.9453 19.9252 10.8962C19.9073 10.8451 19.8895 10.7941 19.871 10.7415C19.8228 10.6037 19.7744 10.466 19.726 10.3283C19.6855 10.213 19.6451 10.0978 19.6047 9.98254C19.0902 8.51531 18.5716 7.04952 18.047 5.58585C18.0328 5.58585 18.0186 5.58585 18.004 5.58585Z" fill="black"/>
</g>
<defs>
<clipPath id="clip0_490_100">
<rect width="22" height="22" fill="white"/>
</clipPath>
</defs>
</svg>
