<svg width="27" height="27" viewBox="0 0 27 27" fill="none" xmlns="http://www.w3.org/2000/svg">
<g clip-path="url(#clip0_490_72)">
<path d="M13.951 0.907227C12.2453 0.907227 10.9409 2.2116 10.9409 3.91733V9.93753C10.9409 11.6433 12.2453 12.9476 13.951 12.9476H19.9712L23.9847 16.9611V12.9476C25.6904 12.9476 26.9948 11.6433 26.9948 9.93753V3.91733C26.9948 2.2116 25.6904 0.907227 23.9847 0.907227H13.951ZM18.1531 3.91733H19.8769L21.5706 9.93753H20.0655L19.6571 8.43248H18.1521L17.7768 9.93753H16.4594L18.1531 3.91733ZM18.9678 4.92069C18.8675 5.32204 18.7551 5.81168 18.6538 6.11269L18.3728 7.42911H19.5638L19.2809 6.11169C19.0812 5.81168 18.9678 5.32204 18.9678 4.92069ZM3.91733 10.9409C2.2116 10.9409 0.907227 12.2453 0.907227 13.951V19.9712C0.907227 21.6769 2.2116 22.9813 3.91733 22.9813V26.9948L7.93079 22.9813H13.951C15.6567 22.9813 16.9611 21.6769 16.9611 19.9712V13.951H13.951C12.0446 13.951 10.5335 12.6466 10.0318 10.9409H3.91733ZM8.52679 13.8567C10.2325 13.8567 11.0352 15.2614 11.0352 16.8668C11.0352 18.2715 10.5526 19.1625 9.7499 19.5638C10.1512 19.7645 10.6268 19.8709 11.1285 19.9712L10.7533 20.9746C10.0509 20.7739 9.32246 20.4608 8.62011 20.1588C8.51977 20.0585 8.34418 20.0655 8.24384 20.0655C7.0398 19.9652 5.92406 18.9678 5.92406 16.9611C5.92406 15.2554 6.92141 13.8567 8.52679 13.8567ZM8.52679 14.9544C7.7241 14.9544 7.33479 15.8574 7.33479 16.9611C7.33479 18.1651 7.7241 18.9678 8.52679 18.9678C9.32949 18.9678 9.74889 18.0648 9.74889 16.9611C9.74889 15.8574 9.32949 14.9544 8.52679 14.9544Z" fill="black"/>
</g>
<defs>
<clipPath id="clip0_490_72">
<rect width="26.0875" height="26.0875" fill="white" transform="translate(0.907227 0.907227)"/>
</clipPath>
</defs>
</svg>
