<svg width="41" height="41" viewBox="0 0 41 41" fill="none" xmlns="http://www.w3.org/2000/svg">
<path d="M33.7578 6.2861L12.8975 2.60251C12.2283 2.48475 11.5397 2.63759 10.9832 3.02743C10.4267 3.41727 10.0478 4.01218 9.9298 4.68134L5.16515 31.7477C5.10687 32.0793 5.11451 32.4191 5.18761 32.7478C5.26072 33.0764 5.39787 33.3874 5.59123 33.663C5.78458 33.9386 6.03035 34.1734 6.31448 34.354C6.59862 34.5346 6.91556 34.6574 7.24718 34.7154L28.1075 38.399C28.4392 38.4575 28.7792 38.4501 29.108 38.3771C29.4368 38.3041 29.748 38.167 30.0238 37.9736C30.2996 37.7802 30.5346 37.5344 30.7152 37.2501C30.8959 36.9659 31.0188 36.6488 31.0768 36.317L35.8415 9.25059C35.9582 8.58118 35.8043 7.89282 35.4135 7.33689C35.0228 6.78096 34.4272 6.40299 33.7578 6.2861ZM21.7013 21.0701C21.649 21.3665 21.494 21.635 21.2635 21.8286C21.0331 22.0222 20.7418 22.1284 20.4409 22.1288C20.3657 22.1287 20.2907 22.1223 20.2166 22.1095L13.5701 20.9356C13.2543 20.8579 12.9798 20.663 12.8023 20.3903C12.6249 20.1177 12.5578 19.7878 12.6146 19.4675C12.6715 19.1472 12.848 18.8606 13.1084 18.6657C13.3689 18.4707 13.6937 18.3822 14.017 18.4179L20.6603 19.5855C20.8262 19.6145 20.9847 19.6759 21.1268 19.7663C21.269 19.8566 21.3919 19.9741 21.4886 20.112C21.5852 20.2499 21.6538 20.4055 21.6903 20.5699C21.7268 20.7343 21.7305 20.9043 21.7013 21.0701ZM29.2286 17.1975C29.1764 17.4937 29.0216 17.762 28.7915 17.9555C28.5614 18.1491 28.2705 18.2555 27.9698 18.2562C27.894 18.2563 27.8184 18.2493 27.744 18.2354L14.451 15.8891C14.1163 15.8298 13.8188 15.64 13.6241 15.3615C13.4293 15.0829 13.3531 14.7383 13.4124 14.4036C13.4716 14.0689 13.6614 13.7714 13.94 13.5767C14.2186 13.3819 14.5631 13.3058 14.8978 13.365L28.1908 15.7129C28.3568 15.7417 28.5156 15.803 28.6579 15.8933C28.8002 15.9836 28.9233 16.101 29.0201 16.2389C29.117 16.3768 29.1857 16.5325 29.2223 16.697C29.2589 16.8615 29.2627 17.0316 29.2334 17.1975H29.2286ZM30.1175 12.1494C30.0652 12.4458 29.9102 12.7143 29.6798 12.9079C29.4493 13.1015 29.158 13.2077 28.8571 13.2081C28.7819 13.2079 28.7069 13.2015 28.6328 13.1888L15.3399 10.8409C15.1704 10.816 15.0076 10.7573 14.8611 10.6683C14.7147 10.5794 14.5876 10.4619 14.4874 10.323C14.3871 10.184 14.3158 10.0264 14.2775 9.85938C14.2393 9.69236 14.2349 9.51937 14.2647 9.35064C14.2945 9.18191 14.3578 9.02087 14.4509 8.87704C14.544 8.73322 14.665 8.60953 14.8068 8.51329C14.9486 8.41706 15.1082 8.35023 15.2762 8.31677C15.4443 8.28331 15.6173 8.28389 15.7851 8.31849L29.0781 10.6648C29.2443 10.6934 29.4031 10.7546 29.5456 10.8448C29.6881 10.935 29.8114 11.0524 29.9084 11.1903C30.0054 11.3282 30.0743 11.484 30.111 11.6485C30.1477 11.8131 30.1515 11.9833 30.1223 12.1494H30.1175Z" fill="white"/>
</svg>
