<svg width="27" height="27" viewBox="0 0 27 27" fill="none" xmlns="http://www.w3.org/2000/svg">
<path fill-rule="evenodd" clip-rule="evenodd" d="M16.1077 3.67044C16.2022 3.85414 16.2262 4.09002 16.2729 4.56177C16.362 5.45309 16.4066 5.89875 16.5936 6.14441C16.71 6.29694 16.8648 6.4159 17.0422 6.48922C17.2196 6.56253 17.4132 6.58758 17.6034 6.56181C17.9077 6.52159 18.2555 6.23789 18.949 5.67049C19.3154 5.36939 19.4991 5.21939 19.6958 5.15634C19.9464 5.07627 20.2175 5.08979 20.4589 5.19439C20.6491 5.277 20.8176 5.44439 21.1513 5.77918L22.123 6.75095C22.4578 7.08574 22.6252 7.25313 22.7078 7.44335C22.8124 7.68472 22.8259 7.95583 22.7459 8.20641C22.6828 8.40316 22.5328 8.58686 22.2328 8.95317C21.6643 9.64775 21.3806 9.99449 21.3393 10.2999C21.3139 10.49 21.3392 10.6835 21.4127 10.8607C21.4862 11.0378 21.6052 11.1924 21.7578 11.3087C22.0024 11.4956 22.4491 11.5402 23.3415 11.6293C23.8122 11.6761 24.0481 11.7 24.2329 11.7945C24.466 11.9154 24.6474 12.1166 24.7437 12.3609C24.8209 12.5532 24.8209 12.7902 24.8209 13.2641V14.6381C24.8209 15.112 24.8209 15.349 24.7448 15.5403C24.6482 15.7853 24.4659 15.987 24.2318 16.1077C24.0481 16.2022 23.8122 16.2262 23.3404 16.2729C22.4491 16.362 22.0035 16.4066 21.7578 16.5936C21.6053 16.71 21.4863 16.8648 21.413 17.0422C21.3397 17.2196 21.3146 17.4132 21.3404 17.6034C21.3817 17.9077 21.6654 18.2555 22.2328 18.949C22.5328 19.3154 22.6828 19.498 22.7459 19.6958C22.8259 19.9464 22.8124 20.2175 22.7078 20.4589C22.6252 20.6491 22.4578 20.8165 22.123 21.1513L21.1513 22.1219C20.8165 22.4578 20.6491 22.6252 20.4589 22.7067C20.2175 22.8113 19.9464 22.8248 19.6958 22.7448C19.4991 22.6817 19.3154 22.5317 18.949 22.2317C18.2545 21.6643 17.9077 21.3806 17.6034 21.3404C17.4132 21.3146 17.2196 21.3397 17.0422 21.413C16.8648 21.4863 16.71 21.6053 16.5936 21.7578C16.4066 22.0024 16.362 22.448 16.2729 23.3404C16.2262 23.8122 16.2022 24.0481 16.1077 24.2318C15.9872 24.4657 15.786 24.648 15.5414 24.7448C15.349 24.8209 15.112 24.8209 14.6381 24.8209H13.2641C12.7902 24.8209 12.5532 24.8209 12.3619 24.7448C12.1169 24.6482 11.9153 24.4659 11.7945 24.2318C11.7 24.0481 11.6761 23.8122 11.6293 23.3404C11.5402 22.4491 11.4956 22.0035 11.3087 21.7578C11.1923 21.6054 11.0377 21.4866 10.8605 21.4133C10.6833 21.34 10.4899 21.3148 10.2999 21.3404C9.99449 21.3806 9.64775 21.6643 8.95317 22.2317C8.58686 22.5328 8.40316 22.6828 8.20641 22.7459C7.95583 22.8259 7.68472 22.8124 7.44335 22.7078C7.25313 22.6252 7.08465 22.4578 6.75095 22.123L5.77918 21.1513C5.44439 20.8165 5.277 20.6491 5.19439 20.4589C5.08979 20.2175 5.07627 19.9464 5.15634 19.6958C5.21939 19.4991 5.36939 19.3154 5.6694 18.949C6.23789 18.2545 6.52159 17.9077 6.56181 17.6023C6.58738 17.4123 6.56223 17.2189 6.48893 17.0417C6.41562 16.8646 6.29676 16.7099 6.14441 16.5936C5.89984 16.4066 5.45309 16.362 4.56068 16.2729C4.09002 16.2262 3.85414 16.2022 3.66936 16.1077C3.43625 15.9868 3.25478 15.7856 3.15847 15.5414C3.0813 15.349 3.0813 15.112 3.0813 14.6381V13.2641C3.0813 12.7902 3.0813 12.5532 3.15739 12.3619C3.25401 12.1169 3.43632 11.9153 3.67044 11.7945C3.85414 11.7 4.09002 11.6761 4.56177 11.6293C5.45309 11.5402 5.89984 11.4956 6.14441 11.3087C6.29696 11.1924 6.41603 11.0378 6.48953 10.8607C6.56303 10.6835 6.58834 10.49 6.5629 10.2999C6.52159 9.99449 6.2368 9.64775 5.6694 8.95208C5.36939 8.58577 5.21939 8.40316 5.15634 8.20533C5.07627 7.95475 5.08979 7.68364 5.19439 7.44227C5.277 7.25313 5.44439 7.08465 5.77918 6.74986L6.75095 5.77918C7.08574 5.44439 7.25313 5.27591 7.44335 5.19439C7.68472 5.08979 7.95583 5.07627 8.20641 5.15634C8.40316 5.21939 8.58686 5.36939 8.95317 5.6694C9.64775 6.2368 9.9945 6.52051 10.2989 6.56181C10.4893 6.58766 10.6832 6.56254 10.8608 6.48903C11.0384 6.41551 11.1933 6.29622 11.3097 6.14332C11.4945 5.89875 11.5402 5.45309 11.6293 4.56068C11.6761 4.09002 11.7 3.85414 11.7945 3.66936C11.9152 3.43584 12.1164 3.25396 12.3609 3.15739C12.5532 3.0813 12.7902 3.0813 13.2641 3.0813H14.6381C15.112 3.0813 15.349 3.0813 15.5403 3.15739C15.7853 3.25401 15.987 3.43632 16.1077 3.67044ZM13.9511 18.299C15.1042 18.299 16.2102 17.8409 17.0255 17.0255C17.8409 16.2102 18.299 15.1042 18.299 13.9511C18.299 12.798 17.8409 11.6921 17.0255 10.8767C16.2102 10.0613 15.1042 9.60318 13.9511 9.60318C12.798 9.60318 11.6921 10.0613 10.8767 10.8767C10.0613 11.6921 9.60318 12.798 9.60318 13.9511C9.60318 15.1042 10.0613 16.2102 10.8767 17.0255C11.6921 17.8409 12.798 18.299 13.9511 18.299Z" fill="black"/>
</svg>
