<svg width="387" height="347" viewBox="0 0 387 347" fill="none" xmlns="http://www.w3.org/2000/svg">
<g clip-path="url(#clip0_2359_77)">
<path d="M198.384 1.69904L185.838 4.93433L31.2717 44.7939L18.726 48.0292C12.6364 49.6069 7.42135 53.5357 4.22489 58.9536C1.02843 64.3716 0.111621 70.8363 1.67561 76.9294L56.0768 287.885C57.6545 293.974 61.5833 299.189 67.0012 302.386C72.4192 305.582 78.8839 306.499 84.977 304.935L85.0094 304.927L264.602 258.613L264.635 258.605C270.724 257.027 275.939 253.099 279.136 247.681C282.332 242.263 283.249 235.798 281.685 229.705L227.284 18.7495C225.706 12.66 221.777 7.44485 216.359 4.24837C210.941 1.05188 204.477 0.135057 198.384 1.69904Z" fill="#C5C5C5"/>
<path d="M200.093 8.3202L185.233 12.1522L35.2943 50.8185L20.4349 54.6504C16.0984 55.7739 12.3846 58.5717 10.1083 62.4299C7.83204 66.2882 7.17915 70.8918 8.29291 75.2309L62.6941 286.186C63.8176 290.523 66.6154 294.237 70.4736 296.513C74.3319 298.789 78.9355 299.442 83.2746 298.328L83.307 298.32L262.9 252.006L262.932 251.998C267.269 250.875 270.983 248.077 273.259 244.218C275.535 240.36 276.188 235.757 275.074 231.418L220.673 20.4623C219.55 16.1258 216.752 12.412 212.894 10.1357C209.035 7.85943 204.432 7.20651 200.093 8.3202Z" fill="white"/>
<path d="M188.875 76.6435L98.0238 100.072C97.009 100.334 95.9319 100.182 95.0294 99.6494C94.1268 99.1169 93.4728 98.2477 93.2111 97.233C92.9494 96.2183 93.1016 95.1412 93.6341 94.2386C94.1665 93.3361 95.0357 92.682 96.0505 92.4203L186.902 68.9915C187.916 68.7309 188.993 68.8836 189.895 69.4162C190.796 69.9488 191.45 70.8176 191.711 71.8317C191.973 72.8459 191.821 73.9223 191.289 74.8246C190.758 75.7269 189.889 76.3811 188.875 76.6435Z" fill="#C5C5C5"/>
<path d="M207.982 85.4881L101.348 112.987C100.333 113.249 99.2562 113.096 98.3536 112.564C97.4511 112.031 96.797 111.162 96.5353 110.148C96.2737 109.133 96.4258 108.056 96.9583 107.153C97.4908 106.251 98.36 105.597 99.3747 105.335L206.009 77.8361C207.023 77.5744 208.101 77.7266 209.003 78.2591C209.906 78.7915 210.56 79.6607 210.821 80.6755C211.083 81.6902 210.931 82.7673 210.398 83.6698C209.866 84.5724 208.997 85.2265 207.982 85.4881Z" fill="#C5C5C5"/>
<path d="M203.801 134.519L112.95 157.948C112.447 158.078 111.924 158.107 111.41 158.035C110.897 157.962 110.402 157.789 109.955 157.525C109.508 157.262 109.118 156.913 108.806 156.498C108.494 156.083 108.266 155.611 108.137 155.109C108.007 154.606 107.978 154.083 108.051 153.57C108.123 153.056 108.296 152.561 108.56 152.114C108.823 151.668 109.173 151.277 109.587 150.965C110.002 150.653 110.474 150.426 110.976 150.296L201.828 126.867C202.33 126.738 202.853 126.708 203.367 126.781C203.881 126.854 204.375 127.027 204.822 127.29C205.269 127.554 205.66 127.903 205.972 128.318C206.284 128.732 206.511 129.204 206.641 129.707C206.77 130.209 206.799 130.732 206.727 131.246C206.654 131.76 206.481 132.254 206.218 132.701C205.954 133.148 205.605 133.539 205.19 133.851C204.776 134.163 204.304 134.39 203.801 134.519Z" fill="#C5C5C5"/>
<path d="M222.908 143.355L116.274 170.854C115.771 170.984 115.248 171.013 114.735 170.94C114.221 170.868 113.726 170.695 113.279 170.431C112.832 170.167 112.442 169.818 112.13 169.404C111.818 168.989 111.591 168.517 111.461 168.015C111.332 167.512 111.302 166.989 111.375 166.475C111.447 165.962 111.62 165.467 111.884 165.02C112.148 164.573 112.497 164.183 112.911 163.871C113.326 163.559 113.798 163.332 114.3 163.202L220.934 135.703C221.949 135.442 223.026 135.594 223.929 136.126C224.831 136.659 225.485 137.528 225.747 138.543C226.009 139.557 225.857 140.635 225.324 141.537C224.792 142.44 223.922 143.094 222.908 143.355Z" fill="#C5C5C5"/>
<path d="M218.72 192.387L127.869 215.815C126.854 216.076 125.778 215.924 124.876 215.391C123.974 214.859 123.32 213.99 123.059 212.975C122.797 211.961 122.949 210.884 123.481 209.982C124.013 209.08 124.881 208.426 125.895 208.163L216.747 184.735C217.762 184.473 218.839 184.625 219.742 185.158C220.644 185.69 221.298 186.559 221.56 187.574C221.821 188.589 221.669 189.666 221.137 190.568C220.604 191.471 219.735 192.125 218.72 192.387Z" fill="#C5C5C5"/>
<path d="M237.837 201.23L131.203 228.729C130.7 228.859 130.177 228.889 129.663 228.817C129.149 228.744 128.654 228.572 128.207 228.308C127.759 228.044 127.368 227.695 127.056 227.28C126.744 226.866 126.517 226.393 126.387 225.891C126.257 225.388 126.228 224.865 126.301 224.35C126.373 223.836 126.547 223.342 126.811 222.895C127.075 222.448 127.424 222.057 127.839 221.745C128.254 221.433 128.727 221.206 129.23 221.077L235.864 193.578C236.878 193.317 237.955 193.469 238.858 194.001C239.761 194.534 240.415 195.403 240.676 196.418C240.938 197.432 240.786 198.509 240.253 199.412C239.721 200.315 238.852 200.969 237.837 201.23Z" fill="#C5C5C5"/>
<path d="M82.5241 124.09L50.3726 132.382C49.8861 132.506 49.3699 132.433 48.9372 132.178C48.5046 131.923 48.1909 131.506 48.0649 131.02L40.6846 102.401C40.5597 101.914 40.6329 101.398 40.8881 100.965C41.1434 100.533 41.5598 100.219 42.046 100.093L74.1976 91.8018C74.6841 91.6769 75.2003 91.7501 75.6329 92.0053C76.0656 92.2605 76.3793 92.677 76.5053 93.1632L83.8856 121.783C84.0105 122.269 83.9373 122.785 83.6821 123.218C83.4268 123.651 83.0104 123.964 82.5241 124.09Z" fill="#B5B5B5"/>
<path d="M97.4499 181.957L65.2984 190.249C64.8118 190.374 64.2956 190.3 63.863 190.045C63.4304 189.79 63.1167 189.373 62.9907 188.887L55.6103 160.268C55.4855 159.781 55.5587 159.265 55.8139 158.832C56.0691 158.4 56.4856 158.086 56.9718 157.96L89.1234 149.669C89.6099 149.544 90.1261 149.617 90.5587 149.872C90.9913 150.128 91.3051 150.544 91.431 151.03L98.8114 179.65C98.9363 180.136 98.8631 180.653 98.6078 181.085C98.3526 181.518 97.9362 181.831 97.4499 181.957Z" fill="#B5B5B5"/>
<path d="M112.372 239.825L80.2203 248.116C79.7337 248.241 79.2175 248.168 78.7849 247.912C78.3523 247.657 78.0385 247.241 77.9126 246.754L70.5322 218.135C70.4073 217.649 70.4805 217.132 70.7358 216.7C70.991 216.267 71.4074 215.953 71.8937 215.827L104.045 207.536C104.532 207.411 105.048 207.484 105.481 207.74C105.913 207.995 106.227 208.411 106.353 208.898L113.733 237.517C113.858 238.003 113.785 238.52 113.53 238.952C113.274 239.385 112.858 239.699 112.372 239.825Z" fill="#B5B5B5"/>
<path d="M323.704 55.1719H138.168C131.878 55.179 125.847 57.681 121.399 62.1292C116.951 66.5773 114.448 72.6083 114.441 78.8989V296.756C114.448 303.046 116.951 309.077 121.399 313.526C125.847 317.974 131.878 320.476 138.168 320.483H323.704C329.994 320.476 336.025 317.974 340.473 313.526C344.922 309.077 347.424 303.046 347.431 296.756V78.8989C347.424 72.6083 344.922 66.5773 340.473 62.1292C336.025 57.681 329.994 55.179 323.704 55.1719Z" fill="#B5B5B5"/>
<path d="M323.706 62H138.17C133.69 62.005 129.396 63.7868 126.228 66.9544C123.06 70.122 121.278 74.4168 121.273 78.8965V296.753C121.278 301.233 123.06 305.528 126.228 308.696C129.396 311.863 133.69 313.645 138.17 313.65H323.706C328.185 313.645 332.48 311.863 335.648 308.696C338.815 305.528 340.597 301.233 340.602 296.753V78.8965C340.597 74.4169 338.815 70.1221 335.648 66.9545C332.48 63.7869 328.185 62.0051 323.706 62Z" fill="white"/>
<path d="M343.18 347C367.101 347 386.493 327.609 386.493 303.688C386.493 279.767 367.101 260.375 343.18 260.375C319.259 260.375 299.867 279.767 299.867 303.688C299.867 327.609 319.259 347 343.18 347Z" fill="#00D00A"/>
<path d="M295.772 181.73H201.948C201.429 181.731 200.914 181.629 200.434 181.431C199.955 181.233 199.518 180.942 199.151 180.575C198.784 180.208 198.492 179.772 198.293 179.292C198.095 178.813 197.992 178.299 197.992 177.779C197.992 177.26 198.095 176.746 198.293 176.266C198.492 175.787 198.784 175.351 199.151 174.984C199.518 174.617 199.955 174.326 200.434 174.128C200.914 173.929 201.429 173.828 201.948 173.828H295.772C296.819 173.829 297.823 174.246 298.563 174.987C299.303 175.728 299.719 176.732 299.719 177.779C299.719 178.826 299.303 179.831 298.563 180.572C297.823 181.313 296.819 181.729 295.772 181.73Z" fill="#B5B5B5"/>
<path d="M312.07 195.066H201.948C201.429 195.067 200.914 194.965 200.434 194.767C199.955 194.569 199.518 194.278 199.151 193.911C198.784 193.544 198.492 193.108 198.293 192.628C198.095 192.149 197.992 191.634 197.992 191.115C197.992 190.596 198.095 190.082 198.293 189.602C198.492 189.122 198.784 188.687 199.151 188.32C199.518 187.953 199.955 187.662 200.434 187.464C200.914 187.265 201.429 187.163 201.948 187.164H312.07C313.118 187.164 314.123 187.58 314.864 188.321C315.605 189.062 316.022 190.067 316.022 191.115C316.022 192.163 315.605 193.168 314.864 193.909C314.123 194.65 313.118 195.066 312.07 195.066Z" fill="#B5B5B5"/>
<path d="M295.772 241.504H201.948C201.429 241.505 200.914 241.403 200.434 241.204C199.955 241.006 199.518 240.715 199.151 240.348C198.784 239.981 198.492 239.545 198.293 239.066C198.095 238.586 197.992 238.072 197.992 237.553C197.992 237.033 198.095 236.519 198.293 236.04C198.492 235.56 198.784 235.124 199.151 234.757C199.518 234.39 199.955 234.099 200.434 233.901C200.914 233.703 201.429 233.601 201.948 233.602H295.772C296.82 233.602 297.825 234.018 298.566 234.759C299.307 235.5 299.723 236.505 299.723 237.553C299.723 238.601 299.307 239.606 298.566 240.347C297.825 241.088 296.82 241.504 295.772 241.504Z" fill="#B5B5B5"/>
<path d="M312.07 254.84H201.948C201.429 254.84 200.914 254.739 200.434 254.54C199.955 254.342 199.518 254.051 199.151 253.684C198.784 253.317 198.492 252.881 198.293 252.402C198.095 251.922 197.992 251.408 197.992 250.889C197.992 250.369 198.095 249.855 198.293 249.376C198.492 248.896 198.784 248.46 199.151 248.093C199.518 247.726 199.955 247.435 200.434 247.237C200.914 247.039 201.429 246.937 201.948 246.938H312.07C312.59 246.937 313.104 247.039 313.584 247.237C314.064 247.435 314.5 247.726 314.867 248.093C315.235 248.46 315.526 248.896 315.725 249.376C315.924 249.855 316.026 250.369 316.026 250.889C316.026 251.408 315.924 251.922 315.725 252.402C315.526 252.881 315.235 253.317 314.867 253.684C314.5 254.051 314.064 254.342 313.584 254.54C313.104 254.739 312.59 254.84 312.07 254.84Z" fill="#B5B5B5"/>
<path d="M180.942 201.11H147.738C147.236 201.11 146.754 200.91 146.399 200.555C146.044 200.2 145.844 199.718 145.844 199.216V169.66C145.844 169.158 146.044 168.676 146.399 168.321C146.754 167.966 147.236 167.766 147.738 167.766H180.942C181.444 167.766 181.926 167.966 182.281 168.321C182.636 168.676 182.836 169.158 182.836 169.66V199.216C182.836 199.718 182.636 200.2 182.281 200.555C181.926 200.91 181.444 201.11 180.942 201.11Z" fill="#B5B5B5"/>
<path d="M180.942 260.876H147.738C147.236 260.876 146.754 260.676 146.399 260.321C146.044 259.965 145.844 259.484 145.844 258.982V229.426C145.844 228.924 146.044 228.442 146.399 228.087C146.754 227.732 147.236 227.532 147.738 227.531H180.942C181.444 227.532 181.926 227.732 182.281 228.087C182.636 228.442 182.836 228.924 182.836 229.426V258.982C182.836 259.484 182.636 259.965 182.281 260.321C181.926 260.676 181.444 260.876 180.942 260.876Z" fill="#B5B5B5"/>
<path d="M295.87 115.207H226.697C225.649 115.207 224.644 114.791 223.903 114.05C223.162 113.309 222.746 112.304 222.746 111.256C222.746 110.208 223.162 109.203 223.903 108.462C224.644 107.721 225.649 107.305 226.697 107.305H295.87C296.918 107.305 297.923 107.721 298.664 108.462C299.405 109.203 299.821 110.208 299.821 111.256C299.821 112.304 299.405 113.309 298.664 114.05C297.923 114.791 296.918 115.207 295.87 115.207Z" fill="#CCCCCC"/>
<path d="M312.168 128.543H226.697C226.178 128.543 225.665 128.441 225.185 128.242C224.706 128.044 224.27 127.753 223.903 127.386C223.536 127.019 223.245 126.583 223.047 126.104C222.848 125.624 222.746 125.111 222.746 124.592C222.746 124.073 222.848 123.559 223.047 123.08C223.245 122.6 223.536 122.165 223.903 121.798C224.27 121.431 224.706 121.14 225.185 120.941C225.665 120.743 226.178 120.641 226.697 120.641H312.168C313.216 120.641 314.221 121.057 314.962 121.798C315.703 122.539 316.12 123.544 316.12 124.592C316.12 125.64 315.703 126.645 314.962 127.386C314.221 128.127 313.216 128.543 312.168 128.543Z" fill="#CCCCCC"/>
<path d="M211.396 144.676H147.625C147.123 144.676 146.641 144.476 146.286 144.121C145.931 143.765 145.731 143.284 145.73 142.782V93.0118C145.731 92.5095 145.931 92.0279 146.286 91.6727C146.641 91.3175 147.123 91.1177 147.625 91.1172H211.396C211.899 91.1177 212.38 91.3175 212.735 91.6727C213.09 92.0279 213.29 92.5095 213.291 93.0118V142.782C213.29 143.284 213.09 143.765 212.735 144.121C212.38 144.476 211.899 144.676 211.396 144.676Z" fill="#DA3435"/>
<path d="M336.906 324.159L318.918 306.171L323.415 301.674L336.906 315.165L365.86 286.211L370.357 290.708L336.906 324.159Z" fill="white"/>
</g>
<defs>
<clipPath id="clip0_2359_77">
<rect width="385.569" height="346.046" fill="white" transform="translate(0.929688 0.953125)"/>
</clipPath>
</defs>
</svg>
