<svg width="83" height="74" viewBox="0 0 83 74" fill="none" xmlns="http://www.w3.org/2000/svg">
<g clip-path="url(#clip0_1513_4022)">
<path d="M42.2261 0.160974L39.5433 0.852822L6.49018 9.37656L3.80735 10.0684C2.50513 10.4058 1.38991 11.2459 0.706369 12.4045C0.0228234 13.5631 -0.17323 14.9456 0.161221 16.2486L11.7946 61.3601C12.132 62.6624 12.9721 63.7776 14.1307 64.4611C15.2893 65.1447 16.6718 65.3407 17.9747 65.0063L17.9817 65.0045L56.3866 55.1007L56.3935 55.0989C57.6957 54.7615 58.8109 53.9213 59.4945 52.7627C60.178 51.6041 60.3741 50.2217 60.0396 48.9187L48.4063 3.80712C48.0689 2.5049 47.2287 1.38968 46.0701 0.706133C44.9115 0.0225832 43.5291 -0.173474 42.2261 0.160974Z" fill="#C5C5C5"/>
<path d="M42.5908 1.5755L39.4132 2.39494L7.3496 10.6635L4.17201 11.4829C3.24467 11.7232 2.45049 12.3215 1.96372 13.1465C1.47695 13.9716 1.33734 14.9561 1.57551 15.884L13.2089 60.9956C13.4491 61.9229 14.0474 62.7171 14.8725 63.2038C15.6976 63.6906 16.682 63.8302 17.6099 63.592L17.6168 63.5903L56.0217 53.6864L56.0287 53.6846C56.956 53.4443 57.7502 52.8461 58.237 52.021C58.7237 51.1959 58.8633 50.2115 58.6252 49.2836L46.9918 4.172C46.7515 3.24467 46.1533 2.4505 45.3282 1.96373C44.5032 1.47696 43.5187 1.33734 42.5908 1.5755Z" fill="white"/>
<path d="M40.1916 16.1839L20.7634 21.194C20.5465 21.25 20.3161 21.2175 20.1231 21.1036C19.9301 20.9897 19.7902 20.8039 19.7343 20.5869C19.6783 20.3699 19.7109 20.1395 19.8247 19.9465C19.9386 19.7535 20.1245 19.6137 20.3415 19.5577L39.7696 14.5476C39.9865 14.4918 40.2167 14.5245 40.4095 14.6384C40.6023 14.7523 40.7421 14.9381 40.798 15.1549C40.8539 15.3718 40.8215 15.602 40.7078 15.795C40.594 15.9879 40.4084 16.1278 40.1916 16.1839Z" fill="#C5C5C5"/>
<path d="M44.2787 18.0747L21.4756 23.9552C21.2586 24.0111 21.0283 23.9786 20.8353 23.8647C20.6423 23.7509 20.5024 23.565 20.4464 23.348C20.3905 23.131 20.423 22.9007 20.5369 22.7077C20.6508 22.5147 20.8366 22.3748 21.0536 22.3188L43.8567 16.4384C44.0737 16.3824 44.304 16.415 44.497 16.5288C44.69 16.6427 44.8299 16.8286 44.8859 17.0456C44.9418 17.2626 44.9093 17.4929 44.7954 17.6859C44.6815 17.8789 44.4957 18.0188 44.2787 18.0747Z" fill="#C5C5C5"/>
<path d="M43.3827 28.5591L23.9546 33.5692C23.8472 33.5969 23.7353 33.6032 23.6254 33.5877C23.5156 33.5722 23.4098 33.5352 23.3143 33.4788C23.2187 33.4224 23.1352 33.3477 23.0685 33.2591C23.0018 33.1704 22.9532 33.0695 22.9254 32.962C22.8977 32.8546 22.8915 32.7428 22.907 32.6329C22.9225 32.523 22.9595 32.4173 23.0159 32.3217C23.0723 32.2261 23.1469 32.1426 23.2356 32.0759C23.3243 32.0092 23.4252 31.9606 23.5326 31.9329L42.9607 26.9228C43.0682 26.8951 43.18 26.8888 43.2899 26.9043C43.3998 26.9198 43.5055 26.9568 43.6011 27.0132C43.6966 27.0696 43.7802 27.1442 43.8469 27.2329C43.9136 27.3216 43.9622 27.4225 43.9899 27.5299C44.0176 27.6374 44.0239 27.7492 44.0084 27.8591C43.9928 27.969 43.9558 28.0747 43.8995 28.1703C43.8431 28.2658 43.7684 28.3494 43.6798 28.4161C43.5911 28.4828 43.4902 28.5314 43.3827 28.5591Z" fill="#C5C5C5"/>
<path d="M47.4698 30.4502L24.6668 36.3307C24.5593 36.3584 24.4475 36.3647 24.3376 36.3491C24.2277 36.3336 24.122 36.2966 24.0264 36.2402C23.9309 36.1838 23.8473 36.1092 23.7806 36.0205C23.7139 35.9319 23.6653 35.8309 23.6376 35.7235C23.6099 35.6161 23.6036 35.5042 23.6191 35.3943C23.6347 35.2845 23.6717 35.1787 23.7281 35.0832C23.7844 34.9876 23.8591 34.9041 23.9477 34.8374C24.0364 34.7706 24.1373 34.722 24.2448 34.6943L47.0479 28.8139C47.2648 28.7579 47.4952 28.7905 47.6882 28.9043C47.8812 29.0182 48.0211 29.2041 48.077 29.4211C48.133 29.6381 48.1004 29.8684 47.9866 30.0614C47.8727 30.2544 47.6868 30.3943 47.4698 30.4502Z" fill="#C5C5C5"/>
<path d="M46.574 40.9336L27.1459 45.9437C26.929 45.9995 26.6988 45.9669 26.5059 45.853C26.313 45.7391 26.1733 45.5533 26.1173 45.3364C26.0614 45.1195 26.0939 44.8893 26.2076 44.6963C26.3214 44.5034 26.5071 44.3635 26.724 44.3074L46.1521 39.2973C46.3691 39.2413 46.5994 39.2739 46.7924 39.3877C46.9854 39.5016 47.1253 39.6875 47.1812 39.9045C47.2372 40.1214 47.2047 40.3518 47.0908 40.5448C46.9769 40.7378 46.791 40.8777 46.574 40.9336Z" fill="#C5C5C5"/>
<path d="M50.661 42.8247L27.8579 48.7052C27.7504 48.733 27.6385 48.7394 27.5286 48.7239C27.4187 48.7085 27.3128 48.6715 27.2172 48.6151C27.1215 48.5587 27.0379 48.4841 26.9712 48.3954C26.9044 48.3067 26.8558 48.2057 26.828 48.0982C26.8003 47.9907 26.794 47.8788 26.8096 47.7688C26.8252 47.6589 26.8622 47.5531 26.9187 47.4575C26.9751 47.3619 27.0499 47.2784 27.1386 47.2117C27.2274 47.145 27.3284 47.0965 27.4359 47.0688L50.239 41.1884C50.456 41.1324 50.6863 41.165 50.8793 41.2788C51.0723 41.3927 51.2122 41.5786 51.2682 41.7956C51.3241 42.0126 51.2916 42.2429 51.1777 42.4359C51.0639 42.6289 50.878 42.7688 50.661 42.8247Z" fill="#C5C5C5"/>
<path d="M17.4469 26.3315L10.5715 28.1045C10.4675 28.1313 10.3571 28.1156 10.2646 28.061C10.1721 28.0064 10.105 27.9174 10.078 27.8134L8.4998 21.6933C8.47309 21.5893 8.48874 21.4789 8.54333 21.3864C8.59791 21.2939 8.68696 21.2268 8.79094 21.1998L15.6664 19.4268C15.7704 19.4001 15.8808 19.4157 15.9733 19.4703C16.0658 19.5249 16.1329 19.614 16.1598 19.7179L17.7381 25.838C17.7648 25.9421 17.7492 26.0525 17.6946 26.145C17.64 26.2375 17.5509 26.3046 17.4469 26.3315Z" fill="#B5B5B5"/>
<path d="M20.6379 38.7065L13.7624 40.4795C13.6584 40.5063 13.548 40.4906 13.4555 40.436C13.363 40.3814 13.2959 40.2924 13.269 40.1884L11.6907 34.0683C11.664 33.9643 11.6797 33.8539 11.7342 33.7614C11.7888 33.6689 11.8779 33.6018 11.9819 33.5748L18.8573 31.8018C18.9613 31.7751 19.0717 31.7907 19.1642 31.8453C19.2567 31.8999 19.3238 31.989 19.3508 32.0929L20.929 38.213C20.9557 38.3171 20.9401 38.4275 20.8855 38.52C20.8309 38.6125 20.7419 38.6796 20.6379 38.7065Z" fill="#B5B5B5"/>
<path d="M23.8293 51.081L16.9539 52.8541C16.8498 52.8808 16.7394 52.8651 16.6469 52.8105C16.5544 52.756 16.4873 52.6669 16.4604 52.5629L14.8821 46.4428C14.8554 46.3388 14.8711 46.2284 14.9257 46.1359C14.9802 46.0434 15.0693 45.9763 15.1733 45.9494L22.0487 44.1763C22.1527 44.1496 22.2631 44.1653 22.3556 44.2198C22.4482 44.2744 22.5152 44.3635 22.5422 44.4675L24.1204 50.5875C24.1471 50.6916 24.1315 50.802 24.0769 50.8945C24.0223 50.987 23.9333 51.0541 23.8293 51.081Z" fill="#B5B5B5"/>
<path d="M69.0213 11.5967H29.3456C28.0004 11.5982 26.7107 12.1333 25.7595 13.0845C24.8083 14.0357 24.2732 15.3254 24.2717 16.6706V63.258C24.2732 64.6032 24.8083 65.8929 25.7595 66.8441C26.7107 67.7953 28.0004 68.3304 29.3456 68.3319H69.0213C70.3665 68.3304 71.6562 67.7953 72.6074 66.8441C73.5586 65.8929 74.0936 64.6032 74.0951 63.258V16.6706C74.0936 15.3254 73.5586 14.0357 72.6074 13.0845C71.6562 12.1333 70.3665 11.5982 69.0213 11.5967Z" fill="#B5B5B5"/>
<path d="M69.0216 13.0571H29.3459C28.3879 13.0582 27.4695 13.4392 26.7921 14.1166C26.1148 14.794 25.7337 15.7124 25.7327 16.6704V63.2578C25.7337 64.2158 26.1148 65.1342 26.7921 65.8116C27.4695 66.4889 28.3879 66.87 29.3459 66.871H69.0216C69.9796 66.8699 70.898 66.4889 71.5753 65.8115C72.2527 65.1342 72.6337 64.2158 72.6348 63.2578V16.6704C72.6337 15.7124 72.2527 14.794 71.5753 14.1166C70.898 13.4392 69.9796 13.0582 69.0216 13.0571Z" fill="white"/>
<path d="M73.1897 73.9999C78.305 73.9999 82.4518 69.8531 82.4518 64.7377C82.4518 59.6224 78.305 55.4756 73.1897 55.4756C68.0743 55.4756 63.9275 59.6224 63.9275 64.7377C63.9275 69.8531 68.0743 73.9999 73.1897 73.9999Z" fill="#DA3435"/>
<path d="M77.6193 63.5298H74.3977V60.3082C74.3977 59.9878 74.2704 59.6805 74.0439 59.4539C73.8173 59.2274 73.51 59.1001 73.1896 59.1001C72.8692 59.1001 72.5619 59.2274 72.3353 59.4539C72.1088 59.6805 71.9815 59.9878 71.9815 60.3082V63.5298H68.7599C68.4395 63.5298 68.1322 63.6571 67.9056 63.8837C67.679 64.1102 67.5518 64.4175 67.5518 64.7379C67.5518 65.0583 67.679 65.3656 67.9056 65.5922C68.1322 65.8188 68.4395 65.946 68.7599 65.946H71.9815V69.1677C71.9815 69.4881 72.1088 69.7954 72.3353 70.0219C72.5619 70.2485 72.8692 70.3758 73.1896 70.3758C73.51 70.3758 73.8173 70.2485 74.0439 70.0219C74.2704 69.7954 74.3977 69.4881 74.3977 69.1677V65.946H77.6193C77.9397 65.946 78.247 65.8188 78.4736 65.5922C78.7002 65.3656 78.8274 65.0583 78.8274 64.7379C78.8274 64.4175 78.7002 64.1102 78.4736 63.8837C78.247 63.6571 77.9397 63.5298 77.6193 63.5298Z" fill="white"/>
<path d="M63.05 38.6572H42.9863C42.8752 38.6573 42.7653 38.6355 42.6626 38.5931C42.56 38.5507 42.4668 38.4885 42.3882 38.41C42.3096 38.3315 42.2473 38.2384 42.2048 38.1358C42.1623 38.0332 42.1404 37.9233 42.1404 37.8122C42.1404 37.7012 42.1623 37.5912 42.2048 37.4887C42.2473 37.3861 42.3096 37.2929 42.3882 37.2144C42.4668 37.136 42.56 37.0737 42.6626 37.0313C42.7653 36.9889 42.8752 36.9672 42.9863 36.9673H63.05C63.2739 36.9675 63.4886 37.0567 63.6468 37.2151C63.8051 37.3735 63.894 37.5883 63.894 37.8122C63.894 38.0361 63.8051 38.2509 63.6468 38.4094C63.4886 38.5678 63.2739 38.6569 63.05 38.6572Z" fill="#B5B5B5"/>
<path d="M66.5354 41.5087H42.9863C42.8752 41.5088 42.7653 41.4871 42.6626 41.4447C42.56 41.4023 42.4668 41.3401 42.3882 41.2616C42.3096 41.1831 42.2473 41.0899 42.2048 40.9873C42.1623 40.8848 42.1404 40.7748 42.1404 40.6638C42.1404 40.5527 42.1623 40.4428 42.2048 40.3402C42.2473 40.2376 42.3096 40.1445 42.3882 40.066C42.4668 39.9875 42.56 39.9253 42.6626 39.8829C42.7653 39.8405 42.8752 39.8187 42.9863 39.8188H66.5354C66.7594 39.8188 66.9744 39.9079 67.1328 40.0663C67.2913 40.2248 67.3803 40.4397 67.3803 40.6638C67.3803 40.8879 67.2913 41.1028 67.1328 41.2612C66.9744 41.4197 66.7594 41.5087 66.5354 41.5087Z" fill="#B5B5B5"/>
<path d="M63.05 51.4365H42.9863C42.8752 51.4366 42.7653 51.4148 42.6626 51.3724C42.56 51.33 42.4668 51.2678 42.3882 51.1893C42.3096 51.1108 42.2473 51.0177 42.2048 50.9151C42.1623 50.8125 42.1404 50.7026 42.1404 50.5915C42.1404 50.4805 42.1623 50.3705 42.2048 50.268C42.2473 50.1654 42.3096 50.0722 42.3882 49.9937C42.4668 49.9153 42.56 49.853 42.6626 49.8106C42.7653 49.7682 42.8752 49.7465 42.9863 49.7466H63.05C63.2741 49.7466 63.489 49.8356 63.6474 49.9941C63.8059 50.1525 63.8949 50.3674 63.8949 50.5915C63.8949 50.8156 63.8059 51.0305 63.6474 51.189C63.489 51.3474 63.2741 51.4365 63.05 51.4365Z" fill="#B5B5B5"/>
<path d="M66.5354 54.288H42.9863C42.8752 54.2881 42.7653 54.2664 42.6626 54.224C42.56 54.1816 42.4668 54.1194 42.3882 54.0409C42.3096 53.9624 42.2473 53.8692 42.2048 53.7666C42.1623 53.6641 42.1404 53.5541 42.1404 53.4431C42.1404 53.332 42.1623 53.2221 42.2048 53.1195C42.2473 53.0169 42.3096 52.9238 42.3882 52.8453C42.4668 52.7668 42.56 52.7046 42.6626 52.6622C42.7653 52.6198 42.8752 52.598 42.9863 52.5981H66.5354C66.6464 52.598 66.7564 52.6198 66.859 52.6622C66.9616 52.7046 67.0549 52.7668 67.1334 52.8453C67.212 52.9238 67.2743 53.0169 67.3168 53.1195C67.3593 53.2221 67.3812 53.332 67.3812 53.4431C67.3812 53.5541 67.3593 53.6641 67.3168 53.7666C67.2743 53.8692 67.212 53.9624 67.1334 54.0409C67.0549 54.1194 66.9616 54.1816 66.859 54.224C66.7564 54.2664 66.6464 54.2881 66.5354 54.288Z" fill="#B5B5B5"/>
<path d="M38.4923 42.803H31.392C31.2845 42.8028 31.1816 42.7601 31.1056 42.6842C31.0297 42.6082 30.9869 42.5052 30.9868 42.3978V36.0775C30.9869 35.9701 31.0297 35.8671 31.1056 35.7912C31.1816 35.7152 31.2845 35.6725 31.392 35.6724H38.4923C38.5997 35.6725 38.7027 35.7152 38.7787 35.7912C38.8546 35.8671 38.8974 35.9701 38.8975 36.0775V42.3978C38.8974 42.5052 38.8546 42.6082 38.7787 42.6842C38.7027 42.7601 38.5997 42.8028 38.4923 42.803Z" fill="#B5B5B5"/>
<path d="M38.4923 55.5828H31.392C31.2845 55.5826 31.1816 55.5399 31.1056 55.464C31.0297 55.388 30.9869 55.285 30.9868 55.1776V48.8573C30.9869 48.7499 31.0297 48.6469 31.1056 48.5709C31.1816 48.495 31.2845 48.4523 31.392 48.4521H38.4923C38.5997 48.4523 38.7027 48.495 38.7787 48.5709C38.8546 48.6469 38.8974 48.7499 38.8975 48.8573V55.1776C38.8974 55.285 38.8546 55.388 38.7787 55.464C38.7027 55.5399 38.5997 55.5826 38.4923 55.5828Z" fill="#B5B5B5"/>
<path d="M63.0726 24.4306H48.2805C48.0564 24.4306 47.8415 24.3416 47.683 24.1831C47.5246 24.0247 47.4355 23.8097 47.4355 23.5857C47.4355 23.3616 47.5246 23.1467 47.683 22.9882C47.8415 22.8297 48.0564 22.7407 48.2805 22.7407H63.0726C63.2967 22.7407 63.5117 22.8297 63.6701 22.9882C63.8286 23.1467 63.9176 23.3616 63.9176 23.5857C63.9176 23.8097 63.8286 24.0247 63.6701 24.1831C63.5117 24.3416 63.2967 24.4306 63.0726 24.4306Z" fill="#CCCCCC"/>
<path d="M66.558 27.2826H48.2805C48.1695 27.2826 48.0597 27.2608 47.9571 27.2183C47.8546 27.1759 47.7615 27.1136 47.683 27.0352C47.6046 26.9567 47.5423 26.8636 47.4999 26.7611C47.4574 26.6585 47.4355 26.5487 47.4355 26.4377C47.4355 26.3268 47.4574 26.2169 47.4999 26.1144C47.5423 26.0119 47.6046 25.9187 47.683 25.8402C47.7615 25.7618 47.8546 25.6996 47.9571 25.6571C48.0597 25.6146 48.1695 25.5928 48.2805 25.5928H66.558C66.7821 25.5928 66.997 25.6818 67.1555 25.8402C67.3139 25.9987 67.4029 26.2136 67.4029 26.4377C67.4029 26.6618 67.3139 26.8767 67.1555 27.0352C66.997 27.1936 66.7821 27.2826 66.558 27.2826Z" fill="#CCCCCC"/>
<path d="M45.0064 30.7384H31.3693C31.2618 30.7383 31.1589 30.6956 31.0829 30.6196C31.007 30.5437 30.9642 30.4407 30.9641 30.3333V19.6903C30.9642 19.5829 31.007 19.4799 31.0829 19.4039C31.1589 19.328 31.2618 19.2853 31.3693 19.2852H45.0064C45.1138 19.2853 45.2167 19.328 45.2927 19.4039C45.3687 19.4799 45.4114 19.5829 45.4115 19.6903V30.3333C45.4114 30.4407 45.3687 30.5437 45.2927 30.6196C45.2167 30.6956 45.1138 30.7383 45.0064 30.7384Z" fill="#DA3435"/>
</g>
<defs>
<clipPath id="clip0_1513_4022">
<rect width="82.4518" height="74" fill="white"/>
</clipPath>
</defs>
</svg>
