<svg width="314" height="236" viewBox="0 0 314 236" fill="none" xmlns="http://www.w3.org/2000/svg">
<g clip-path="url(#clip0_1556_6822)">
<path d="M235.568 56.04H234.272V20.5441C234.272 15.0955 232.108 9.87 228.255 6.01724C224.402 2.16447 219.177 6.87511e-06 213.728 0H138.525C135.827 -7.23381e-06 133.156 0.531375 130.663 1.56381C128.171 2.59624 125.906 4.1095 123.998 6.01719C122.091 7.92488 120.577 10.1896 119.545 12.6822C118.513 15.1747 117.981 17.8462 117.981 20.544V215.278C117.981 217.976 118.513 220.647 119.545 223.14C120.577 225.632 122.091 227.897 123.998 229.805C125.906 231.712 128.171 233.225 130.663 234.258C133.156 235.29 135.827 235.822 138.525 235.822H213.728C219.177 235.822 224.402 233.657 228.255 229.805C232.108 225.952 234.272 220.726 234.272 215.278V81.3067H235.568L235.568 56.04Z" fill="#3F3D56"/>
<path d="M214.557 5.34497H204.741C205.192 6.45174 205.365 7.65255 205.243 8.8416C205.121 10.0307 204.708 11.1715 204.042 12.1635C203.375 13.1556 202.474 13.9685 201.419 14.5306C200.365 15.0927 199.188 15.3867 197.992 15.3868H154.909C153.714 15.3867 152.537 15.0927 151.482 14.5306C150.427 13.9685 149.527 13.1556 148.86 12.1636C148.194 11.1715 147.781 10.0307 147.659 8.84161C147.537 7.65255 147.709 6.45174 148.161 5.34497H138.992C134.923 5.34497 131.021 6.96136 128.144 9.83856C125.267 12.7158 123.65 16.6181 123.65 20.687V215.135C123.65 217.15 124.047 219.145 124.818 221.006C125.589 222.867 126.719 224.559 128.144 225.983C129.568 227.408 131.26 228.538 133.121 229.309C134.982 230.08 136.977 230.477 138.992 230.477H214.557C216.572 230.477 218.567 230.08 220.429 229.309C222.29 228.538 223.981 227.408 225.406 225.983C226.831 224.559 227.961 222.867 228.732 221.006C229.503 219.145 229.9 217.15 229.9 215.135V20.687C229.9 18.6723 229.503 16.6773 228.732 14.8159C227.961 12.9545 226.831 11.2632 225.406 9.83855C223.981 8.41391 222.29 7.28382 220.429 6.51281C218.567 5.7418 216.572 5.34497 214.557 5.34497Z" fill="white"/>
<path d="M192.428 89.6616C199.944 89.6616 206.037 89.0813 206.037 88.3655C206.037 87.6496 199.944 87.0693 192.428 87.0693C184.911 87.0693 178.818 87.6496 178.818 88.3655C178.818 89.0813 184.911 89.6616 192.428 89.6616Z" fill="#E6E6E6"/>
<path d="M313.012 32.3601H187.725V73.4895H192.471V84.2467L203.228 73.4895H313.012V32.3601Z" fill="#DA3435"/>
<path d="M258.641 46.2881H201.67V48.017H258.641V46.2881Z" fill="white"/>
<path d="M300.966 52.269H201.67V53.998H300.966V52.269Z" fill="white"/>
<path d="M300.869 58.25H201.67V59.9789H300.869V58.25Z" fill="white"/>
<path d="M281.005 156.412H180.997V189.243H184.785V197.829L193.371 189.243H281.005V156.412Z" fill="#DA3435"/>
<path d="M237.604 167.53H192.128V168.91H237.604V167.53Z" fill="white"/>
<path d="M271.389 172.304H192.128V173.684H271.389V172.304Z" fill="white"/>
<path d="M271.312 177.078H192.128V178.458H271.312V177.078Z" fill="white"/>
<path d="M184.75 202.152C190.75 202.152 195.613 201.689 195.613 201.117C195.613 200.546 190.75 200.083 184.75 200.083C178.75 200.083 173.886 200.546 173.886 201.117C173.886 201.689 178.75 202.152 184.75 202.152Z" fill="#E6E6E6"/>
<path d="M154.84 137.618C162.356 137.618 168.449 137.038 168.449 136.322C168.449 135.606 162.356 135.026 154.84 135.026C147.324 135.026 141.231 135.606 141.231 136.322C141.231 137.038 147.324 137.618 154.84 137.618Z" fill="#E6E6E6"/>
<path d="M71.4275 96.8506H159.533V125.774H156.196V133.339L148.631 125.774H71.4275V96.8506Z" fill="#DA3435"/>
<path d="M120.63 106.423H80.5662V107.639H120.63V106.423Z" fill="white"/>
<path d="M150.394 110.629H80.5662V111.845H150.394V110.629Z" fill="white"/>
<path d="M150.326 114.835H80.5662V116.051H150.326V114.835Z" fill="white"/>
<path d="M28.5093 167.403C28.9317 168.131 29.6259 168.661 30.439 168.876C31.2521 169.092 32.1175 168.976 32.845 168.553C33.5724 168.131 34.1022 167.437 34.3179 166.624C34.5335 165.811 34.4173 164.945 33.9949 164.218C33.9062 164.069 33.8063 163.927 33.6962 163.794L36.3643 144.777L36.4442 144.207L36.9862 140.326L37.0661 139.767L36.7708 139.781L31.6014 140.017L30.2151 140.08L30.0414 143.62L29.0582 163.523C28.5446 164.014 28.2111 164.664 28.1116 165.368C28.012 166.072 28.1521 166.789 28.5093 167.403Z" fill="#A0616A"/>
<path d="M36.429 144.38L29.8648 143.778C29.5244 143.746 29.2104 143.58 28.9915 143.317C28.7726 143.055 28.6664 142.716 28.6961 142.375L29.9136 128.725C29.9726 128.062 30.164 127.418 30.4765 126.83C30.7889 126.242 31.2161 125.723 31.7327 125.303C32.2494 124.884 32.8449 124.572 33.4842 124.386C34.1234 124.201 34.7934 124.145 35.4544 124.224C36.1155 124.302 36.7541 124.511 37.3327 124.841C37.9112 125.17 38.4177 125.612 38.8224 126.14C39.2271 126.669 39.5217 127.273 39.6888 127.917C39.8558 128.562 39.8919 129.233 39.7949 129.891L37.8266 143.281C37.7814 143.587 37.6275 143.868 37.393 144.07C37.1584 144.273 36.8588 144.385 36.5487 144.386C36.5091 144.386 36.4691 144.384 36.429 144.38Z" fill="#CCCCCC"/>
<path d="M31.4543 133.351C30.7904 131.471 30.7596 129.425 31.3667 127.525C31.9737 125.625 33.1853 123.976 34.8167 122.829C37.292 121.135 40.6792 120.527 44.327 124.87C51.6226 133.555 53.5333 143.109 53.5333 143.109L38.5948 145.541C38.5948 145.541 33.514 139.331 31.4543 133.351Z" fill="#CCCCCC"/>
<path d="M55.6149 231.183H59.874L61.9001 214.755L55.6143 214.755L55.6149 231.183Z" fill="#A0616A"/>
<path d="M68.0881 235.138L54.7022 235.139L54.702 229.967L63.9574 229.967C64.4999 229.967 65.037 230.073 65.5381 230.281C66.0393 230.488 66.4946 230.793 66.8782 231.176C67.2617 231.56 67.566 232.015 67.7736 232.516C67.9812 233.017 68.0881 233.554 68.0881 234.097L68.0881 235.138Z" fill="#2F2E41"/>
<path d="M20.5984 227.469L24.6423 228.806L31.7223 213.844L25.754 211.871L20.5984 227.469Z" fill="#A0616A"/>
<path d="M31.2002 235.139L18.4906 230.938L20.1136 226.027L28.9015 228.932C29.4165 229.102 29.893 229.372 30.3036 229.726C30.7143 230.081 31.0511 230.513 31.2949 230.997C31.5387 231.482 31.6847 232.009 31.7245 232.55C31.7644 233.091 31.6972 233.635 31.527 234.15L31.2002 235.139Z" fill="#2F2E41"/>
<path d="M44.9239 117.476C49.0589 115.216 50.5785 110.031 48.3181 105.896C46.0577 101.761 40.8733 100.242 36.7383 102.502C32.6033 104.762 31.0836 109.947 33.344 114.082C35.6044 118.217 40.7889 119.736 44.9239 117.476Z" fill="#A0616A"/>
<path d="M48.3022 226.61L44.3468 200.504C44.3046 200.226 44.1669 199.97 43.9573 199.782C43.7477 199.594 43.4792 199.484 43.1976 199.472C42.9161 199.459 42.639 199.545 42.4138 199.715C42.1886 199.884 42.0291 200.126 41.9628 200.4L35.9395 225.279C35.8446 225.66 35.6107 225.992 35.2837 226.21C34.9566 226.427 34.5601 226.515 34.1719 226.455L17.5571 223.785C17.3368 223.749 17.1267 223.667 16.9407 223.544C16.7548 223.42 16.5974 223.259 16.4792 223.069C16.361 222.88 16.2846 222.668 16.2553 222.447C16.2259 222.225 16.2443 222 16.3091 221.787L37.9737 150.361C38.0353 150.158 38.0426 149.942 37.9949 149.735L37.2736 146.61C37.1943 146.271 37.2309 145.915 37.3774 145.599C37.5239 145.284 37.7719 145.026 38.0819 144.868C41.032 143.363 48.5024 140.233 54.143 143.661C54.326 143.773 54.4845 143.92 54.6087 144.095C54.7328 144.27 54.8202 144.468 54.8653 144.678L71.7897 224.222C71.8358 224.439 71.8354 224.662 71.7886 224.879C71.7418 225.095 71.6498 225.298 71.5184 225.476C71.3871 225.654 71.2195 225.802 71.0267 225.911C70.8339 226.019 70.6204 226.085 70.4001 226.105L49.9874 227.933C49.9403 227.937 49.8936 227.939 49.8473 227.939C49.4735 227.938 49.1124 227.804 48.829 227.56C48.5457 227.317 48.3588 226.98 48.3022 226.61Z" fill="#2F2E41"/>
<path d="M35.1731 103.96C35.8164 103.574 36.3872 103.077 36.86 102.494C37.0931 102.2 37.2465 101.85 37.3055 101.479C37.3645 101.108 37.3271 100.729 37.1968 100.376C36.7657 99.4251 35.4846 99.1239 34.492 99.4481C33.4995 99.7724 32.7326 100.55 32.0071 101.301C31.3681 101.963 30.7108 102.653 30.4077 103.521C30.1046 104.39 30.2603 105.491 31.0142 106.018C31.7541 106.535 32.8179 106.323 33.5295 105.768C34.2411 105.212 34.6816 104.388 35.1016 103.589L35.1731 103.96Z" fill="#2F2E41"/>
<path d="M32.2831 101.529C32.2358 99.1251 29.4954 97.4013 27.1287 97.8273C24.7621 98.2533 22.9429 100.271 22.0322 102.497C20.1083 107.199 21.5526 112.564 23.4064 117.295C25.2602 122.025 27.5543 126.827 27.2839 131.901C27.1012 134.643 26.1811 137.286 24.6209 139.548C23.0607 141.811 20.9182 143.611 18.4199 144.757C21.0909 145.967 24.2836 144.717 26.528 142.829C31.5127 138.638 33.4367 131.175 31.1003 125.096C29.9479 122.098 27.917 119.532 26.3314 116.739C24.7459 113.945 23.5825 110.653 24.4011 107.547C25.2197 104.44 28.7035 101.925 31.6818 103.128L32.2831 101.529Z" fill="#2F2E41"/>
<path d="M41.3426 113.775C40.5989 112.518 39.8479 110.868 41.2078 109.77C41.5035 109.541 41.8417 109.375 42.2027 109.279C42.5637 109.184 42.9401 109.162 43.3098 109.214C44.8427 109.398 46.5119 109.475 47.9955 108.918C48.552 108.726 49.0642 108.425 49.5019 108.032C49.9397 107.638 50.2939 107.161 50.5436 106.628C51.3096 104.813 50.3504 102.608 48.7492 101.461C47.7696 100.784 46.6121 100.412 45.4219 100.391C44.2316 100.37 43.0617 100.701 42.0588 101.342C39.9849 100.426 37.4685 100.834 35.5843 102.095C33.7002 103.356 32.4108 105.375 31.7104 107.532C31.0653 109.388 30.9542 111.387 31.3898 113.304C31.7404 114.637 32.4071 115.865 33.3334 116.886C34.2596 117.907 35.4182 118.689 36.711 119.167C37.2147 119.366 37.7616 119.429 38.2971 119.349C38.8326 119.27 39.3378 119.051 39.7621 118.715C39.7621 118.715 40.9381 117.688 41.3061 116.452C41.5887 115.502 41.74 114.447 41.3426 113.775Z" fill="#2F2E41"/>
<path d="M66.6557 121.389C66.613 121.576 66.5852 121.767 66.5726 121.959L51.6488 130.568L48.0214 128.48L44.1543 133.543L50.2167 137.863C50.7064 138.213 51.2962 138.393 51.8975 138.379C52.4987 138.364 53.079 138.155 53.5512 137.782L68.9402 125.642C69.6347 125.899 70.391 125.938 71.1085 125.755C71.826 125.572 72.4707 125.175 72.9569 124.616C73.4431 124.057 73.7477 123.364 73.8302 122.628C73.9127 121.892 73.7692 121.148 73.4187 120.496C73.0683 119.844 72.5275 119.313 71.8684 118.976C71.2092 118.638 70.4629 118.509 69.7287 118.606C68.9946 118.703 68.3073 119.021 67.7584 119.519C67.2094 120.016 66.8248 120.668 66.6557 121.389Z" fill="#A0616A"/>
<path d="M51.1499 130.976L46.3266 137.227C46.1894 137.405 46.0154 137.551 45.8165 137.656C45.6177 137.761 45.3987 137.821 45.1744 137.833C44.95 137.846 44.7257 137.809 44.5166 137.727C44.3076 137.645 44.1187 137.519 43.9628 137.357L38.5025 131.687C37.5963 130.98 37.0076 129.942 36.8654 128.801C36.7232 127.66 37.0392 126.51 37.7441 125.602C38.449 124.694 39.4852 124.102 40.6256 123.957C41.7659 123.812 42.9172 124.125 43.8271 124.828L50.6756 128.657C50.8716 128.767 51.0417 128.917 51.1743 129.099C51.3069 129.28 51.3988 129.488 51.4438 129.708C51.4888 129.928 51.4859 130.155 51.4351 130.374C51.3844 130.593 51.2871 130.798 51.1499 130.976Z" fill="#CCCCCC"/>
<path d="M100.214 235.822H0.405724C0.29812 235.822 0.194922 235.779 0.118834 235.703C0.0427458 235.627 0 235.524 0 235.416C0 235.308 0.0427458 235.205 0.118834 235.129C0.194922 235.053 0.29812 235.01 0.405724 235.01H100.214C100.321 235.01 100.424 235.053 100.501 235.129C100.577 235.205 100.619 235.308 100.619 235.416C100.619 235.524 100.577 235.627 100.501 235.703C100.424 235.779 100.321 235.822 100.214 235.822Z" fill="#CCCCCC"/>
</g>
<defs>
<clipPath id="clip0_1556_6822">
<rect width="313.012" height="235.822" fill="white"/>
</clipPath>
</defs>
</svg>
