<svg width="386" height="347" viewBox="0 0 386 347" fill="none" xmlns="http://www.w3.org/2000/svg">
<g clip-path="url(#clip0_2359_135)">
<path d="M197.454 1.69904L184.908 4.93433L30.3421 44.7939L17.7963 48.0292C11.7067 49.6069 6.49166 53.5357 3.2952 58.9536C0.0987376 64.3716 -0.818066 70.8363 0.745926 76.9294L55.1471 287.885C56.7248 293.974 60.6536 299.189 66.0715 302.386C71.4895 305.582 77.9542 306.499 84.0473 304.935L84.0797 304.927L263.673 258.613L263.705 258.605C269.795 257.027 275.01 253.099 278.206 247.681C281.403 242.263 282.319 235.798 280.755 229.705L226.354 18.7495C224.777 12.6599 220.848 7.44485 215.43 4.24837C210.012 1.05188 203.547 0.135057 197.454 1.69904Z" fill="#C5C5C5"/>
<path d="M199.163 8.3202L184.304 12.1522L34.3646 50.8185L19.5053 54.6504C15.1687 55.7739 11.4549 58.5717 9.17864 62.4299C6.90235 66.2882 6.24946 70.8918 7.36322 75.2309L61.7644 286.186C62.8879 290.523 65.6857 294.237 69.5439 296.513C73.4022 298.789 78.0058 299.442 82.3449 298.328L82.3773 298.32L261.97 252.006L262.003 251.998C266.339 250.875 270.053 248.077 272.329 244.218C274.605 240.36 275.258 235.757 274.145 231.418L219.743 20.4623C218.62 16.1258 215.822 12.412 211.964 10.1357C208.106 7.85943 203.502 7.20651 199.163 8.3202Z" fill="white"/>
<path d="M187.946 76.6435L97.0941 100.072C96.0794 100.334 95.0022 100.182 94.0997 99.6494C93.1971 99.1169 92.5431 98.2477 92.2814 97.233C92.0198 96.2183 92.1719 95.1412 92.7044 94.2386C93.2369 93.3361 94.1061 92.682 95.1208 92.4203L185.972 68.9915C186.987 68.7309 188.063 68.8836 188.965 69.4162C189.867 69.9488 190.52 70.8176 190.782 71.8317C191.043 72.8459 190.891 73.9223 190.36 74.8246C189.828 75.7269 188.96 76.3811 187.946 76.6435Z" fill="#C5C5C5"/>
<path d="M207.052 85.4881L100.418 112.987C99.4036 113.249 98.3265 113.096 97.4239 112.564C96.5214 112.031 95.8673 111.162 95.6057 110.148C95.344 109.133 95.4961 108.056 96.0286 107.153C96.5611 106.251 97.4303 105.597 98.445 105.335L205.079 77.8361C206.094 77.5744 207.171 77.7266 208.073 78.2591C208.976 78.7915 209.63 79.6607 209.892 80.6755C210.153 81.6902 210.001 82.7673 209.469 83.6698C208.936 84.5724 208.067 85.2265 207.052 85.4881Z" fill="#C5C5C5"/>
<path d="M202.872 134.519L112.02 157.948C111.517 158.078 110.994 158.107 110.481 158.035C109.967 157.962 109.472 157.789 109.025 157.525C108.579 157.262 108.188 156.913 107.876 156.498C107.564 156.083 107.337 155.611 107.207 155.109C107.078 154.606 107.048 154.083 107.121 153.57C107.193 153.056 107.366 152.561 107.63 152.114C107.894 151.668 108.243 151.277 108.658 150.965C109.072 150.653 109.544 150.426 110.047 150.296L200.898 126.867C201.401 126.738 201.924 126.708 202.437 126.781C202.951 126.854 203.446 127.027 203.893 127.29C204.34 127.554 204.73 127.903 205.042 128.318C205.354 128.732 205.581 129.204 205.711 129.707C205.84 130.209 205.87 130.732 205.797 131.246C205.725 131.76 205.552 132.254 205.288 132.701C205.024 133.148 204.675 133.539 204.261 133.851C203.846 134.163 203.374 134.39 202.872 134.519Z" fill="#C5C5C5"/>
<path d="M221.978 143.355L115.344 170.854C114.842 170.984 114.319 171.013 113.805 170.94C113.291 170.868 112.797 170.695 112.35 170.431C111.903 170.167 111.512 169.818 111.2 169.404C110.888 168.989 110.661 168.517 110.531 168.015C110.402 167.512 110.373 166.989 110.445 166.475C110.518 165.962 110.691 165.467 110.954 165.02C111.218 164.573 111.567 164.183 111.982 163.871C112.396 163.559 112.868 163.332 113.371 163.202L220.005 135.703C221.019 135.442 222.097 135.594 222.999 136.126C223.902 136.659 224.556 137.528 224.817 138.543C225.079 139.557 224.927 140.635 224.394 141.537C223.862 142.44 222.993 143.094 221.978 143.355Z" fill="#C5C5C5"/>
<path d="M217.791 192.387L126.939 215.815C125.925 216.076 124.848 215.924 123.946 215.391C123.044 214.859 122.391 213.99 122.129 212.975C121.868 211.961 122.019 210.884 122.551 209.982C123.083 209.08 123.952 208.426 124.966 208.163L215.817 184.735C216.832 184.473 217.909 184.625 218.812 185.158C219.714 185.69 220.368 186.559 220.63 187.574C220.892 188.589 220.74 189.666 220.207 190.568C219.675 191.471 218.805 192.125 217.791 192.387Z" fill="#C5C5C5"/>
<path d="M236.907 201.23L130.273 228.729C129.771 228.859 129.247 228.889 128.733 228.817C128.219 228.744 127.724 228.572 127.277 228.308C126.83 228.044 126.439 227.695 126.127 227.28C125.814 226.866 125.587 226.393 125.457 225.891C125.328 225.388 125.298 224.865 125.371 224.35C125.444 223.836 125.617 223.342 125.881 222.895C126.145 222.448 126.495 222.057 126.91 221.745C127.325 221.433 127.797 221.206 128.3 221.077L234.934 193.578C235.949 193.317 237.026 193.469 237.928 194.001C238.831 194.534 239.485 195.403 239.747 196.418C240.008 197.432 239.856 198.509 239.324 199.412C238.791 200.315 237.922 200.969 236.907 201.23Z" fill="#C5C5C5"/>
<path d="M81.5944 124.09L49.4429 132.382C48.9564 132.506 48.4402 132.433 48.0075 132.178C47.5749 131.923 47.2612 131.506 47.1352 131.02L39.7549 102.401C39.63 101.914 39.7032 101.398 39.9584 100.965C40.2137 100.533 40.6301 100.219 41.1164 100.093L73.2679 91.8018C73.7544 91.6769 74.2706 91.7501 74.7033 92.0053C75.1359 92.2605 75.4496 92.677 75.5756 93.1632L82.9559 121.783C83.0808 122.269 83.0076 122.785 82.7524 123.218C82.4971 123.651 82.0807 123.964 81.5944 124.09Z" fill="#B5B5B5"/>
<path d="M96.5202 181.957L64.3687 190.249C63.8822 190.374 63.3659 190.3 62.9333 190.045C62.5007 189.79 62.187 189.373 62.061 188.887L54.6807 160.268C54.5558 159.781 54.629 159.265 54.8842 158.832C55.1395 158.4 55.5559 158.086 56.0421 157.96L88.1937 149.669C88.6802 149.544 89.1964 149.617 89.629 149.872C90.0617 150.128 90.3754 150.544 90.5013 151.03L97.8817 179.65C98.0066 180.136 97.9334 180.653 97.6782 181.085C97.4229 181.518 97.0065 181.831 96.5202 181.957Z" fill="#B5B5B5"/>
<path d="M111.442 239.825L79.2906 248.116C78.804 248.241 78.2878 248.168 77.8552 247.912C77.4226 247.657 77.1089 247.241 76.9829 246.754L69.6025 218.135C69.4776 217.649 69.5508 217.132 69.8061 216.7C70.0613 216.267 70.4778 215.953 70.964 215.827L103.116 207.536C103.602 207.411 104.118 207.484 104.551 207.74C104.984 207.995 105.297 208.411 105.423 208.898L112.804 237.517C112.928 238.003 112.855 238.52 112.6 238.952C112.345 239.385 111.928 239.699 111.442 239.825Z" fill="#B5B5B5"/>
<path d="M322.774 55.1719H137.239C130.948 55.179 124.917 57.681 120.469 62.1292C116.021 66.5773 113.519 72.6083 113.512 78.8989V296.756C113.519 303.046 116.021 309.077 120.469 313.526C124.917 317.974 130.948 320.476 137.239 320.483H322.774C329.065 320.476 335.096 317.974 339.544 313.526C343.992 309.077 346.494 303.046 346.501 296.756V78.8989C346.494 72.6083 343.992 66.5773 339.544 62.1292C335.096 57.681 329.065 55.179 322.774 55.1719Z" fill="#B5B5B5"/>
<path d="M322.776 62H137.24C132.761 62.005 128.466 63.7868 125.298 66.9544C122.131 70.122 120.349 74.4168 120.344 78.8965V296.753C120.349 301.233 122.131 305.528 125.298 308.696C128.466 311.863 132.761 313.645 137.24 313.65H322.776C327.256 313.645 331.55 311.863 334.718 308.696C337.885 305.528 339.667 301.233 339.672 296.753V78.8965C339.667 74.4169 337.885 70.1221 334.718 66.9545C331.55 63.7869 327.256 62.0051 322.776 62Z" fill="white"/>
<path d="M342.25 347C366.171 347 385.563 327.609 385.563 303.688C385.563 279.767 366.171 260.375 342.25 260.375C318.329 260.375 298.938 279.767 298.938 303.688C298.938 327.609 318.329 347 342.25 347Z" fill="#DA3435"/>
<path d="M294.842 181.73H201.018C200.499 181.731 199.985 181.629 199.505 181.431C199.025 181.233 198.589 180.942 198.221 180.575C197.854 180.208 197.563 179.772 197.364 179.292C197.165 178.813 197.062 178.299 197.062 177.779C197.062 177.26 197.165 176.746 197.364 176.266C197.563 175.787 197.854 175.351 198.221 174.984C198.589 174.617 199.025 174.326 199.505 174.128C199.985 173.929 200.499 173.828 201.018 173.828H294.842C295.889 173.829 296.893 174.246 297.633 174.987C298.373 175.728 298.789 176.732 298.789 177.779C298.789 178.826 298.373 179.831 297.633 180.572C296.893 181.313 295.889 181.729 294.842 181.73Z" fill="#B5B5B5"/>
<path d="M311.141 195.066H201.018C200.499 195.067 199.985 194.965 199.505 194.767C199.025 194.569 198.589 194.278 198.221 193.911C197.854 193.544 197.563 193.108 197.364 192.628C197.165 192.149 197.062 191.634 197.062 191.115C197.062 190.596 197.165 190.082 197.364 189.602C197.563 189.122 197.854 188.687 198.221 188.32C198.589 187.953 199.025 187.662 199.505 187.464C199.985 187.265 200.499 187.163 201.018 187.164H311.141C312.189 187.164 313.194 187.58 313.935 188.321C314.676 189.062 315.092 190.067 315.092 191.115C315.092 192.163 314.676 193.168 313.935 193.909C313.194 194.65 312.189 195.066 311.141 195.066Z" fill="#B5B5B5"/>
<path d="M294.842 241.504H201.018C200.499 241.505 199.985 241.403 199.505 241.204C199.025 241.006 198.589 240.715 198.221 240.348C197.854 239.981 197.563 239.545 197.364 239.066C197.165 238.586 197.062 238.072 197.062 237.553C197.062 237.033 197.165 236.519 197.364 236.04C197.563 235.56 197.854 235.124 198.221 234.757C198.589 234.39 199.025 234.099 199.505 233.901C199.985 233.703 200.499 233.601 201.018 233.602H294.842C295.89 233.602 296.895 234.018 297.636 234.759C298.377 235.5 298.793 236.505 298.793 237.553C298.793 238.601 298.377 239.606 297.636 240.347C296.895 241.088 295.89 241.504 294.842 241.504Z" fill="#B5B5B5"/>
<path d="M311.141 254.84H201.018C200.499 254.84 199.985 254.739 199.505 254.54C199.025 254.342 198.589 254.051 198.221 253.684C197.854 253.317 197.563 252.881 197.364 252.402C197.165 251.922 197.062 251.408 197.062 250.889C197.062 250.369 197.165 249.855 197.364 249.376C197.563 248.896 197.854 248.46 198.221 248.093C198.589 247.726 199.025 247.435 199.505 247.237C199.985 247.039 200.499 246.937 201.018 246.938H311.141C311.66 246.937 312.174 247.039 312.654 247.237C313.134 247.435 313.57 247.726 313.937 248.093C314.305 248.46 314.596 248.896 314.795 249.376C314.994 249.855 315.096 250.369 315.096 250.889C315.096 251.408 314.994 251.922 314.795 252.402C314.596 252.881 314.305 253.317 313.937 253.684C313.57 254.051 313.134 254.342 312.654 254.54C312.174 254.739 311.66 254.84 311.141 254.84Z" fill="#B5B5B5"/>
<path d="M180.012 201.11H146.809C146.306 201.11 145.825 200.91 145.47 200.555C145.114 200.2 144.915 199.718 144.914 199.216V169.66C144.915 169.158 145.114 168.676 145.47 168.321C145.825 167.966 146.306 167.766 146.809 167.766H180.012C180.514 167.766 180.996 167.966 181.351 168.321C181.706 168.676 181.906 169.158 181.907 169.66V199.216C181.906 199.718 181.706 200.2 181.351 200.555C180.996 200.91 180.514 201.11 180.012 201.11Z" fill="#B5B5B5"/>
<path d="M180.012 260.876H146.809C146.306 260.876 145.825 260.676 145.47 260.321C145.114 259.965 144.915 259.484 144.914 258.982V229.426C144.915 228.924 145.114 228.442 145.47 228.087C145.825 227.732 146.306 227.532 146.809 227.531H180.012C180.514 227.532 180.996 227.732 181.351 228.087C181.706 228.442 181.906 228.924 181.907 229.426V258.982C181.906 259.484 181.706 259.965 181.351 260.321C180.996 260.676 180.514 260.876 180.012 260.876Z" fill="#B5B5B5"/>
<path d="M294.94 115.207H225.768C224.72 115.207 223.715 114.791 222.974 114.05C222.233 113.309 221.816 112.304 221.816 111.256C221.816 110.208 222.233 109.203 222.974 108.462C223.715 107.721 224.72 107.305 225.768 107.305H294.94C295.988 107.305 296.993 107.721 297.734 108.462C298.475 109.203 298.891 110.208 298.891 111.256C298.891 112.304 298.475 113.309 297.734 114.05C296.993 114.791 295.988 115.207 294.94 115.207Z" fill="#CCCCCC"/>
<path d="M311.239 128.543H225.768C225.249 128.543 224.735 128.441 224.256 128.242C223.776 128.044 223.341 127.753 222.974 127.386C222.607 127.019 222.316 126.583 222.117 126.104C221.919 125.624 221.816 125.111 221.816 124.592C221.816 124.073 221.919 123.559 222.117 123.08C222.316 122.6 222.607 122.165 222.974 121.798C223.341 121.431 223.776 121.14 224.256 120.941C224.735 120.743 225.249 120.641 225.768 120.641H311.239C312.287 120.641 313.292 121.057 314.033 121.798C314.774 122.539 315.19 123.544 315.19 124.592C315.19 125.64 314.774 126.645 314.033 127.386C313.292 128.127 312.287 128.543 311.239 128.543Z" fill="#CCCCCC"/>
<path d="M210.467 144.676H146.695C146.193 144.676 145.711 144.476 145.356 144.121C145.001 143.765 144.801 143.284 144.801 142.782V93.0118C144.801 92.5095 145.001 92.0279 145.356 91.6727C145.711 91.3175 146.193 91.1177 146.695 91.1172H210.467C210.969 91.1177 211.45 91.3175 211.806 91.6727C212.161 92.0279 212.361 92.5095 212.361 93.0118V142.782C212.361 143.284 212.161 143.765 211.806 144.121C211.45 144.476 210.969 144.676 210.467 144.676Z" fill="#DA3435"/>
<rect x="337.852" y="278" width="11.2951" height="53" rx="4.34426" fill="white"/>
<rect x="317" y="310.148" width="11.2951" height="53" rx="4.34426" transform="rotate(-90 317 310.148)" fill="white"/>
</g>
<defs>
<clipPath id="clip0_2359_135">
<rect width="385.569" height="346.046" fill="white" transform="translate(0 0.953125)"/>
</clipPath>
</defs>
</svg>
