<svg width="391" height="349" viewBox="0 0 391 349" fill="none" xmlns="http://www.w3.org/2000/svg">
<g clip-path="url(#clip0_2359_160)">
<path d="M365.496 189.905L86.2622 309.366C84.3551 310.179 82.2033 310.203 80.2789 309.431C78.3544 308.66 76.8144 307.157 75.9968 305.252L2.3348 133.071C1.73892 131.674 1.72156 130.097 2.28653 128.687C2.85151 127.277 3.95267 126.149 5.34844 125.55L288.336 4.48331C289.757 3.87716 291.361 3.85955 292.795 4.43434C294.23 5.00913 295.377 6.12938 295.987 7.54932L369.61 179.639C370.423 181.546 370.447 183.698 369.675 185.623C368.904 187.547 367.401 189.087 365.496 189.905Z" fill="#F2F2F2"/>
<path d="M352.584 184.725L92.3459 296.059C88.5311 297.691 84.1842 296.113 82.6559 292.54L18.5101 142.603C17.3767 139.954 18.7544 136.814 21.5812 135.605L285.318 22.7737C288.192 21.5443 291.467 22.7351 292.619 25.428L356.731 175.286C358.26 178.859 356.399 183.093 352.584 184.725Z" fill="white"/>
<path d="M296.222 8.41517L2.60868 134.028L1.04274 130.368C0.227311 128.454 0.20426 126.295 0.978635 124.364C1.75301 122.434 3.26158 120.889 5.17338 120.069L284.356 0.630596C286.269 -0.186026 288.428 -0.210421 290.359 0.562759C292.29 1.33594 293.836 2.84355 294.656 4.75485L296.222 8.41517Z" fill="#DA3435"/>
<path d="M13.4011 125.021C14.5223 125.021 15.4312 124.112 15.4312 122.991C15.4312 121.87 14.5223 120.961 13.4011 120.961C12.28 120.961 11.3711 121.87 11.3711 122.991C11.3711 124.112 12.28 125.021 13.4011 125.021Z" fill="white"/>
<path d="M20.491 121.99C21.6122 121.99 22.521 121.081 22.521 119.96C22.521 118.839 21.6122 117.93 20.491 117.93C19.3698 117.93 18.4609 118.839 18.4609 119.96C18.4609 121.081 19.3698 121.99 20.491 121.99Z" fill="white"/>
<path d="M27.5769 118.959C28.6981 118.959 29.607 118.05 29.607 116.928C29.607 115.807 28.6981 114.898 27.5769 114.898C26.4558 114.898 25.5469 115.807 25.5469 116.928C25.5469 118.05 26.4558 118.959 27.5769 118.959Z" fill="white"/>
<path d="M144.428 172.42L109.723 187.268C107.816 188.081 105.664 188.105 103.739 187.334C101.815 186.562 100.275 185.059 99.4574 183.154L80.2994 138.373C79.4861 136.466 79.4625 134.314 80.2337 132.39C81.0049 130.466 82.5079 128.926 84.4131 128.108L119.119 113.26C121.026 112.447 123.178 112.423 125.102 113.195C127.026 113.966 128.566 115.469 129.384 117.374L148.542 162.155C149.355 164.062 149.379 166.214 148.608 168.138C147.837 170.063 146.334 171.603 144.428 172.42Z" fill="#F2F2F2"/>
<path d="M203.155 147.287L168.449 162.135C166.542 162.948 164.39 162.972 162.466 162.201C160.542 161.43 159.002 159.926 158.184 158.021L139.026 113.241C138.213 111.333 138.189 109.182 138.96 107.257C139.731 105.333 141.235 103.793 143.14 102.975L177.845 88.1275C179.752 87.3142 181.904 87.2906 183.829 88.0618C185.753 88.833 187.293 90.3361 188.111 92.2412L207.269 137.022C208.082 138.929 208.106 141.081 207.334 143.005C206.563 144.93 205.06 146.47 203.155 147.287Z" fill="#F2F2F2"/>
<path d="M261.885 122.147L227.18 136.994C225.273 137.808 223.121 137.831 221.196 137.06C219.272 136.289 217.732 134.786 216.914 132.881L197.756 88.0999C196.943 86.1929 196.92 84.0411 197.691 82.1166C198.462 80.1922 199.965 78.6522 201.87 77.8346L236.576 62.9869C238.483 62.1736 240.635 62.15 242.559 62.9212C244.484 63.6924 246.024 65.1954 246.841 67.1006L265.999 111.881C266.812 113.788 266.836 115.94 266.065 117.865C265.294 119.789 263.791 121.329 261.885 122.147Z" fill="#F2F2F2"/>
<path d="M174.077 241.686L139.371 256.533C137.464 257.347 135.312 257.37 133.388 256.599C131.463 255.828 129.923 254.325 129.106 252.42L109.948 207.639C109.135 205.732 109.111 203.58 109.882 201.656C110.653 199.731 112.156 198.191 114.062 197.374L148.767 182.526C150.674 181.713 152.826 181.689 154.75 182.46C156.675 183.231 158.215 184.735 159.033 186.64L178.191 231.42C179.004 233.328 179.027 235.479 178.256 237.404C177.485 239.328 175.982 240.868 174.077 241.686Z" fill="#F2F2F2"/>
<path d="M232.803 216.553L198.098 231.401C196.191 232.214 194.039 232.238 192.114 231.466C190.19 230.695 188.65 229.192 187.832 227.287L168.674 182.506C167.861 180.599 167.837 178.447 168.609 176.523C169.38 174.598 170.883 173.058 172.788 172.241L207.494 157.393C209.401 156.58 211.553 156.556 213.477 157.327C215.401 158.099 216.941 159.602 217.759 161.507L236.917 206.288C237.73 208.195 237.754 210.347 236.983 212.271C236.212 214.195 234.709 215.735 232.803 216.553Z" fill="#F2F2F2"/>
<path d="M291.53 191.452L256.824 206.299C254.917 207.112 252.765 207.136 250.841 206.365C248.917 205.594 247.377 204.091 246.559 202.185L227.401 157.405C226.588 155.498 226.564 153.346 227.335 151.421C228.106 149.497 229.609 147.957 231.515 147.139L266.22 132.292C268.127 131.478 270.279 131.455 272.204 132.226C274.128 132.997 275.668 134.5 276.486 136.405L295.644 181.186C296.457 183.093 296.481 185.245 295.709 187.169C294.938 189.094 293.435 190.634 291.53 191.452Z" fill="#F2F2F2"/>
<path d="M382.749 348.607H79.0347C76.9615 348.604 74.9738 347.78 73.5078 346.314C72.0418 344.848 71.2172 342.86 71.2148 340.787V153.51C71.2165 151.991 71.8206 150.535 72.8946 149.461C73.9686 148.387 75.4248 147.783 76.9437 147.781H384.741C386.286 147.783 387.768 148.398 388.86 149.49C389.953 150.583 390.567 152.064 390.569 153.609V340.787C390.567 342.86 389.742 344.848 388.276 346.314C386.81 347.78 384.822 348.604 382.749 348.607Z" fill="#E6E6E6"/>
<path d="M372.934 338.73H89.8804C85.7311 338.73 82.3555 335.569 82.3555 331.684V168.601C82.3555 165.719 84.8569 163.375 87.9316 163.375H374.791C377.916 163.375 380.459 165.758 380.459 168.687V331.684C380.459 335.569 377.083 338.73 372.934 338.73Z" fill="white"/>
<path d="M390.46 154.489H71.1055V150.508C71.1085 148.427 71.9365 146.433 73.4078 144.963C74.8791 143.493 76.8737 142.666 78.9538 142.664H382.612C384.692 142.666 386.687 143.493 388.158 144.963C389.629 146.433 390.457 148.427 390.46 150.508V154.489Z" fill="#DA3435"/>
<path d="M85.3738 150.599C86.495 150.599 87.4039 149.69 87.4039 148.569C87.4039 147.448 86.495 146.539 85.3738 146.539C84.2526 146.539 83.3438 147.448 83.3438 148.569C83.3438 149.69 84.2526 150.599 85.3738 150.599Z" fill="white"/>
<path d="M93.0808 150.599C94.202 150.599 95.1109 149.69 95.1109 148.569C95.1109 147.448 94.202 146.539 93.0808 146.539C91.9597 146.539 91.0508 147.448 91.0508 148.569C91.0508 149.69 91.9597 150.599 93.0808 150.599Z" fill="white"/>
<path d="M100.792 150.599C101.913 150.599 102.822 149.69 102.822 148.569C102.822 147.448 101.913 146.539 100.792 146.539C99.6706 146.539 98.7617 147.448 98.7617 148.569C98.7617 149.69 99.6706 150.599 100.792 150.599Z" fill="white"/>
<path d="M357.617 209.156H223.507C218.138 209.156 213.785 213.509 213.785 218.878V218.878C213.785 224.248 218.138 228.601 223.507 228.601H357.617C362.987 228.601 367.339 224.248 367.339 218.878C367.339 213.509 362.987 209.156 357.617 209.156Z" fill="#E6E6E6"/>
<path d="M357.617 241.344H223.507C218.138 241.344 213.785 245.696 213.785 251.066V251.066C213.785 256.435 218.138 260.788 223.507 260.788H357.617C362.987 260.788 367.339 256.435 367.339 251.066C367.339 245.696 362.987 241.344 357.617 241.344Z" fill="#E6E6E6"/>
<path d="M357.617 273.492H223.507C218.138 273.492 213.785 277.845 213.785 283.214V283.214C213.785 288.584 218.138 292.936 223.507 292.936H357.617C362.987 292.936 367.339 288.584 367.339 283.214C367.339 277.845 362.987 273.492 357.617 273.492Z" fill="#E6E6E6"/>
<path d="M201.164 251.054C201.164 261.365 198.106 271.445 192.378 280.018C186.649 288.591 178.507 295.273 168.981 299.219C159.455 303.165 148.973 304.197 138.861 302.185C128.748 300.174 119.459 295.209 112.168 287.918C104.877 280.627 99.9117 271.338 97.9002 261.225C95.8886 251.112 96.921 240.63 100.867 231.104C104.813 221.578 111.495 213.436 120.068 207.708C128.641 201.979 138.72 198.922 149.031 198.922C162.856 198.926 176.114 204.42 185.89 214.196C195.665 223.972 201.159 237.229 201.164 251.054Z" fill="white"/>
<path d="M173.127 259.95C172.558 293.291 122.963 293.286 122.398 259.949C122.968 226.608 172.563 226.613 173.127 259.95Z" fill="#DA3435"/>
<path d="M146.757 270.3L146.73 269.352C153.263 270.224 154.67 262.128 148.082 265.155L149.586 254.164L150.525 254.293L149.246 263.642C156.183 262.609 153.617 271.247 146.757 270.3Z" fill="#2F2E41"/>
<path d="M160.273 255.117H155.168V256.065H160.273V255.117Z" fill="#2F2E41"/>
<path d="M144.164 255.117H139.059V256.065H144.164V255.117Z" fill="#2F2E41"/>
<path d="M155.994 295.411C156.99 288.695 149.127 290.022 144.966 289.956C144.295 289.958 143.633 290.11 143.028 290.4C142.423 290.69 141.891 291.112 141.469 291.634C141.048 292.156 140.748 292.766 140.592 293.418C140.437 294.071 140.428 294.75 140.568 295.406C137.347 296.402 134.365 298.047 131.805 300.24C142.593 304.002 154.315 304.132 165.184 300.61C162.534 298.231 159.398 296.456 155.994 295.411Z" fill="#2F2E41"/>
<path d="M135.843 247.961C140.544 245.244 146.245 247.328 151.1 248.468C160.313 251.299 173.231 247.753 174.352 236.779C175.517 226.573 161.556 220.885 157.093 231.043L158.393 230.873C143.92 209.365 118.746 210.181 118.912 239.75C118.858 240.664 120.28 240.661 120.333 239.75C119.8 222.325 131.332 210.414 147.634 221.612C151.365 224.334 154.383 227.939 157.165 231.591C158.863 233.493 159.232 225.299 167.357 227.446C176.3 230.91 173.382 243.715 165.389 246.526C155.513 251.572 144.817 241.789 135.126 246.732C134.97 246.831 134.858 246.986 134.814 247.165C134.771 247.344 134.798 247.534 134.891 247.693C134.984 247.852 135.136 247.969 135.313 248.019C135.491 248.069 135.681 248.048 135.843 247.961Z" fill="#2F2E41"/>
<path d="M149.027 304.589C135.564 304.578 122.6 299.492 112.721 290.346C102.842 281.2 96.7728 268.667 95.7249 255.245C94.677 241.823 98.7271 228.499 107.067 217.931C115.407 207.363 127.425 200.326 140.723 198.226C154.021 196.125 167.622 199.114 178.813 206.597C190.005 214.08 197.965 225.507 201.105 238.598C204.245 251.69 202.336 265.484 195.756 277.229C189.177 288.975 178.412 297.809 165.609 301.97C160.254 303.711 154.658 304.595 149.027 304.589ZM149.027 200.324C138.995 200.322 129.188 203.296 120.847 208.868C112.505 214.441 106.003 222.362 102.164 231.63C98.3241 240.897 97.3191 251.096 99.2758 260.935C101.233 270.774 106.063 279.811 113.157 286.905C120.25 293.998 129.288 298.829 139.127 300.786C148.966 302.742 159.164 301.737 168.432 297.898C177.7 294.058 185.621 287.556 191.193 279.215C196.766 270.873 199.739 261.066 199.738 251.035C199.722 237.59 194.375 224.7 184.868 215.194C175.361 205.687 162.471 200.339 149.027 200.324Z" fill="#3F3D56"/>
<path d="M342.66 346.047C366.581 346.047 385.973 326.655 385.973 302.735C385.973 278.814 366.581 259.422 342.66 259.422C318.739 259.422 299.348 278.814 299.348 302.735C299.348 326.655 318.739 346.047 342.66 346.047Z" fill="#DA3435"/>
<rect x="337.852" y="277" width="11.2951" height="53" rx="4.34426" fill="white"/>
<rect x="317" y="309.148" width="11.2951" height="53" rx="4.34426" transform="rotate(-90 317 309.148)" fill="white"/>
</g>
<defs>
<clipPath id="clip0_2359_160">
<rect width="390.16" height="348.597" fill="white" transform="translate(0.414062)"/>
</clipPath>
</defs>
</svg>
